<svg xmlns="http://www.w3.org/2000/svg" xmlns:xlink="http://www.w3.org/1999/xlink" contentStyleType="text/css" data-diagram-type="CLASS" height="1002px" preserveAspectRatio="none" style="width:979px;height:1002px;background:#FFFFFF;" version="1.1" viewBox="0 0 979 1002" width="979px" zoomAndPan="magnify"><defs/><g><!--class ConversationType--><g class="entity" data-entity="ConversationType" data-source-line="1" data-uid="ent0002" id="entity_ConversationType"><rect fill="#F1F1F1" height="96.8906" rx="2.5" ry="2.5" style="stroke:#181818;stroke-width:0.5;" width="158.8955" x="251.59" y="189.33"/><ellipse cx="266.59" cy="205.33" fill="#EB937F" rx="11" ry="11" style="stroke:#181818;stroke-width:1;"/><path d="M270.6994,211.33 L262.9806,211.33 L262.9806,198.9394 L270.6994,198.9394 L270.6994,201.0956 L265.4338,201.0956 L265.4338,203.7675 L270.1994,203.7675 L270.1994,205.9237 L265.4338,205.9237 L265.4338,209.1737 L270.6994,209.1737 L270.6994,211.33 Z " fill="#000000"/><text fill="#000000" font-family="sans-serif" font-size="14" lengthAdjust="spacing" textLength="126.8955" x="280.59" y="210.1767">ConversationType</text><line style="stroke:#181818;stroke-width:0.5;" x1="252.59" x2="409.4855" y1="221.33" y2="221.33"/><text fill="#000000" font-family="sans-serif" font-size="14" lengthAdjust="spacing" textLength="140.417" x="257.59" y="238.3251">DirectMessages = 0</text><text fill="#000000" font-family="sans-serif" font-size="14" lengthAdjust="spacing" textLength="72.4678" x="257.59" y="254.622">Group = 1</text><text fill="#000000" font-family="sans-serif" font-size="14" lengthAdjust="spacing" textLength="87.0146" x="257.59" y="270.9189">Channel = 2</text><line style="stroke:#181818;stroke-width:0.5;" x1="252.59" x2="409.4855" y1="278.2206" y2="278.2206"/></g><!--class ParticipantRole--><g class="entity" data-entity="ParticipantRole" data-source-line="7" data-uid="ent0003" id="entity_ParticipantRole"><rect fill="#F1F1F1" height="96.8906" rx="2.5" ry="2.5" style="stroke:#181818;stroke-width:0.5;" width="138.3672" x="42.86" y="7"/><ellipse cx="57.86" cy="23" fill="#EB937F" rx="11" ry="11" style="stroke:#181818;stroke-width:1;"/><path d="M61.9694,29 L54.2506,29 L54.2506,16.6094 L61.9694,16.6094 L61.9694,18.7656 L56.7038,18.7656 L56.7038,21.4375 L61.4694,21.4375 L61.4694,23.5938 L56.7038,23.5938 L56.7038,26.8438 L61.9694,26.8438 L61.9694,29 Z " fill="#000000"/><text fill="#000000" font-family="sans-serif" font-size="14" lengthAdjust="spacing" textLength="106.3672" x="71.86" y="27.8467">ParticipantRole</text><line style="stroke:#181818;stroke-width:0.5;" x1="43.86" x2="180.2272" y1="39" y2="39"/><text fill="#000000" font-family="sans-serif" font-size="14" lengthAdjust="spacing" textLength="75.25" x="48.86" y="55.9951">Owner = 0</text><text fill="#000000" font-family="sans-serif" font-size="14" lengthAdjust="spacing" textLength="74.4023" x="48.86" y="72.292">Admin = 1</text><text fill="#000000" font-family="sans-serif" font-size="14" lengthAdjust="spacing" textLength="87.124" x="48.86" y="88.5889">Member = 2</text><line style="stroke:#181818;stroke-width:0.5;" x1="43.86" x2="180.2272" y1="95.8906" y2="95.8906"/></g><!--class EmotionType--><g class="entity" data-entity="EmotionType" data-source-line="13" data-uid="ent0004" id="entity_EmotionType"><rect fill="#F1F1F1" height="145.7813" rx="2.5" ry="2.5" style="stroke:#181818;stroke-width:0.5;" width="124.2031" x="701.94" y="164.89"/><ellipse cx="716.94" cy="180.89" fill="#EB937F" rx="11" ry="11" style="stroke:#181818;stroke-width:1;"/><path d="M721.0494,186.89 L713.3306,186.89 L713.3306,174.4994 L721.0494,174.4994 L721.0494,176.6556 L715.7838,176.6556 L715.7838,179.3275 L720.5494,179.3275 L720.5494,181.4838 L715.7838,181.4838 L715.7838,184.7338 L721.0494,184.7338 L721.0494,186.89 Z " fill="#000000"/><text fill="#000000" font-family="sans-serif" font-size="14" lengthAdjust="spacing" textLength="92.2031" x="730.94" y="185.7367">EmotionType</text><line style="stroke:#181818;stroke-width:0.5;" x1="702.94" x2="825.1431" y1="196.89" y2="196.89"/><text fill="#000000" font-family="sans-serif" font-size="14" lengthAdjust="spacing" textLength="68.4551" x="707.94" y="213.8851">Smile = 0</text><text fill="#000000" font-family="sans-serif" font-size="14" lengthAdjust="spacing" textLength="68.5029" x="707.94" y="230.182">Heart = 1</text><text fill="#000000" font-family="sans-serif" font-size="14" lengthAdjust="spacing" textLength="57.9482" x="707.94" y="246.4789">Like = 2</text><text fill="#000000" font-family="sans-serif" font-size="14" lengthAdjust="spacing" textLength="76.002" x="707.94" y="262.7757">Dislike = 3</text><text fill="#000000" font-family="sans-serif" font-size="14" lengthAdjust="spacing" textLength="107.8711" x="707.94" y="279.0726">Handshake = 4</text><text fill="#000000" font-family="sans-serif" font-size="14" lengthAdjust="spacing" textLength="48.665" x="707.94" y="295.3695">Ok = 5</text><line style="stroke:#181818;stroke-width:0.5;" x1="702.94" x2="825.1431" y1="302.6713" y2="302.6713"/></g><!--class FileType--><g class="entity" data-entity="FileType" data-source-line="22" data-uid="ent0005" id="entity_FileType"><rect fill="#F1F1F1" height="113.1875" rx="2.5" ry="2.5" style="stroke:#181818;stroke-width:0.5;" width="90.7822" x="863.65" y="395.82"/><ellipse cx="878.65" cy="411.82" fill="#EB937F" rx="11" ry="11" style="stroke:#181818;stroke-width:1;"/><path d="M882.7594,417.82 L875.0406,417.82 L875.0406,405.4294 L882.7594,405.4294 L882.7594,407.5856 L877.4938,407.5856 L877.4938,410.2575 L882.2594,410.2575 L882.2594,412.4137 L877.4938,412.4137 L877.4938,415.6637 L882.7594,415.6637 L882.7594,417.82 Z " fill="#000000"/><text fill="#000000" font-family="sans-serif" font-size="14" lengthAdjust="spacing" textLength="58.7822" x="892.65" y="416.6667">FileType</text><line style="stroke:#181818;stroke-width:0.5;" x1="864.65" x2="953.4322" y1="427.82" y2="427.82"/><text fill="#000000" font-family="sans-serif" font-size="14" lengthAdjust="spacing" textLength="69.4736" x="869.65" y="444.8151">Photo = 0</text><text fill="#000000" font-family="sans-serif" font-size="14" lengthAdjust="spacing" textLength="69.0703" x="869.65" y="461.112">Video = 1</text><text fill="#000000" font-family="sans-serif" font-size="14" lengthAdjust="spacing" textLength="69.3301" x="869.65" y="477.4089">Audio = 2</text><text fill="#000000" font-family="sans-serif" font-size="14" lengthAdjust="spacing" textLength="69.2891" x="869.65" y="493.7057">Other = 3</text><line style="stroke:#181818;stroke-width:0.5;" x1="864.65" x2="953.4322" y1="501.0075" y2="501.0075"/></g><!--class User--><g class="entity" data-entity="User" data-source-line="29" data-uid="ent0006" id="entity_User"><rect fill="#F1F1F1" height="162.0781" rx="2.5" ry="2.5" style="stroke:#181818;stroke-width:0.5;" width="203.5635" x="395.26" y="833.23"/><ellipse cx="476.8367" cy="849.23" fill="#ADD1B2" rx="11" ry="11" style="stroke:#181818;stroke-width:1;"/><path d="M480.946,855.23 L473.2273,855.23 L473.2273,842.8394 L480.946,842.8394 L480.946,844.9956 L475.6804,844.9956 L475.6804,847.6675 L480.446,847.6675 L480.446,849.8237 L475.6804,849.8237 L475.6804,853.0737 L480.946,853.0737 L480.946,855.23 Z " fill="#000000"/><text fill="#000000" font-family="sans-serif" font-size="14" lengthAdjust="spacing" textLength="31.9102" x="497.3367" y="854.0767">User</text><line style="stroke:#181818;stroke-width:0.5;" x1="396.26" x2="597.8235" y1="865.23" y2="865.23"/><g data-visibility-modifier="IE_MANDATORY"><ellipse cx="406.26" cy="878.8784" fill="#000000" rx="3" ry="3" style="stroke:#000000;stroke-width:1;"/></g><text fill="#000000" font-family="sans-serif" font-size="14" lengthAdjust="spacing" textLength="52.7051" x="415.26" y="882.2251">Id: uuid</text><line style="stroke:#181818;stroke-width:1;" x1="396.26" x2="597.8235" y1="889.5269" y2="889.5269"/><g data-visibility-modifier="IE_MANDATORY"><ellipse cx="406.26" cy="903.1753" fill="#000000" rx="3" ry="3" style="stroke:#000000;stroke-width:1;"/></g><text fill="#000000" font-family="sans-serif" font-size="14" lengthAdjust="spacing" textLength="108.6572" x="415.26" y="906.522">Username: text</text><g data-visibility-modifier="IE_MANDATORY"><ellipse cx="406.26" cy="919.4722" fill="#000000" rx="3" ry="3" style="stroke:#000000;stroke-width:1;"/></g><text fill="#000000" font-family="sans-serif" font-size="14" lengthAdjust="spacing" textLength="177.5635" x="415.26" y="922.8189">LastActivityUtc: datetime</text><g data-visibility-modifier="IE_MANDATORY"><ellipse cx="406.26" cy="935.7691" fill="#000000" rx="3" ry="3" style="stroke:#000000;stroke-width:1;"/></g><text fill="#000000" font-family="sans-serif" font-size="14" lengthAdjust="spacing" textLength="166.5781" x="415.26" y="939.1157">CreatedAtUtc: datetime</text><text fill="#000000" font-family="sans-serif" font-size="14" lengthAdjust="spacing" textLength="116.7783" x="415.26" y="955.4126">Description: text</text><text fill="#000000" font-family="sans-serif" font-size="14" lengthAdjust="spacing" textLength="162.873" x="415.26" y="971.7095">BirthDateUtc: datetime</text><g data-visibility-modifier="IE_MANDATORY"><ellipse cx="406.26" cy="984.6597" fill="#000000" rx="3" ry="3" style="stroke:#000000;stroke-width:1;"/></g><text fill="#000000" font-family="sans-serif" font-size="14" lengthAdjust="spacing" textLength="95.2109" x="415.26" y="988.0064">Settings: json</text></g><!--class Conversation--><g class="entity" data-entity="Conversation" data-source-line="40" data-uid="ent0007" id="entity_Conversation"><rect fill="#F1F1F1" height="129.4844" rx="2.5" ry="2.5" style="stroke:#181818;stroke-width:0.5;" width="208.041" x="295.02" y="387.67"/><ellipse cx="348.5112" cy="403.67" fill="#ADD1B2" rx="11" ry="11" style="stroke:#181818;stroke-width:1;"/><path d="M352.6206,409.67 L344.9018,409.67 L344.9018,397.2794 L352.6206,397.2794 L352.6206,399.4356 L347.355,399.4356 L347.355,402.1075 L352.1206,402.1075 L352.1206,404.2637 L347.355,404.2637 L347.355,407.5137 L352.6206,407.5137 L352.6206,409.67 Z " fill="#000000"/><text fill="#000000" font-family="sans-serif" font-size="14" lengthAdjust="spacing" textLength="92.5586" x="369.0112" y="408.5167">Conversation</text><line style="stroke:#181818;stroke-width:0.5;" x1="296.02" x2="502.061" y1="419.67" y2="419.67"/><g data-visibility-modifier="IE_MANDATORY"><ellipse cx="306.02" cy="433.3184" fill="#000000" rx="3" ry="3" style="stroke:#000000;stroke-width:1;"/></g><text fill="#000000" font-family="sans-serif" font-size="14" lengthAdjust="spacing" textLength="52.7051" x="315.02" y="436.6651">Id: uuid</text><line style="stroke:#181818;stroke-width:1;" x1="296.02" x2="502.061" y1="443.9669" y2="443.9669"/><text fill="#000000" font-family="sans-serif" font-size="14" lengthAdjust="spacing" textLength="67.4775" x="315.02" y="460.962">Title: text</text><text fill="#000000" font-family="sans-serif" font-size="14" lengthAdjust="spacing" textLength="116.7783" x="315.02" y="477.2589">Description: text</text><g data-visibility-modifier="IE_MANDATORY"><ellipse cx="306.02" cy="490.2091" fill="#000000" rx="3" ry="3" style="stroke:#000000;stroke-width:1;"/></g><text fill="#000000" font-family="sans-serif" font-size="14" lengthAdjust="spacing" textLength="170.3994" x="315.02" y="493.5557">Type: ConversationType</text><text fill="#000000" font-family="sans-serif" font-size="14" lengthAdjust="spacing" textLength="182.041" x="315.02" y="509.8526">LastMessageId: uuid &#171;FK&#187;</text></g><!--class Participant--><g class="entity" data-entity="Participant" data-source-line="49" data-uid="ent0008" id="entity_Participant"><rect fill="#F1F1F1" height="129.4844" rx="2.5" ry="2.5" style="stroke:#181818;stroke-width:0.5;" width="210.0781" x="7" y="173.04"/><ellipse cx="70.0034" cy="189.04" fill="#ADD1B2" rx="11" ry="11" style="stroke:#181818;stroke-width:1;"/><path d="M74.1128,195.04 L66.394,195.04 L66.394,182.6494 L74.1128,182.6494 L74.1128,184.8056 L68.8472,184.8056 L68.8472,187.4775 L73.6128,187.4775 L73.6128,189.6337 L68.8472,189.6337 L68.8472,192.8837 L74.1128,192.8837 L74.1128,195.04 Z " fill="#000000"/><text fill="#000000" font-family="sans-serif" font-size="14" lengthAdjust="spacing" textLength="75.5713" x="90.5034" y="193.8867">Participant</text><line style="stroke:#181818;stroke-width:0.5;" x1="8" x2="216.0781" y1="205.04" y2="205.04"/><g data-visibility-modifier="IE_MANDATORY"><ellipse cx="18" cy="218.6884" fill="#000000" rx="3" ry="3" style="stroke:#000000;stroke-width:1;"/></g><text fill="#000000" font-family="sans-serif" font-size="14" lengthAdjust="spacing" textLength="52.7051" x="27" y="222.0351">Id: uuid</text><line style="stroke:#181818;stroke-width:1;" x1="8" x2="216.0781" y1="229.3369" y2="229.3369"/><g data-visibility-modifier="IE_MANDATORY"><ellipse cx="18" cy="242.9853" fill="#000000" rx="3" ry="3" style="stroke:#000000;stroke-width:1;"/></g><text fill="#000000" font-family="sans-serif" font-size="14" lengthAdjust="spacing" textLength="123.4297" x="27" y="246.332">UserId: uuid &#171;FK&#187;</text><g data-visibility-modifier="IE_MANDATORY"><ellipse cx="18" cy="259.2822" fill="#000000" rx="3" ry="3" style="stroke:#000000;stroke-width:1;"/></g><text fill="#000000" font-family="sans-serif" font-size="14" lengthAdjust="spacing" textLength="184.0781" x="27" y="262.6289">ConversationId: uuid &#171;FK&#187;</text><g data-visibility-modifier="IE_MANDATORY"><ellipse cx="18" cy="275.5791" fill="#000000" rx="3" ry="3" style="stroke:#000000;stroke-width:1;"/></g><text fill="#000000" font-family="sans-serif" font-size="14" lengthAdjust="spacing" textLength="146.3301" x="27" y="278.9257">Role: ParticipantRole</text><g data-visibility-modifier="IE_MANDATORY"><ellipse cx="18" cy="291.8759" fill="#000000" rx="3" ry="3" style="stroke:#000000;stroke-width:1;"/></g><text fill="#000000" font-family="sans-serif" font-size="14" lengthAdjust="spacing" textLength="153.8223" x="27" y="295.2226">JoinedAtUtc: datetime</text></g><!--class Message--><g class="entity" data-entity="Message" data-source-line="58" data-uid="ent0009" id="entity_Message"><rect fill="#F1F1F1" height="162.0781" rx="2.5" ry="2.5" style="stroke:#181818;stroke-width:0.5;" width="210.0781" x="414" y="594.15"/><ellipse cx="484.1094" cy="610.15" fill="#ADD1B2" rx="11" ry="11" style="stroke:#181818;stroke-width:1;"/><path d="M488.2188,616.15 L480.5,616.15 L480.5,603.7594 L488.2188,603.7594 L488.2188,605.9156 L482.9531,605.9156 L482.9531,608.5875 L487.7188,608.5875 L487.7188,610.7437 L482.9531,610.7437 L482.9531,613.9937 L488.2188,613.9937 L488.2188,616.15 Z " fill="#000000"/><text fill="#000000" font-family="sans-serif" font-size="14" lengthAdjust="spacing" textLength="61.3594" x="504.6094" y="614.9967">Message</text><line style="stroke:#181818;stroke-width:0.5;" x1="415" x2="623.0781" y1="626.15" y2="626.15"/><g data-visibility-modifier="IE_MANDATORY"><ellipse cx="425" cy="639.7984" fill="#000000" rx="3" ry="3" style="stroke:#000000;stroke-width:1;"/></g><text fill="#000000" font-family="sans-serif" font-size="14" lengthAdjust="spacing" textLength="52.7051" x="434" y="643.1451">Id: uuid</text><line style="stroke:#181818;stroke-width:1;" x1="415" x2="623.0781" y1="650.4469" y2="650.4469"/><g data-visibility-modifier="IE_MANDATORY"><ellipse cx="425" cy="664.0953" fill="#000000" rx="3" ry="3" style="stroke:#000000;stroke-width:1;"/></g><text fill="#000000" font-family="sans-serif" font-size="14" lengthAdjust="spacing" textLength="184.0781" x="434" y="667.442">ConversationId: uuid &#171;FK&#187;</text><g data-visibility-modifier="IE_MANDATORY"><ellipse cx="425" cy="680.3922" fill="#000000" rx="3" ry="3" style="stroke:#000000;stroke-width:1;"/></g><text fill="#000000" font-family="sans-serif" font-size="14" lengthAdjust="spacing" textLength="123.4297" x="434" y="683.7389">UserId: uuid &#171;FK&#187;</text><g data-visibility-modifier="IE_MANDATORY"><ellipse cx="425" cy="696.6891" fill="#000000" rx="3" ry="3" style="stroke:#000000;stroke-width:1;"/></g><text fill="#000000" font-family="sans-serif" font-size="14" lengthAdjust="spacing" textLength="65.7686" x="434" y="700.0357">Seq: long</text><text fill="#000000" font-family="sans-serif" font-size="14" lengthAdjust="spacing" textLength="72.3857" x="434" y="716.3326">Body: text</text><g data-visibility-modifier="IE_MANDATORY"><ellipse cx="425" cy="729.2828" fill="#000000" rx="3" ry="3" style="stroke:#000000;stroke-width:1;"/></g><text fill="#000000" font-family="sans-serif" font-size="14" lengthAdjust="spacing" textLength="95.1084" x="434" y="732.6295">IsEdited: bool</text><g data-visibility-modifier="IE_MANDATORY"><ellipse cx="425" cy="745.5797" fill="#000000" rx="3" ry="3" style="stroke:#000000;stroke-width:1;"/></g><text fill="#000000" font-family="sans-serif" font-size="14" lengthAdjust="spacing" textLength="166.5781" x="434" y="748.9264">CreatedAtUtc: datetime</text></g><!--class MessagesAttachments--><g class="entity" data-entity="MessagesAttachments" data-source-line="69" data-uid="ent0010" id="entity_MessagesAttachments"><rect fill="#F1F1F1" height="80.5938" rx="2.5" ry="2.5" style="stroke:#181818;stroke-width:0.5;" width="190.2656" x="656.91" y="873.97"/><ellipse cx="671.91" cy="889.97" fill="#ADD1B2" rx="11" ry="11" style="stroke:#181818;stroke-width:1;"/><path d="M676.0194,895.97 L668.3006,895.97 L668.3006,883.5794 L676.0194,883.5794 L676.0194,885.7356 L670.7538,885.7356 L670.7538,888.4075 L675.5194,888.4075 L675.5194,890.5637 L670.7538,890.5637 L670.7538,893.8137 L676.0194,893.8137 L676.0194,895.97 Z " fill="#000000"/><text fill="#000000" font-family="sans-serif" font-size="14" lengthAdjust="spacing" textLength="158.2656" x="685.91" y="894.8167">MessagesAttachments</text><line style="stroke:#181818;stroke-width:0.5;" x1="657.91" x2="846.1756" y1="905.97" y2="905.97"/><text fill="#000000" font-family="sans-serif" font-size="14" lengthAdjust="spacing" textLength="152.8789" x="662.91" y="922.9651">MessageId: uuid &#171;FK&#187;</text><text fill="#000000" font-family="sans-serif" font-size="14" lengthAdjust="spacing" textLength="173.8379" x="662.91" y="939.262">AttachmentId: uuid &#171;FK&#187;</text><line style="stroke:#181818;stroke-width:0.5;" x1="657.91" x2="846.1756" y1="946.5637" y2="946.5637"/></g><!--class LastReadMessage--><g class="entity" data-entity="LastReadMessage" data-source-line="75" data-uid="ent0011" id="entity_LastReadMessage"><rect fill="#F1F1F1" height="129.4844" rx="2.5" ry="2.5" style="stroke:#181818;stroke-width:0.5;" width="221.46" x="445.31" y="173.04"/><ellipse cx="488.7193" cy="189.04" fill="#ADD1B2" rx="11" ry="11" style="stroke:#181818;stroke-width:1;"/><path d="M492.8287,195.04 L485.11,195.04 L485.11,182.6494 L492.8287,182.6494 L492.8287,184.8056 L487.5631,184.8056 L487.5631,187.4775 L492.3287,187.4775 L492.3287,189.6337 L487.5631,189.6337 L487.5631,192.8837 L492.8287,192.8837 L492.8287,195.04 Z " fill="#000000"/><text fill="#000000" font-family="sans-serif" font-size="14" lengthAdjust="spacing" textLength="126.3281" x="509.0325" y="193.8867">LastReadMessage</text><line style="stroke:#181818;stroke-width:0.5;" x1="446.31" x2="665.77" y1="205.04" y2="205.04"/><g data-visibility-modifier="IE_MANDATORY"><ellipse cx="456.31" cy="218.6884" fill="#000000" rx="3" ry="3" style="stroke:#000000;stroke-width:1;"/></g><text fill="#000000" font-family="sans-serif" font-size="14" lengthAdjust="spacing" textLength="13.0156" x="465.31" y="222.0351">Id</text><line style="stroke:#181818;stroke-width:1;" x1="446.31" x2="665.77" y1="229.3369" y2="229.3369"/><g data-visibility-modifier="IE_MANDATORY"><ellipse cx="456.31" cy="242.9853" fill="#000000" rx="3" ry="3" style="stroke:#000000;stroke-width:1;"/></g><text fill="#000000" font-family="sans-serif" font-size="14" lengthAdjust="spacing" textLength="123.4297" x="465.31" y="246.332">UserId: uuid &#171;FK&#187;</text><g data-visibility-modifier="IE_MANDATORY"><ellipse cx="456.31" cy="259.2822" fill="#000000" rx="3" ry="3" style="stroke:#000000;stroke-width:1;"/></g><text fill="#000000" font-family="sans-serif" font-size="14" lengthAdjust="spacing" textLength="184.0781" x="465.31" y="262.6289">ConversationId: uuid &#171;FK&#187;</text><g data-visibility-modifier="IE_MANDATORY"><ellipse cx="456.31" cy="275.5791" fill="#000000" rx="3" ry="3" style="stroke:#000000;stroke-width:1;"/></g><text fill="#000000" font-family="sans-serif" font-size="14" lengthAdjust="spacing" textLength="152.8789" x="465.31" y="278.9257">MessageId: uuid &#171;FK&#187;</text><g data-visibility-modifier="IE_MANDATORY"><ellipse cx="456.31" cy="291.8759" fill="#000000" rx="3" ry="3" style="stroke:#000000;stroke-width:1;"/></g><text fill="#000000" font-family="sans-serif" font-size="14" lengthAdjust="spacing" textLength="195.46" x="465.31" y="295.2226">LastReadTimeUtc: datetime</text></g><!--class MessageReaction--><g class="entity" data-entity="MessageReaction" data-source-line="84" data-uid="ent0012" id="entity_MessageReaction"><rect fill="#F1F1F1" height="129.4844" rx="2.5" ry="2.5" style="stroke:#181818;stroke-width:0.5;" width="219.5732" x="609.25" y="387.67"/><ellipse cx="653.4007" cy="403.67" fill="#ADD1B2" rx="11" ry="11" style="stroke:#181818;stroke-width:1;"/><path d="M657.5101,409.67 L649.7913,409.67 L649.7913,397.2794 L657.5101,397.2794 L657.5101,399.4356 L652.2444,399.4356 L652.2444,402.1075 L657.0101,402.1075 L657.0101,404.2637 L652.2444,404.2637 L652.2444,407.5137 L657.5101,407.5137 L657.5101,409.67 Z " fill="#000000"/><text fill="#000000" font-family="sans-serif" font-size="14" lengthAdjust="spacing" textLength="122.7939" x="673.8786" y="408.5167">MessageReaction</text><line style="stroke:#181818;stroke-width:0.5;" x1="610.25" x2="827.8232" y1="419.67" y2="419.67"/><g data-visibility-modifier="IE_MANDATORY"><ellipse cx="620.25" cy="433.3184" fill="#000000" rx="3" ry="3" style="stroke:#000000;stroke-width:1;"/></g><text fill="#000000" font-family="sans-serif" font-size="14" lengthAdjust="spacing" textLength="52.7051" x="629.25" y="436.6651">Id: uuid</text><line style="stroke:#181818;stroke-width:1;" x1="610.25" x2="827.8232" y1="443.9669" y2="443.9669"/><g data-visibility-modifier="IE_MANDATORY"><ellipse cx="620.25" cy="457.6153" fill="#000000" rx="3" ry="3" style="stroke:#000000;stroke-width:1;"/></g><text fill="#000000" font-family="sans-serif" font-size="14" lengthAdjust="spacing" textLength="123.4297" x="629.25" y="460.962">UserId: uuid &#171;FK&#187;</text><g data-visibility-modifier="IE_MANDATORY"><ellipse cx="620.25" cy="473.9122" fill="#000000" rx="3" ry="3" style="stroke:#000000;stroke-width:1;"/></g><text fill="#000000" font-family="sans-serif" font-size="14" lengthAdjust="spacing" textLength="152.8789" x="629.25" y="477.2589">MessageId: uuid &#171;FK&#187;</text><g data-visibility-modifier="IE_MANDATORY"><ellipse cx="620.25" cy="490.2091" fill="#000000" rx="3" ry="3" style="stroke:#000000;stroke-width:1;"/></g><text fill="#000000" font-family="sans-serif" font-size="14" lengthAdjust="spacing" textLength="193.5732" x="629.25" y="493.5557">EmotionType: EmotionType</text><g data-visibility-modifier="IE_MANDATORY"><ellipse cx="620.25" cy="506.5059" fill="#000000" rx="3" ry="3" style="stroke:#000000;stroke-width:1;"/></g><text fill="#000000" font-family="sans-serif" font-size="14" lengthAdjust="spacing" textLength="168.4717" x="629.25" y="509.8526">ReactedAtUtc: datetime</text></g><!--class Attachment--><g class="entity" data-entity="Attachment" data-source-line="93" data-uid="ent0013" id="entity_Attachment"><rect fill="#F1F1F1" height="96.8906" rx="2.5" ry="2.5" style="stroke:#181818;stroke-width:0.5;" width="182.7139" x="789.68" y="626.75"/><ellipse cx="835.6278" cy="642.75" fill="#ADD1B2" rx="11" ry="11" style="stroke:#181818;stroke-width:1;"/><path d="M839.7371,648.75 L832.0184,648.75 L832.0184,636.3594 L839.7371,636.3594 L839.7371,638.5156 L834.4715,638.5156 L834.4715,641.1875 L839.2371,641.1875 L839.2371,643.3438 L834.4715,643.3438 L834.4715,646.5938 L839.7371,646.5938 L839.7371,648.75 Z " fill="#000000"/><text fill="#000000" font-family="sans-serif" font-size="14" lengthAdjust="spacing" textLength="82.3184" x="856.1278" y="647.5967">Attachment</text><line style="stroke:#181818;stroke-width:0.5;" x1="790.68" x2="971.3939" y1="658.75" y2="658.75"/><g data-visibility-modifier="IE_MANDATORY"><ellipse cx="800.68" cy="672.3984" fill="#000000" rx="3" ry="3" style="stroke:#000000;stroke-width:1;"/></g><text fill="#000000" font-family="sans-serif" font-size="14" lengthAdjust="spacing" textLength="13.0156" x="809.68" y="675.7451">Id</text><line style="stroke:#181818;stroke-width:1;" x1="790.68" x2="971.3939" y1="683.0469" y2="683.0469"/><g data-visibility-modifier="IE_MANDATORY"><ellipse cx="800.68" cy="696.6953" fill="#000000" rx="3" ry="3" style="stroke:#000000;stroke-width:1;"/></g><text fill="#000000" font-family="sans-serif" font-size="14" lengthAdjust="spacing" textLength="126.7314" x="809.68" y="700.042">FileType: FileType</text><g data-visibility-modifier="IE_MANDATORY"><ellipse cx="800.68" cy="712.9922" fill="#000000" rx="3" ry="3" style="stroke:#000000;stroke-width:1;"/></g><text fill="#000000" font-family="sans-serif" font-size="14" lengthAdjust="spacing" textLength="156.7139" x="809.68" y="716.3389">FileId: uuid &#171;FK to S3&#187;</text></g><!--link ConversationType to Conversation--><g class="link" data-entity-1="ConversationType" data-entity-2="Conversation" data-source-line="100" data-uid="lnk14" id="link_ConversationType_Conversation"><path codeLine="100" d="M346.3,286.5 C355.81,316.25 368.18,354.91 378.54,387.32" fill="none" id="ConversationType-Conversation" style="stroke:#181818;stroke-width:1;stroke-dasharray:7,7;"/></g><!--link ParticipantRole to Participant--><g class="link" data-entity-1="ParticipantRole" data-entity-2="Participant" data-source-line="101" data-uid="lnk15" id="link_ParticipantRole_Participant"><path codeLine="101" d="M112.04,104.3 C112.04,125.27 112.04,150.19 112.04,172.73" fill="none" id="ParticipantRole-Participant" style="stroke:#181818;stroke-width:1;stroke-dasharray:7,7;"/></g><!--link EmotionType to MessageReaction--><g class="link" data-entity-1="EmotionType" data-entity-2="MessageReaction" data-source-line="102" data-uid="lnk16" id="link_EmotionType_MessageReaction"><path codeLine="102" d="M748.74,311.06 C743.49,335.86 737.66,363.43 732.56,387.52" fill="none" id="EmotionType-MessageReaction" style="stroke:#181818;stroke-width:1;stroke-dasharray:7,7;"/></g><!--link FileType to Attachment--><g class="link" data-entity-1="FileType" data-entity-2="Attachment" data-source-line="103" data-uid="lnk17" id="link_FileType_Attachment"><path codeLine="103" d="M901.94,509.41 C897.35,545.56 891.45,592.09 887.09,626.48" fill="none" id="FileType-Attachment" style="stroke:#181818;stroke-width:1;stroke-dasharray:7,7;"/></g><!--link Participant to User--><g class="link" data-entity-1="Participant" data-entity-2="User" data-source-line="105" data-uid="lnk18" id="link_Participant_User"><path codeLine="105" d="M113.8472,320.8505 C118.8272,427.8005 142.89,625.81 259.04,756.23 C297.07,798.93 342.3252,831.0297 388.1252,857.8297" fill="none" id="Participant-User" style="stroke:#181818;stroke-width:1;"/><line style="stroke:#181818;stroke-width:1;" x1="113.3821" x2="107.0165" y1="310.8613" y2="303.1491"/><line style="stroke:#181818;stroke-width:1;" x1="113.3821" x2="119.0035" y1="310.8613" y2="302.5909"/><line style="stroke:#181818;stroke-width:1;" x1="113.3821" x2="113.01" y1="310.8613" y2="302.87"/><ellipse cx="113.6612" cy="316.8548" fill="none" rx="4" ry="4" style="stroke:#181818;stroke-width:1;"/><line style="stroke:#181818;stroke-width:1;" x1="393.5978" x2="389.5575" y1="856.3975" y2="863.3022"/><line style="stroke:#181818;stroke-width:1;" x1="391.0085" x2="386.9682" y1="854.8823" y2="861.7871"/><line style="stroke:#181818;stroke-width:1;" x1="388.1252" x2="395.03" y1="857.8297" y2="861.87"/><polygon fill="#000000" points="163.3144,560.1692,161.8173,550.7772,156.5827,553.4509,163.3144,560.1692" style="stroke:#000000;stroke-width:1;"/><text fill="#000000" font-family="sans-serif" font-size="13" lengthAdjust="spacing" textLength="68.2627" x="170.04" y="560.2169">belongs to</text></g><!--link Participant to Conversation--><g class="link" data-entity-1="Participant" data-entity-2="Conversation" data-source-line="106" data-uid="lnk19" id="link_Participant_Conversation"><path codeLine="106" d="M213.0022,313.5766 C249.1422,340.3566 270.1621,355.9274 306.2921,382.6974" fill="none" id="Participant-Conversation" style="stroke:#181818;stroke-width:1;"/><line style="stroke:#181818;stroke-width:1;" x1="204.9676" x2="194.9678" y1="307.6229" y2="307.6807"/><line style="stroke:#181818;stroke-width:1;" x1="204.9676" x2="202.1122" y1="307.6229" y2="298.0393"/><line style="stroke:#181818;stroke-width:1;" x1="204.9676" x2="198.54" y1="307.6229" y2="302.86"/><ellipse cx="209.7884" cy="311.1951" fill="none" rx="4" ry="4" style="stroke:#181818;stroke-width:1;"/><line style="stroke:#181818;stroke-width:1;" x1="311.8874" x2="307.1248" y1="381.8648" y2="388.2926"/><line style="stroke:#181818;stroke-width:1;" x1="309.4769" x2="304.7143" y1="380.0788" y2="386.5066"/><line style="stroke:#181818;stroke-width:1;" x1="306.2921" x2="312.72" y1="382.6974" y2="387.46"/><polygon fill="#000000" points="274.0574,352.213,268.5394,344.4669,265.0402,349.1897,274.0574,352.213" style="stroke:#000000;stroke-width:1;"/><text fill="#000000" font-family="sans-serif" font-size="13" lengthAdjust="spacing" textLength="30.1895" x="279.04" y="353.7369">joins</text></g><!--link Message to User--><g class="link" data-entity-1="Message" data-entity-2="User" data-source-line="108" data-uid="lnk20" id="link_Message_User"><path codeLine="108" d="M509.929,774.3832 C507.639,799.0932 507.5082,800.4141 505.2182,825.1241" fill="none" id="Message-User" style="stroke:#181818;stroke-width:1;"/><line style="stroke:#181818;stroke-width:1;" x1="510.8518" x2="505.6156" y1="764.4259" y2="755.9063"/><line style="stroke:#181818;stroke-width:1;" x1="510.8518" x2="517.5644" y1="764.4259" y2="757.0137"/><line style="stroke:#181818;stroke-width:1;" x1="510.8518" x2="511.59" y1="764.4259" y2="756.46"/><ellipse cx="510.2981" cy="770.4003" fill="none" rx="4" ry="4" style="stroke:#181818;stroke-width:1;"/><line style="stroke:#181818;stroke-width:1;" x1="508.8321" x2="500.8662" y1="829.4762" y2="828.7379"/><line style="stroke:#181818;stroke-width:1;" x1="509.1089" x2="501.143" y1="826.489" y2="825.7507"/><line style="stroke:#181818;stroke-width:1;" x1="505.2182" x2="504.48" y1="825.1241" y2="833.09"/><polygon fill="#000000" points="513.5778,799.775,517.3403,791.0403,511.4876,790.497,513.5778,799.775" style="stroke:#000000;stroke-width:1;"/><text fill="#000000" font-family="sans-serif" font-size="13" lengthAdjust="spacing" textLength="48.1851" x="523.04" y="799.2969">sent by</text></g><!--link Message to Conversation--><g class="link" data-entity-1="Message" data-entity-2="Conversation" data-source-line="109" data-uid="lnk21" id="link_Message_Conversation"><path codeLine="109" d="M483.3889,577.2105 C476.7589,561.4005 476.19,561.79 468.04,547.15 C462.53,537.27 460.657,533.8159 454.027,524.1559" fill="none" id="Message-Conversation" style="stroke:#181818;stroke-width:1;"/><line style="stroke:#181818;stroke-width:1;" x1="487.2562" x2="495.8832" y1="586.4324" y2="591.4896"/><line style="stroke:#181818;stroke-width:1;" x1="487.2562" x2="484.8168" y1="586.4324" y2="596.1304"/><line style="stroke:#181818;stroke-width:1;" x1="487.2562" x2="490.35" y1="586.4324" y2="593.81"/><ellipse cx="484.9358" cy="580.8993" fill="none" rx="4" ry="4" style="stroke:#181818;stroke-width:1;"/><line style="stroke:#181818;stroke-width:1;" x1="448.4655" x2="455.0615" y1="523.1215" y2="518.5945"/><line style="stroke:#181818;stroke-width:1;" x1="450.1632" x2="456.7591" y1="525.5949" y2="521.0679"/><line style="stroke:#181818;stroke-width:1;" x1="454.027" x2="449.5" y1="524.1559" y2="517.56"/><polygon fill="#000000" points="479.6189,551.3417,481.4273,560.6787,486.5701,557.8326,479.6189,551.3417" style="stroke:#000000;stroke-width:1;"/><text fill="#000000" font-family="sans-serif" font-size="13" lengthAdjust="spacing" textLength="11.8511" x="491.04" y="560.2169">in</text></g><!--link Conversation to Message--><g class="link" data-entity-1="Conversation" data-entity-2="Message" data-source-line="111" data-uid="lnk22" id="link_Conversation_Message"><path codeLine="111" d="M382.4855,525.4214 C381.4055,541.2514 383.41,549.79 390.04,564.15 C395.96,576.98 392.3466,575.3151 401.8266,586.1651" fill="none" id="Conversation-Message" style="stroke:#181818;stroke-width:1;"/><line style="stroke:#181818;stroke-width:1;" x1="378.767" x2="386.7485" y1="521.1585" y2="521.703"/><line style="stroke:#181818;stroke-width:1;" x1="378.5628" x2="386.5443" y1="524.1515" y2="524.696"/><line style="stroke:#181818;stroke-width:1;" x1="382.4855" x2="383.03" y1="525.4214" y2="517.44"/><line style="stroke:#181818;stroke-width:1;" x1="408.4063" x2="418.1883" y1="593.6956" y2="595.7722"/><line style="stroke:#181818;stroke-width:1;" x1="408.4063" x2="409.1517" y1="593.6956" y2="603.6678"/><line style="stroke:#181818;stroke-width:1;" x1="408.4063" x2="413.67" y1="593.6956" y2="599.72"/><ellipse cx="404.4585" cy="589.1773" fill="none" rx="4" ry="4" style="stroke:#181818;stroke-width:1;"/><polygon fill="#000000" points="396.557,560.4807,396.6131,550.9703,391.0123,552.7537,396.557,560.4807" style="stroke:#000000;stroke-width:1;"/><text fill="#000000" font-family="sans-serif" font-size="13" lengthAdjust="spacing" textLength="55.0278" x="404.04" y="560.2169">contains</text></g><!--link LastReadMessage to User--><g class="link" data-entity-1="LastReadMessage" data-entity-2="User" data-source-line="113" data-uid="lnk23" id="link_LastReadMessage_User"><path codeLine="113" d="M429.0347,310.2035 C423.3647,313.2935 433.54,307.72 428.04,310.67 C361.63,346.23 316.39,323.43 277.04,387.67 C186.61,535.29 317.2867,720.7371 412.4067,827.0871" fill="none" id="LastReadMessage-User" style="stroke:#181818;stroke-width:1;"/><line style="stroke:#181818;stroke-width:1;" x1="437.8154" x2="441.9688" y1="305.4182" y2="296.3216"/><line style="stroke:#181818;stroke-width:1;" x1="437.8154" x2="447.7112" y1="305.4182" y2="306.8584"/><line style="stroke:#181818;stroke-width:1;" x1="437.8154" x2="444.84" y1="305.4182" y2="301.59"/><ellipse cx="432.547" cy="308.2894" fill="none" rx="4" ry="4" style="stroke:#181818;stroke-width:1;"/><line style="stroke:#181818;stroke-width:1;" x1="418.0548" x2="412.0919" y1="827.4019" y2="832.7352"/><line style="stroke:#181818;stroke-width:1;" x1="416.0549" x2="410.0919" y1="825.1658" y2="830.4991"/><line style="stroke:#181818;stroke-width:1;" x1="412.4067" x2="417.74" y1="827.0871" y2="833.05"/></g><!--link LastReadMessage to Conversation--><g class="link" data-entity-1="LastReadMessage" data-entity-2="Conversation" data-source-line="114" data-uid="lnk24" id="link_LastReadMessage_Conversation"><path codeLine="114" d="M498.0293,317.3413 C478.2593,344.1213 470.771,354.2535 451.011,381.0235" fill="none" id="LastReadMessage-Conversation" style="stroke:#181818;stroke-width:1;"/><line style="stroke:#181818;stroke-width:1;" x1="503.9686" x2="503.8929" y1="309.2962" y2="299.2964"/><line style="stroke:#181818;stroke-width:1;" x1="503.9686" x2="513.5471" y1="309.2962" y2="306.4236"/><line style="stroke:#181818;stroke-width:1;" x1="503.9686" x2="508.72" y1="309.2962" y2="302.86"/><ellipse cx="500.405" cy="314.1233" fill="none" rx="4" ry="4" style="stroke:#181818;stroke-width:1;"/><line style="stroke:#181818;stroke-width:1;" x1="451.8537" x2="445.4173" y1="386.6173" y2="381.8663"/><line style="stroke:#181818;stroke-width:1;" x1="453.6354" x2="447.1989" y1="384.2036" y2="379.4526"/><line style="stroke:#181818;stroke-width:1;" x1="451.011" x2="446.26" y1="381.0235" y2="387.46"/></g><!--link LastReadMessage to Message--><g class="link" data-entity-1="LastReadMessage" data-entity-2="Message" data-source-line="115" data-uid="lnk25" id="link_LastReadMessage_Message"><path codeLine="115" d="M549.0967,320.4954 C542.5367,397.7354 533.6668,501.9987 526.5368,585.9787" fill="none" id="LastReadMessage-Message" style="stroke:#181818;stroke-width:1;"/><line style="stroke:#181818;stroke-width:1;" x1="549.943" x2="544.6415" y1="310.5313" y2="302.0522"/><line style="stroke:#181818;stroke-width:1;" x1="549.943" x2="556.5985" y1="310.5313" y2="303.0678"/><line style="stroke:#181818;stroke-width:1;" x1="549.943" x2="550.62" y1="310.5313" y2="302.56"/><ellipse cx="549.4352" cy="316.5098" fill="none" rx="4" ry="4" style="stroke:#181818;stroke-width:1;"/><line style="stroke:#181818;stroke-width:1;" x1="530.184" x2="522.2127" y1="590.3027" y2="589.626"/><line style="stroke:#181818;stroke-width:1;" x1="530.4378" x2="522.4665" y1="587.3135" y2="586.6367"/><line style="stroke:#181818;stroke-width:1;" x1="526.5368" x2="525.86" y1="585.9787" y2="593.95"/></g><!--link MessageReaction to User--><g class="link" data-entity-1="MessageReaction" data-entity-2="User" data-source-line="117" data-uid="lnk26" id="link_MessageReaction_User"><path codeLine="117" d="M709.5395,535.4627 C700.5295,599.1727 683.31,680.19 642.04,756.23 C627.17,783.63 611.8624,804.0588 590.7224,827.0688" fill="none" id="MessageReaction-User" style="stroke:#181818;stroke-width:1;"/><line style="stroke:#181818;stroke-width:1;" x1="710.9398" x2="706.1191" y1="525.5612" y2="516.7998"/><line style="stroke:#181818;stroke-width:1;" x1="710.9398" x2="718.0009" y1="525.5612" y2="518.4802"/><line style="stroke:#181818;stroke-width:1;" x1="710.9398" x2="712.06" y1="525.5612" y2="517.64"/><ellipse cx="710.0996" cy="531.5021" fill="none" rx="4" ry="4" style="stroke:#181818;stroke-width:1;"/><line style="stroke:#181818;stroke-width:1;" x1="590.9618" x2="585.0706" y1="832.7206" y2="827.3082"/><line style="stroke:#181818;stroke-width:1;" x1="592.9914" x2="587.1003" y1="830.5114" y2="825.099"/><line style="stroke:#181818;stroke-width:1;" x1="590.7224" x2="585.31" y1="827.0688" y2="832.96"/></g><!--link MessageReaction to Message--><g class="link" data-entity-1="MessageReaction" data-entity-2="Message" data-source-line="118" data-uid="lnk27" id="link_MessageReaction_Message"><path codeLine="118" d="M648.8351,530.9099 C627.2651,554.7199 619.9922,562.7621 597.2722,587.8321" fill="none" id="MessageReaction-Message" style="stroke:#181818;stroke-width:1;"/><line style="stroke:#181818;stroke-width:1;" x1="655.5489" x2="656.4734" y1="523.4989" y2="513.5417"/><line style="stroke:#181818;stroke-width:1;" x1="655.5489" x2="665.3666" y1="523.4989" y2="521.5983"/><line style="stroke:#181818;stroke-width:1;" x1="655.5489" x2="660.92" y1="523.4989" y2="517.57"/><ellipse cx="651.5206" cy="527.9455" fill="none" rx="4" ry="4" style="stroke:#181818;stroke-width:1;"/><line style="stroke:#181818;stroke-width:1;" x1="597.55" x2="591.6222" y1="593.4822" y2="588.11"/><line style="stroke:#181818;stroke-width:1;" x1="599.5646" x2="593.6367" y1="591.2592" y2="585.887"/><line style="stroke:#181818;stroke-width:1;" x1="597.2722" x2="591.9" y1="587.8321" y2="593.76"/></g><!--link Attachment to MessagesAttachments--><g class="link" data-entity-1="Attachment" data-entity-2="MessagesAttachments" data-source-line="120" data-uid="lnk28" id="link_Attachment_MessagesAttachments"><path codeLine="120" d="M846.4881,739.6916 C822.5781,783.6416 799.9231,825.2626 777.4931,866.4926" fill="none" id="Attachment-MessagesAttachments" style="stroke:#181818;stroke-width:1;"/><line style="stroke:#181818;stroke-width:1;" x1="851.2669" x2="849.8195" y1="730.9074" y2="721.0127"/><line style="stroke:#181818;stroke-width:1;" x1="851.2669" x2="860.3605" y1="730.9074" y2="726.7473"/><line style="stroke:#181818;stroke-width:1;" x1="851.2669" x2="855.09" y1="730.9074" y2="723.88"/><ellipse cx="848.3996" cy="736.1779" fill="none" rx="4" ry="4" style="stroke:#181818;stroke-width:1;"/><line style="stroke:#181818;stroke-width:1;" x1="779.0952" x2="772.0678" y1="871.9178" y2="868.0948"/><line style="stroke:#181818;stroke-width:1;" x1="780.5289" x2="773.5015" y1="869.2826" y2="865.4595"/><line style="stroke:#181818;stroke-width:1;" x1="777.4931" x2="773.67" y1="866.4926" y2="873.52"/></g><!--link Message to MessagesAttachments--><g class="link" data-entity-1="Message" data-entity-2="MessagesAttachments" data-source-line="121" data-uid="lnk29" id="link_Message_MessagesAttachments"><path codeLine="121" d="M610.5386,769.2963 C649.3586,808.7863 676.1826,836.0841 707.5126,867.9641" fill="none" id="Message-MessagesAttachments" style="stroke:#181818;stroke-width:1;"/><line style="stroke:#181818;stroke-width:1;" x1="603.5283" x2="593.6412" y1="762.165" y2="760.6662"/><line style="stroke:#181818;stroke-width:1;" x1="603.5283" x2="602.1988" y1="762.165" y2="752.2538"/><line style="stroke:#181818;stroke-width:1;" x1="603.5283" x2="597.92" y1="762.165" y2="756.46"/><ellipse cx="607.7344" cy="766.4438" fill="none" rx="4" ry="4" style="stroke:#181818;stroke-width:1;"/><line style="stroke:#181818;stroke-width:1;" x1="713.1692" x2="707.4634" y1="868.0134" y2="873.6208"/><line style="stroke:#181818;stroke-width:1;" x1="711.0664" x2="705.3606" y1="865.8737" y2="871.4811"/><line style="stroke:#181818;stroke-width:1;" x1="707.5126" x2="713.12" y1="867.9641" y2="873.67"/></g><!--SRC=[rLTRRnj567tVNp5lbIovBGHULYMIILfkhLhLAUyRxoWUQky4pxWG9PKAGQqGe4g8DyH5Y1-mE9WuJkp-XTb_n9dPzLxjtOqJ8M4_U6TdVCvtc_FDK6_O9rlSUqO7mf6CUpi7-vGSMWIVRJQW7Vc02k7iKK7U8xVDwmy6VBYFqLjcjDLrF8_sC7xRUcvPLECzSWQITTY-uyd7lBU0U_Y5HmSnIiljCoz6UK3xksOo0RdRvpbxsdq6i0N0XnGiCS1zzfIQluU6YruutWYNEfuhkevvyqveorCylXjptGDmYkXHbqiU4ttANCfZejRGPJncUYYxnkoD44eoUK2U2BmAWHha8zScmo5pIUNdrWqi9kgDcglpu7jrYj-HyeElrHZZr-J6BOFOR4R0ciLp-jGcadufAu3LBsgYfce6h3DrKKdI8FST8LiToPx1eIUoOnFNaLIoFbsA_cFm0W0N0D38mLVg7CE_GpgYV3K5mGH4CpsfdsjOi3MWe7HRifo-O85vE54JJOHdFtW9wecn0by_E5OpaFaBecqgEWEshokjCfAQw5TO3cp0pO0xhdJaVJQGtMrON-b6YF-JWV2r6tFr3u8uraHHPCiZrgPICczFsEGpmRsgYlWPgAyGY- -q4pFWXV6Qeq2c5GbAIZqj76kNlCuIQ4uCqLoFSiM-msIlHfsdYjr7RYvCw8pnKQvM4rsr2bOZDuZM5RieiIkG_m3Ucn8ylJ4ZHOxZVEVElKysDyiK9RCbWKhmOexlNy6tIO6DYhJZRBfJkhv-jezHTgRQJEocOQsN5q2eTfN-Na966vc4b2DNLMc3w2Pd5xhUgXJ_7ffskKWqoCUSURNqC2_98xErZn6Iyx9aPrCTrTZwQIuMM3wdrvc1ww-FDltS9ZtkxTMIdD-qGS5hxB2f1eIgdX6ZFb0XXFOosyrq3UuUr1IyI3N6QB98SqdSaKDnrsNegJRPvRnNXVadoiLN9mWLBDFjz1XLf8jr5De_WUcXnXeYxV2eG8zESlMEhZ5F4Le_ScYvZuNQ5IqfdKwtZxV2EeoEcVMKiquT9-ZLS57HZH1ItTMNMgsL_J5rtEBE8pK_4Sif0XMsfyd_J4VhfwSgEOqud3keiIkTO7MxD7jW7hmoxg-kEF1rhdeK6flpSdHedUcUaDzIu_yWgzUPYTH5pixSwieEG3z0M-PH698-g-ExxfqW2MicTSasNd_76OKixkrCZXPNJ3kvR9OAked2Dx3wJEjm4WFzxqnQ2AwgxOqboOaoas10dziRaVU5y-ZDcvcjRELFCvXFlRBIUSHKRWDOiO-OIo9ifL79Szvi7Xs5rsMq9AgRhT3UR2vRbhbgu8g3qv30IciXbraqeVEvUu05kVaS3FCqHkRbqL6poG_Z0v1DEjoJJiIM5-aKwwgvJ5HNh8c6iJUnaAJnLyp5_qrLSdOgqmYNCwUN_0i0]--></g></svg>