<svg xmlns="http://www.w3.org/2000/svg" xmlns:xlink="http://www.w3.org/1999/xlink" contentStyleType="text/css" data-diagram-type="CLASS" height="1002px" preserveAspectRatio="none" style="width:993px;height:1002px;background:#FFFFFF;" version="1.1" viewBox="0 0 993 1002" width="993px" zoomAndPan="magnify"><defs/><g><!--class ConversationType--><g class="entity" data-entity="ConversationType" data-source-line="1" data-uid="ent0002" id="entity_ConversationType"><rect fill="#F1F1F1" height="96.8906" rx="2.5" ry="2.5" style="stroke:#181818;stroke-width:0.5;" width="158.8955" x="379" y="189.5"/><ellipse cx="394" cy="205.5" fill="#EB937F" rx="11" ry="11" style="stroke:#181818;stroke-width:1;"/><path d="M398.1094,211.5 L390.3906,211.5 L390.3906,199.1094 L398.1094,199.1094 L398.1094,201.2656 L392.8438,201.2656 L392.8438,203.9375 L397.6094,203.9375 L397.6094,206.0938 L392.8438,206.0938 L392.8438,209.3438 L398.1094,209.3438 L398.1094,211.5 Z " fill="#000000"/><text fill="#000000" font-family="sans-serif" font-size="14" lengthAdjust="spacing" textLength="126.8955" x="408" y="210.3467">ConversationType</text><line style="stroke:#181818;stroke-width:0.5;" x1="380" x2="536.8955" y1="221.5" y2="221.5"/><text fill="#000000" font-family="sans-serif" font-size="14" lengthAdjust="spacing" textLength="140.417" x="385" y="238.4951">DirectMessages = 0</text><text fill="#000000" font-family="sans-serif" font-size="14" lengthAdjust="spacing" textLength="72.4678" x="385" y="254.792">Group = 1</text><text fill="#000000" font-family="sans-serif" font-size="14" lengthAdjust="spacing" textLength="87.0146" x="385" y="271.0889">Channel = 2</text><line style="stroke:#181818;stroke-width:0.5;" x1="380" x2="536.8955" y1="278.3906" y2="278.3906"/></g><!--class ParticipantRole--><g class="entity" data-entity="ParticipantRole" data-source-line="7" data-uid="ent0003" id="entity_ParticipantRole"><rect fill="#F1F1F1" height="96.8906" rx="2.5" ry="2.5" style="stroke:#181818;stroke-width:0.5;" width="138.3672" x="169.5" y="7"/><ellipse cx="184.5" cy="23" fill="#EB937F" rx="11" ry="11" style="stroke:#181818;stroke-width:1;"/><path d="M188.6094,29 L180.8906,29 L180.8906,16.6094 L188.6094,16.6094 L188.6094,18.7656 L183.3438,18.7656 L183.3438,21.4375 L188.1094,21.4375 L188.1094,23.5938 L183.3438,23.5938 L183.3438,26.8438 L188.6094,26.8438 L188.6094,29 Z " fill="#000000"/><text fill="#000000" font-family="sans-serif" font-size="14" lengthAdjust="spacing" textLength="106.3672" x="198.5" y="27.8467">ParticipantRole</text><line style="stroke:#181818;stroke-width:0.5;" x1="170.5" x2="306.8672" y1="39" y2="39"/><text fill="#000000" font-family="sans-serif" font-size="14" lengthAdjust="spacing" textLength="75.25" x="175.5" y="55.9951">Owner = 0</text><text fill="#000000" font-family="sans-serif" font-size="14" lengthAdjust="spacing" textLength="74.4023" x="175.5" y="72.292">Admin = 1</text><text fill="#000000" font-family="sans-serif" font-size="14" lengthAdjust="spacing" textLength="87.124" x="175.5" y="88.5889">Member = 2</text><line style="stroke:#181818;stroke-width:0.5;" x1="170.5" x2="306.8672" y1="95.8906" y2="95.8906"/></g><!--class EmotionType--><g class="entity" data-entity="EmotionType" data-source-line="13" data-uid="ent0004" id="entity_EmotionType"><rect fill="#F1F1F1" height="145.7813" rx="2.5" ry="2.5" style="stroke:#181818;stroke-width:0.5;" width="124.2031" x="829.5" y="165"/><ellipse cx="844.5" cy="181" fill="#EB937F" rx="11" ry="11" style="stroke:#181818;stroke-width:1;"/><path d="M848.6094,187 L840.8906,187 L840.8906,174.6094 L848.6094,174.6094 L848.6094,176.7656 L843.3438,176.7656 L843.3438,179.4375 L848.1094,179.4375 L848.1094,181.5938 L843.3438,181.5938 L843.3438,184.8438 L848.6094,184.8438 L848.6094,187 Z " fill="#000000"/><text fill="#000000" font-family="sans-serif" font-size="14" lengthAdjust="spacing" textLength="92.2031" x="858.5" y="185.8467">EmotionType</text><line style="stroke:#181818;stroke-width:0.5;" x1="830.5" x2="952.7031" y1="197" y2="197"/><text fill="#000000" font-family="sans-serif" font-size="14" lengthAdjust="spacing" textLength="68.4551" x="835.5" y="213.9951">Smile = 0</text><text fill="#000000" font-family="sans-serif" font-size="14" lengthAdjust="spacing" textLength="68.5029" x="835.5" y="230.292">Heart = 1</text><text fill="#000000" font-family="sans-serif" font-size="14" lengthAdjust="spacing" textLength="57.9482" x="835.5" y="246.5889">Like = 2</text><text fill="#000000" font-family="sans-serif" font-size="14" lengthAdjust="spacing" textLength="76.002" x="835.5" y="262.8857">Dislike = 3</text><text fill="#000000" font-family="sans-serif" font-size="14" lengthAdjust="spacing" textLength="107.8711" x="835.5" y="279.1826">Handshake = 4</text><text fill="#000000" font-family="sans-serif" font-size="14" lengthAdjust="spacing" textLength="48.665" x="835.5" y="295.4795">Ok = 5</text><line style="stroke:#181818;stroke-width:0.5;" x1="830.5" x2="952.7031" y1="302.7813" y2="302.7813"/></g><!--class FileType--><g class="entity" data-entity="FileType" data-source-line="22" data-uid="ent0005" id="entity_FileType"><rect fill="#F1F1F1" height="113.1875" rx="2.5" ry="2.5" style="stroke:#181818;stroke-width:0.5;" width="90.7822" x="7" y="181.5"/><ellipse cx="22" cy="197.5" fill="#EB937F" rx="11" ry="11" style="stroke:#181818;stroke-width:1;"/><path d="M26.1094,203.5 L18.3906,203.5 L18.3906,191.1094 L26.1094,191.1094 L26.1094,193.2656 L20.8438,193.2656 L20.8438,195.9375 L25.6094,195.9375 L25.6094,198.0938 L20.8438,198.0938 L20.8438,201.3438 L26.1094,201.3438 L26.1094,203.5 Z " fill="#000000"/><text fill="#000000" font-family="sans-serif" font-size="14" lengthAdjust="spacing" textLength="58.7822" x="36" y="202.3467">FileType</text><line style="stroke:#181818;stroke-width:0.5;" x1="8" x2="96.7822" y1="213.5" y2="213.5"/><text fill="#000000" font-family="sans-serif" font-size="14" lengthAdjust="spacing" textLength="69.4736" x="13" y="230.4951">Photo = 0</text><text fill="#000000" font-family="sans-serif" font-size="14" lengthAdjust="spacing" textLength="69.0703" x="13" y="246.792">Video = 1</text><text fill="#000000" font-family="sans-serif" font-size="14" lengthAdjust="spacing" textLength="69.3301" x="13" y="263.0889">Audio = 2</text><text fill="#000000" font-family="sans-serif" font-size="14" lengthAdjust="spacing" textLength="69.2891" x="13" y="279.3857">Other = 3</text><line style="stroke:#181818;stroke-width:0.5;" x1="8" x2="96.7822" y1="286.6875" y2="286.6875"/></g><!--class User--><g class="entity" data-entity="User" data-source-line="29" data-uid="ent0006" id="entity_User"><rect fill="#F1F1F1" height="162.0781" rx="2.5" ry="2.5" style="stroke:#181818;stroke-width:0.5;" width="203.5635" x="568.5" y="833"/><ellipse cx="650.0767" cy="849" fill="#ADD1B2" rx="11" ry="11" style="stroke:#181818;stroke-width:1;"/><path d="M654.186,855 L646.4673,855 L646.4673,842.6094 L654.186,842.6094 L654.186,844.7656 L648.9204,844.7656 L648.9204,847.4375 L653.686,847.4375 L653.686,849.5938 L648.9204,849.5938 L648.9204,852.8438 L654.186,852.8438 L654.186,855 Z " fill="#000000"/><text fill="#000000" font-family="sans-serif" font-size="14" lengthAdjust="spacing" textLength="31.9102" x="670.5767" y="853.8467">User</text><line style="stroke:#181818;stroke-width:0.5;" x1="569.5" x2="771.0635" y1="865" y2="865"/><ellipse cx="579.5" cy="878.6484" fill="#000000" rx="3" ry="3" style="stroke:#000000;stroke-width:1;"/><text fill="#000000" font-family="sans-serif" font-size="14" lengthAdjust="spacing" textLength="52.7051" x="588.5" y="881.9951">Id: uuid</text><line style="stroke:#181818;stroke-width:1;" x1="569.5" x2="771.0635" y1="889.2969" y2="889.2969"/><ellipse cx="579.5" cy="902.9453" fill="#000000" rx="3" ry="3" style="stroke:#000000;stroke-width:1;"/><text fill="#000000" font-family="sans-serif" font-size="14" lengthAdjust="spacing" textLength="108.6572" x="588.5" y="906.292">Username: text</text><ellipse cx="579.5" cy="919.2422" fill="#000000" rx="3" ry="3" style="stroke:#000000;stroke-width:1;"/><text fill="#000000" font-family="sans-serif" font-size="14" lengthAdjust="spacing" textLength="177.5635" x="588.5" y="922.5889">LastActivityUtc: datetime</text><ellipse cx="579.5" cy="935.5391" fill="#000000" rx="3" ry="3" style="stroke:#000000;stroke-width:1;"/><text fill="#000000" font-family="sans-serif" font-size="14" lengthAdjust="spacing" textLength="166.5781" x="588.5" y="938.8857">CreatedAtUtc: datetime</text><text fill="#000000" font-family="sans-serif" font-size="14" lengthAdjust="spacing" textLength="116.7783" x="588.5" y="955.1826">Description: text</text><text fill="#000000" font-family="sans-serif" font-size="14" lengthAdjust="spacing" textLength="162.873" x="588.5" y="971.4795">BirthDateUtc: datetime</text><ellipse cx="579.5" cy="984.4297" fill="#000000" rx="3" ry="3" style="stroke:#000000;stroke-width:1;"/><text fill="#000000" font-family="sans-serif" font-size="14" lengthAdjust="spacing" textLength="95.2109" x="588.5" y="987.7764">Settings: json</text></g><!--class Conversation--><g class="entity" data-entity="Conversation" data-source-line="40" data-uid="ent0007" id="entity_Conversation"><rect fill="#F1F1F1" height="129.4844" rx="2.5" ry="2.5" style="stroke:#181818;stroke-width:0.5;" width="208.041" x="381.5" y="388"/><ellipse cx="434.9912" cy="404" fill="#ADD1B2" rx="11" ry="11" style="stroke:#181818;stroke-width:1;"/><path d="M439.1006,410 L431.3818,410 L431.3818,397.6094 L439.1006,397.6094 L439.1006,399.7656 L433.835,399.7656 L433.835,402.4375 L438.6006,402.4375 L438.6006,404.5938 L433.835,404.5938 L433.835,407.8438 L439.1006,407.8438 L439.1006,410 Z " fill="#000000"/><text fill="#000000" font-family="sans-serif" font-size="14" lengthAdjust="spacing" textLength="92.5586" x="455.4912" y="408.8467">Conversation</text><line style="stroke:#181818;stroke-width:0.5;" x1="382.5" x2="588.541" y1="420" y2="420"/><ellipse cx="392.5" cy="433.6484" fill="#000000" rx="3" ry="3" style="stroke:#000000;stroke-width:1;"/><text fill="#000000" font-family="sans-serif" font-size="14" lengthAdjust="spacing" textLength="52.7051" x="401.5" y="436.9951">Id: uuid</text><line style="stroke:#181818;stroke-width:1;" x1="382.5" x2="588.541" y1="444.2969" y2="444.2969"/><text fill="#000000" font-family="sans-serif" font-size="14" lengthAdjust="spacing" textLength="67.4775" x="401.5" y="461.292">Title: text</text><text fill="#000000" font-family="sans-serif" font-size="14" lengthAdjust="spacing" textLength="116.7783" x="401.5" y="477.5889">Description: text</text><ellipse cx="392.5" cy="490.5391" fill="#000000" rx="3" ry="3" style="stroke:#000000;stroke-width:1;"/><text fill="#000000" font-family="sans-serif" font-size="14" lengthAdjust="spacing" textLength="170.3994" x="401.5" y="493.8857">Type: ConversationType</text><text fill="#000000" font-family="sans-serif" font-size="14" lengthAdjust="spacing" textLength="182.041" x="401.5" y="510.1826">LastMessageId: uuid &#171;FK&#187;</text></g><!--class Participant--><g class="entity" data-entity="Participant" data-source-line="49" data-uid="ent0008" id="entity_Participant"><rect fill="#F1F1F1" height="129.4844" rx="2.5" ry="2.5" style="stroke:#181818;stroke-width:0.5;" width="210.0781" x="133.5" y="173.5"/><ellipse cx="196.5034" cy="189.5" fill="#ADD1B2" rx="11" ry="11" style="stroke:#181818;stroke-width:1;"/><path d="M200.6128,195.5 L192.894,195.5 L192.894,183.1094 L200.6128,183.1094 L200.6128,185.2656 L195.3472,185.2656 L195.3472,187.9375 L200.1128,187.9375 L200.1128,190.0938 L195.3472,190.0938 L195.3472,193.3438 L200.6128,193.3438 L200.6128,195.5 Z " fill="#000000"/><text fill="#000000" font-family="sans-serif" font-size="14" lengthAdjust="spacing" textLength="75.5713" x="217.0034" y="194.3467">Participant</text><line style="stroke:#181818;stroke-width:0.5;" x1="134.5" x2="342.5781" y1="205.5" y2="205.5"/><ellipse cx="144.5" cy="219.1484" fill="#000000" rx="3" ry="3" style="stroke:#000000;stroke-width:1;"/><text fill="#000000" font-family="sans-serif" font-size="14" lengthAdjust="spacing" textLength="52.7051" x="153.5" y="222.4951">Id: uuid</text><line style="stroke:#181818;stroke-width:1;" x1="134.5" x2="342.5781" y1="229.7969" y2="229.7969"/><ellipse cx="144.5" cy="243.4453" fill="#000000" rx="3" ry="3" style="stroke:#000000;stroke-width:1;"/><text fill="#000000" font-family="sans-serif" font-size="14" lengthAdjust="spacing" textLength="123.4297" x="153.5" y="246.792">UserId: uuid &#171;FK&#187;</text><ellipse cx="144.5" cy="259.7422" fill="#000000" rx="3" ry="3" style="stroke:#000000;stroke-width:1;"/><text fill="#000000" font-family="sans-serif" font-size="14" lengthAdjust="spacing" textLength="184.0781" x="153.5" y="263.0889">ConversationId: uuid &#171;FK&#187;</text><ellipse cx="144.5" cy="276.0391" fill="#000000" rx="3" ry="3" style="stroke:#000000;stroke-width:1;"/><text fill="#000000" font-family="sans-serif" font-size="14" lengthAdjust="spacing" textLength="146.3301" x="153.5" y="279.3857">Role: ParticipantRole</text><ellipse cx="144.5" cy="292.3359" fill="#000000" rx="3" ry="3" style="stroke:#000000;stroke-width:1;"/><text fill="#000000" font-family="sans-serif" font-size="14" lengthAdjust="spacing" textLength="153.8223" x="153.5" y="295.6826">JoinedAtUtc: datetime</text></g><!--class Message--><g class="entity" data-entity="Message" data-source-line="58" data-uid="ent0009" id="entity_Message"><rect fill="#F1F1F1" height="162.0781" rx="2.5" ry="2.5" style="stroke:#181818;stroke-width:0.5;" width="210.0781" x="450.5" y="594"/><ellipse cx="520.6094" cy="610" fill="#ADD1B2" rx="11" ry="11" style="stroke:#181818;stroke-width:1;"/><path d="M524.7188,616 L517,616 L517,603.6094 L524.7188,603.6094 L524.7188,605.7656 L519.4531,605.7656 L519.4531,608.4375 L524.2188,608.4375 L524.2188,610.5938 L519.4531,610.5938 L519.4531,613.8438 L524.7188,613.8438 L524.7188,616 Z " fill="#000000"/><text fill="#000000" font-family="sans-serif" font-size="14" lengthAdjust="spacing" textLength="61.3594" x="541.1094" y="614.8467">Message</text><line style="stroke:#181818;stroke-width:0.5;" x1="451.5" x2="659.5781" y1="626" y2="626"/><ellipse cx="461.5" cy="639.6484" fill="#000000" rx="3" ry="3" style="stroke:#000000;stroke-width:1;"/><text fill="#000000" font-family="sans-serif" font-size="14" lengthAdjust="spacing" textLength="52.7051" x="470.5" y="642.9951">Id: uuid</text><line style="stroke:#181818;stroke-width:1;" x1="451.5" x2="659.5781" y1="650.2969" y2="650.2969"/><ellipse cx="461.5" cy="663.9453" fill="#000000" rx="3" ry="3" style="stroke:#000000;stroke-width:1;"/><text fill="#000000" font-family="sans-serif" font-size="14" lengthAdjust="spacing" textLength="184.0781" x="470.5" y="667.292">ConversationId: uuid &#171;FK&#187;</text><ellipse cx="461.5" cy="680.2422" fill="#000000" rx="3" ry="3" style="stroke:#000000;stroke-width:1;"/><text fill="#000000" font-family="sans-serif" font-size="14" lengthAdjust="spacing" textLength="123.4297" x="470.5" y="683.5889">UserId: uuid &#171;FK&#187;</text><ellipse cx="461.5" cy="696.5391" fill="#000000" rx="3" ry="3" style="stroke:#000000;stroke-width:1;"/><text fill="#000000" font-family="sans-serif" font-size="14" lengthAdjust="spacing" textLength="65.7686" x="470.5" y="699.8857">Seq: long</text><text fill="#000000" font-family="sans-serif" font-size="14" lengthAdjust="spacing" textLength="72.3857" x="470.5" y="716.1826">Body: text</text><ellipse cx="461.5" cy="729.1328" fill="#000000" rx="3" ry="3" style="stroke:#000000;stroke-width:1;"/><text fill="#000000" font-family="sans-serif" font-size="14" lengthAdjust="spacing" textLength="95.1084" x="470.5" y="732.4795">IsEdited: bool</text><ellipse cx="461.5" cy="745.4297" fill="#000000" rx="3" ry="3" style="stroke:#000000;stroke-width:1;"/><text fill="#000000" font-family="sans-serif" font-size="14" lengthAdjust="spacing" textLength="166.5781" x="470.5" y="748.7764">CreatedAtUtc: datetime</text></g><!--class LastReadMessage--><g class="entity" data-entity="LastReadMessage" data-source-line="69" data-uid="ent0010" id="entity_LastReadMessage"><rect fill="#F1F1F1" height="129.4844" rx="2.5" ry="2.5" style="stroke:#181818;stroke-width:0.5;" width="221.46" x="573" y="173.5"/><ellipse cx="616.4093" cy="189.5" fill="#ADD1B2" rx="11" ry="11" style="stroke:#181818;stroke-width:1;"/><path d="M620.5187,195.5 L612.8,195.5 L612.8,183.1094 L620.5187,183.1094 L620.5187,185.2656 L615.2531,185.2656 L615.2531,187.9375 L620.0187,187.9375 L620.0187,190.0938 L615.2531,190.0938 L615.2531,193.3438 L620.5187,193.3438 L620.5187,195.5 Z " fill="#000000"/><text fill="#000000" font-family="sans-serif" font-size="14" lengthAdjust="spacing" textLength="126.3281" x="636.7225" y="194.3467">LastReadMessage</text><line style="stroke:#181818;stroke-width:0.5;" x1="574" x2="793.46" y1="205.5" y2="205.5"/><ellipse cx="584" cy="219.1484" fill="#000000" rx="3" ry="3" style="stroke:#000000;stroke-width:1;"/><text fill="#000000" font-family="sans-serif" font-size="14" lengthAdjust="spacing" textLength="13.0156" x="593" y="222.4951">Id</text><line style="stroke:#181818;stroke-width:1;" x1="574" x2="793.46" y1="229.7969" y2="229.7969"/><ellipse cx="584" cy="243.4453" fill="#000000" rx="3" ry="3" style="stroke:#000000;stroke-width:1;"/><text fill="#000000" font-family="sans-serif" font-size="14" lengthAdjust="spacing" textLength="123.4297" x="593" y="246.792">UserId: uuid &#171;FK&#187;</text><ellipse cx="584" cy="259.7422" fill="#000000" rx="3" ry="3" style="stroke:#000000;stroke-width:1;"/><text fill="#000000" font-family="sans-serif" font-size="14" lengthAdjust="spacing" textLength="184.0781" x="593" y="263.0889">ConversationId: uuid &#171;FK&#187;</text><ellipse cx="584" cy="276.0391" fill="#000000" rx="3" ry="3" style="stroke:#000000;stroke-width:1;"/><text fill="#000000" font-family="sans-serif" font-size="14" lengthAdjust="spacing" textLength="152.8789" x="593" y="279.3857">MessageId: uuid &#171;FK&#187;</text><ellipse cx="584" cy="292.3359" fill="#000000" rx="3" ry="3" style="stroke:#000000;stroke-width:1;"/><text fill="#000000" font-family="sans-serif" font-size="14" lengthAdjust="spacing" textLength="195.46" x="593" y="295.6826">LastReadTimeUtc: datetime</text></g><!--class MessageReaction--><g class="entity" data-entity="MessageReaction" data-source-line="78" data-uid="ent0011" id="entity_MessageReaction"><rect fill="#F1F1F1" height="129.4844" rx="2.5" ry="2.5" style="stroke:#181818;stroke-width:0.5;" width="219.5732" x="766.5" y="388"/><ellipse cx="810.6507" cy="404" fill="#ADD1B2" rx="11" ry="11" style="stroke:#181818;stroke-width:1;"/><path d="M814.7601,410 L807.0413,410 L807.0413,397.6094 L814.7601,397.6094 L814.7601,399.7656 L809.4944,399.7656 L809.4944,402.4375 L814.2601,402.4375 L814.2601,404.5938 L809.4944,404.5938 L809.4944,407.8438 L814.7601,407.8438 L814.7601,410 Z " fill="#000000"/><text fill="#000000" font-family="sans-serif" font-size="14" lengthAdjust="spacing" textLength="122.7939" x="831.1286" y="408.8467">MessageReaction</text><line style="stroke:#181818;stroke-width:0.5;" x1="767.5" x2="985.0732" y1="420" y2="420"/><ellipse cx="777.5" cy="433.6484" fill="#000000" rx="3" ry="3" style="stroke:#000000;stroke-width:1;"/><text fill="#000000" font-family="sans-serif" font-size="14" lengthAdjust="spacing" textLength="52.7051" x="786.5" y="436.9951">Id: uuid</text><line style="stroke:#181818;stroke-width:1;" x1="767.5" x2="985.0732" y1="444.2969" y2="444.2969"/><ellipse cx="777.5" cy="457.9453" fill="#000000" rx="3" ry="3" style="stroke:#000000;stroke-width:1;"/><text fill="#000000" font-family="sans-serif" font-size="14" lengthAdjust="spacing" textLength="123.4297" x="786.5" y="461.292">UserId: uuid &#171;FK&#187;</text><ellipse cx="777.5" cy="474.2422" fill="#000000" rx="3" ry="3" style="stroke:#000000;stroke-width:1;"/><text fill="#000000" font-family="sans-serif" font-size="14" lengthAdjust="spacing" textLength="152.8789" x="786.5" y="477.5889">MessageId: uuid &#171;FK&#187;</text><ellipse cx="777.5" cy="490.5391" fill="#000000" rx="3" ry="3" style="stroke:#000000;stroke-width:1;"/><text fill="#000000" font-family="sans-serif" font-size="14" lengthAdjust="spacing" textLength="193.5732" x="786.5" y="493.8857">EmotionType: EmotionType</text><ellipse cx="777.5" cy="506.8359" fill="#000000" rx="3" ry="3" style="stroke:#000000;stroke-width:1;"/><text fill="#000000" font-family="sans-serif" font-size="14" lengthAdjust="spacing" textLength="168.4717" x="786.5" y="510.1826">ReactedAtUtc: datetime</text></g><!--class Attachment--><g class="entity" data-entity="Attachment" data-source-line="87" data-uid="ent0012" id="entity_Attachment"><rect fill="#F1F1F1" height="113.1875" rx="2.5" ry="2.5" style="stroke:#181818;stroke-width:0.5;" width="182.7139" x="163" y="396"/><ellipse cx="208.9478" cy="412" fill="#ADD1B2" rx="11" ry="11" style="stroke:#181818;stroke-width:1;"/><path d="M213.0571,418 L205.3384,418 L205.3384,405.6094 L213.0571,405.6094 L213.0571,407.7656 L207.7915,407.7656 L207.7915,410.4375 L212.5571,410.4375 L212.5571,412.5938 L207.7915,412.5938 L207.7915,415.8438 L213.0571,415.8438 L213.0571,418 Z " fill="#000000"/><text fill="#000000" font-family="sans-serif" font-size="14" lengthAdjust="spacing" textLength="82.3184" x="229.4478" y="416.8467">Attachment</text><line style="stroke:#181818;stroke-width:0.5;" x1="164" x2="344.7139" y1="428" y2="428"/><ellipse cx="174" cy="441.6484" fill="#000000" rx="3" ry="3" style="stroke:#000000;stroke-width:1;"/><text fill="#000000" font-family="sans-serif" font-size="14" lengthAdjust="spacing" textLength="13.0156" x="183" y="444.9951">Id</text><line style="stroke:#181818;stroke-width:1;" x1="164" x2="344.7139" y1="452.2969" y2="452.2969"/><ellipse cx="174" cy="465.9453" fill="#000000" rx="3" ry="3" style="stroke:#000000;stroke-width:1;"/><text fill="#000000" font-family="sans-serif" font-size="14" lengthAdjust="spacing" textLength="152.8789" x="183" y="469.292">MessageId: uuid &#171;FK&#187;</text><ellipse cx="174" cy="482.2422" fill="#000000" rx="3" ry="3" style="stroke:#000000;stroke-width:1;"/><text fill="#000000" font-family="sans-serif" font-size="14" lengthAdjust="spacing" textLength="126.7314" x="183" y="485.5889">FileType: FileType</text><ellipse cx="174" cy="498.5391" fill="#000000" rx="3" ry="3" style="stroke:#000000;stroke-width:1;"/><text fill="#000000" font-family="sans-serif" font-size="14" lengthAdjust="spacing" textLength="156.7139" x="183" y="501.8857">FileId: uuid &#171;FK to S3&#187;</text></g><!--link ConversationType to Conversation--><g class="link" data-entity-1="ConversationType" data-entity-2="Conversation" data-source-line="95" data-uid="lnk13" id="link_ConversationType_Conversation"><path codeLine="95" d="M464.56,286.69 C468.35,316.55 473.29,355.38 477.41,387.85" fill="none" id="ConversationType-Conversation" style="stroke:#181818;stroke-width:1;stroke-dasharray:7,7;"/></g><!--link ParticipantRole to Participant--><g class="link" data-entity-1="ParticipantRole" data-entity-2="Participant" data-source-line="96" data-uid="lnk14" id="link_ParticipantRole_Participant"><path codeLine="96" d="M238.5,104.4 C238.5,125.49 238.5,150.58 238.5,173.23" fill="none" id="ParticipantRole-Participant" style="stroke:#181818;stroke-width:1;stroke-dasharray:7,7;"/></g><!--link EmotionType to MessageReaction--><g class="link" data-entity-1="EmotionType" data-entity-2="MessageReaction" data-source-line="97" data-uid="lnk15" id="link_EmotionType_MessageReaction"><path codeLine="97" d="M886.4,311.24 C884.64,336.15 882.69,363.84 880.98,388" fill="none" id="EmotionType-MessageReaction" style="stroke:#181818;stroke-width:1;stroke-dasharray:7,7;"/></g><!--link FileType to Attachment--><g class="link" data-entity-1="FileType" data-entity-2="Attachment" data-source-line="98" data-uid="lnk16" id="link_FileType_Attachment"><path codeLine="98" d="M98.24,292.02 C103.99,298.47 109.84,304.92 115.5,311 C142.03,339.51 172.36,370.36 197.9,395.87" fill="none" id="FileType-Attachment" style="stroke:#181818;stroke-width:1;stroke-dasharray:7,7;"/></g><!--link Participant to User--><g class="link" data-entity-1="Participant" data-entity-2="User" data-source-line="100" data-uid="lnk17" id="link_Participant_User"><path codeLine="100" d="M177.7546,317.6127 C160.8246,342.7127 154.15,357.81 145.5,388 C129.71,443.12 121.13,465.1 145.5,517 C229.7,696.29 433.6293,811.1567 561.0093,868.6967" fill="none" id="Participant-User" style="stroke:#181818;stroke-width:1;"/><line style="stroke:#181818;stroke-width:1;" x1="183.3465" x2="182.8458" y1="309.3223" y2="299.3349"/><line style="stroke:#181818;stroke-width:1;" x1="183.3465" x2="192.7942" y1="309.3223" y2="306.0451"/><line style="stroke:#181818;stroke-width:1;" x1="183.3465" x2="187.82" y1="309.3223" y2="302.69"/><ellipse cx="179.9914" cy="314.2966" fill="none" rx="4" ry="4" style="stroke:#181818;stroke-width:1;"/><line style="stroke:#181818;stroke-width:1;" x1="566.3013" x2="563.008" y1="866.698" y2="873.9887"/><line style="stroke:#181818;stroke-width:1;" x1="563.5673" x2="560.274" y1="865.463" y2="872.7537"/><line style="stroke:#181818;stroke-width:1;" x1="561.0093" x2="568.3" y1="868.6967" y2="871.99"/><polygon fill="#000000" points="176.3548,559.6713,173.6032,550.5675,168.7776,553.9235,176.3548,559.6713" style="stroke:#000000;stroke-width:1;"/><text fill="#000000" font-family="sans-serif" font-size="13" lengthAdjust="spacing" textLength="68.2627" x="182.5" y="560.0669">belongs to</text></g><!--link Participant to Conversation--><g class="link" data-entity-1="Participant" data-entity-2="Conversation" data-source-line="101" data-uid="lnk18" id="link_Participant_Conversation"><path codeLine="101" d="M326.256,314.4983 C357.516,341.3883 374.126,355.682 405.376,382.572" fill="none" id="Participant-Conversation" style="stroke:#181818;stroke-width:1;"/><line style="stroke:#181818;stroke-width:1;" x1="318.6749" x2="308.6972" y1="307.977" y2="307.3087"/><line style="stroke:#181818;stroke-width:1;" x1="318.6749" x2="316.5228" y1="307.977" y2="298.2113"/><line style="stroke:#181818;stroke-width:1;" x1="318.6749" x2="312.61" y1="307.977" y2="302.76"/><ellipse cx="323.2235" cy="311.8898" fill="none" rx="4" ry="4" style="stroke:#181818;stroke-width:1;"/><line style="stroke:#181818;stroke-width:1;" x1="411.017" x2="405.799" y1="382.149" y2="388.213"/><line style="stroke:#181818;stroke-width:1;" x1="408.743" x2="403.525" y1="380.1922" y2="386.2563"/><line style="stroke:#181818;stroke-width:1;" x1="405.376" x2="411.44" y1="382.572" y2="387.79"/><polygon fill="#000000" points="385.2902,352.8274,380.3504,344.7003,376.5169,349.156,385.2902,352.8274" style="stroke:#000000;stroke-width:1;"/><text fill="#000000" font-family="sans-serif" font-size="13" lengthAdjust="spacing" textLength="30.1895" x="390.5" y="354.0669">joins</text></g><!--link Message to User--><g class="link" data-entity-1="Message" data-entity-2="User" data-source-line="103" data-uid="lnk19" id="link_Message_User"><path codeLine="103" d="M602.2879,772.4342 C614.2779,797.1442 616.1276,800.9426 628.1176,825.6526" fill="none" id="Message-User" style="stroke:#181818;stroke-width:1;"/><line style="stroke:#181818;stroke-width:1;" x1="597.9224" x2="589.0319" y1="763.4374" y2="758.8593"/><line style="stroke:#181818;stroke-width:1;" x1="597.9224" x2="599.8281" y1="763.4374" y2="753.6207"/><line style="stroke:#181818;stroke-width:1;" x1="597.9224" x2="594.43" y1="763.4374" y2="756.24"/><ellipse cx="600.5417" cy="768.8355" fill="none" rx="4" ry="4" style="stroke:#181818;stroke-width:1;"/><line style="stroke:#181818;stroke-width:1;" x1="633.4625" x2="626.2651" y1="827.5051" y2="830.9975"/><line style="stroke:#181818;stroke-width:1;" x1="632.1529" x2="624.9554" y1="824.806" y2="828.2984"/><line style="stroke:#181818;stroke-width:1;" x1="628.1176" x2="631.61" y1="825.6526" y2="832.85"/><polygon fill="#000000" points="622.6832,799.0646,621.3777,789.644,616.0898,792.2106,622.6832,799.0646" style="stroke:#000000;stroke-width:1;"/><text fill="#000000" font-family="sans-serif" font-size="13" lengthAdjust="spacing" textLength="48.1851" x="629.5" y="799.0669">sent by</text></g><!--link Message to Conversation--><g class="link" data-entity-1="Message" data-entity-2="Conversation" data-source-line="104" data-uid="lnk20" id="link_Message_Conversation"><path codeLine="104" d="M543.8637,576.0325 C541.0437,560.3025 540.47,561.81 535.5,547 C532.16,537.05 531.3012,534.1077 526.5912,524.3277" fill="none" id="Message-Conversation" style="stroke:#181818;stroke-width:1;"/><line style="stroke:#181818;stroke-width:1;" x1="545.6283" x2="552.9458" y1="585.8755" y2="592.6912"/><line style="stroke:#181818;stroke-width:1;" x1="545.6283" x2="541.1342" y1="585.8755" y2="594.8088"/><line style="stroke:#181818;stroke-width:1;" x1="545.6283" x2="547.04" y1="585.8755" y2="593.75"/><ellipse cx="544.5695" cy="579.9697" fill="none" rx="4" ry="4" style="stroke:#181818;stroke-width:1;"/><line style="stroke:#181818;stroke-width:1;" x1="521.2517" x2="528.4594" y1="522.4594" y2="518.9883"/><line style="stroke:#181818;stroke-width:1;" x1="522.5534" x2="529.7611" y1="525.1623" y2="521.6911"/><line style="stroke:#181818;stroke-width:1;" x1="526.5912" x2="523.12" y1="524.3277" y2="517.12"/><polygon fill="#000000" points="542.9158,550.824,542.9942,560.3343,548.5692,558.4719,542.9158,550.824" style="stroke:#000000;stroke-width:1;"/><text fill="#000000" font-family="sans-serif" font-size="13" lengthAdjust="spacing" textLength="11.8511" x="553.5" y="560.0669">in</text></g><!--link Conversation to Message--><g class="link" data-entity-1="Conversation" data-entity-2="Message" data-source-line="106" data-uid="lnk21" id="link_Conversation_Message"><path codeLine="106" d="M454.2762,524.8963 C450.6962,540.4563 451.83,549.11 457.5,564 C461.46,574.4 456.9409,569.4461 463.2509,578.9461" fill="none" id="Conversation-Message" style="stroke:#181818;stroke-width:1;"/><line style="stroke:#181818;stroke-width:1;" x1="451.275" x2="459.0713" y1="520.1013" y2="521.895"/><line style="stroke:#181818;stroke-width:1;" x1="450.6023" x2="458.3986" y1="523.0249" y2="524.8186"/><line style="stroke:#181818;stroke-width:1;" x1="454.2762" x2="456.07" y1="524.8963" y2="517.1"/><line style="stroke:#181818;stroke-width:1;" x1="468.7837" x2="478.208" y1="587.2761" y2="590.6203"/><line style="stroke:#181818;stroke-width:1;" x1="468.7837" x2="468.212" y1="587.2761" y2="597.2597"/><line style="stroke:#181818;stroke-width:1;" x1="468.7837" x2="473.21" y1="587.2761" y2="593.94"/><ellipse cx="465.464" cy="582.2781" fill="none" rx="4" ry="4" style="stroke:#181818;stroke-width:1;"/><polygon fill="#000000" points="463.319,560.4989,464.7366,551.0946,458.9382,552.0574,463.319,560.4989" style="stroke:#000000;stroke-width:1;"/><text fill="#000000" font-family="sans-serif" font-size="13" lengthAdjust="spacing" textLength="55.0278" x="471.5" y="560.0669">contains</text></g><!--link LastReadMessage to User--><g class="link" data-entity-1="LastReadMessage" data-entity-2="User" data-source-line="108" data-uid="lnk22" id="link_LastReadMessage_User"><path codeLine="108" d="M684.0871,320.5896 C684.8071,422.5696 686.02,611.02 686.5,786 C686.52,793.56 687.05,795.46 686.5,803 C685.8,812.72 685.7219,814.9493 684.4919,824.9993" fill="none" id="LastReadMessage-User" style="stroke:#181818;stroke-width:1;"/><line style="stroke:#181818;stroke-width:1;" x1="684.0165" x2="677.9601" y1="310.5898" y2="302.6324"/><line style="stroke:#181818;stroke-width:1;" x1="684.0165" x2="689.9599" y1="310.5898" y2="302.5476"/><line style="stroke:#181818;stroke-width:1;" x1="684.0165" x2="683.96" y1="310.5898" y2="302.59"/><ellipse cx="684.0588" cy="316.5897" fill="none" rx="4" ry="4" style="stroke:#181818;stroke-width:1;"/><line style="stroke:#181818;stroke-width:1;" x1="687.9763" x2="680.0356" y1="829.4556" y2="828.4837"/><line style="stroke:#181818;stroke-width:1;" x1="688.3407" x2="680.4" y1="826.4778" y2="825.5059"/><line style="stroke:#181818;stroke-width:1;" x1="684.4919" x2="683.52" y1="824.9993" y2="832.94"/></g><!--link LastReadMessage to Conversation--><g class="link" data-entity-1="LastReadMessage" data-entity-2="Conversation" data-source-line="109" data-uid="lnk23" id="link_LastReadMessage_Conversation"><path codeLine="109" d="M611.818,315.9281 C586.758,342.8181 575.3742,355.0475 550.3142,381.9375" fill="none" id="LastReadMessage-Conversation" style="stroke:#181818;stroke-width:1;"/><line style="stroke:#181818;stroke-width:1;" x1="618.6358" x2="619.7006" y1="308.6125" y2="298.6693"/><line style="stroke:#181818;stroke-width:1;" x1="618.6358" x2="628.4794" y1="308.6125" y2="306.8507"/><line style="stroke:#181818;stroke-width:1;" x1="618.6358" x2="624.09" y1="308.6125" y2="302.76"/><ellipse cx="614.5451" cy="313.0019" fill="none" rx="4" ry="4" style="stroke:#181818;stroke-width:1;"/><line style="stroke:#181818;stroke-width:1;" x1="550.5133" x2="544.6609" y1="387.5909" y2="382.1367"/><line style="stroke:#181818;stroke-width:1;" x1="552.5587" x2="546.7062" y1="385.3962" y2="379.942"/><line style="stroke:#181818;stroke-width:1;" x1="550.3142" x2="544.86" y1="381.9375" y2="387.79"/></g><!--link LastReadMessage to Message--><g class="link" data-entity-1="LastReadMessage" data-entity-2="Message" data-source-line="110" data-uid="lnk24" id="link_LastReadMessage_Message"><path codeLine="110" d="M662.544,320.1739 C647.754,376.7039 629.56,443.96 607.5,517 C599.9,542.15 593.6133,561.7884 585.4333,586.3984" fill="none" id="LastReadMessage-Message" style="stroke:#181818;stroke-width:1;"/><line style="stroke:#181818;stroke-width:1;" x1="665.0751" x2="661.2954" y1="310.4995" y2="301.2413"/><line style="stroke:#181818;stroke-width:1;" x1="665.0751" x2="672.9046" y1="310.4995" y2="304.2787"/><line style="stroke:#181818;stroke-width:1;" x1="665.0751" x2="667.1" y1="310.4995" y2="302.76"/><ellipse cx="663.5564" cy="316.3041" fill="none" rx="4" ry="4" style="stroke:#181818;stroke-width:1;"/><line style="stroke:#181818;stroke-width:1;" x1="587.9675" x2="580.3759" y1="591.4559" y2="588.9325"/><line style="stroke:#181818;stroke-width:1;" x1="588.9137" x2="581.3221" y1="588.609" y2="586.0857"/><line style="stroke:#181818;stroke-width:1;" x1="585.4333" x2="582.91" y1="586.3984" y2="593.99"/></g><!--link MessageReaction to User--><g class="link" data-entity-1="MessageReaction" data-entity-2="User" data-source-line="112" data-uid="lnk25" id="link_MessageReaction_User"><path codeLine="112" d="M849.7318,534.2538 C825.3918,605.5138 788.12,706.54 739.5,803 C734.53,812.86 732.9679,816.0738 727.1679,825.9938" fill="none" id="MessageReaction-User" style="stroke:#181818;stroke-width:1;"/><line style="stroke:#181818;stroke-width:1;" x1="852.9642" x2="849.8721" y1="524.7906" y2="515.2806"/><line style="stroke:#181818;stroke-width:1;" x1="852.9642" x2="861.2279" y1="524.7906" y2="519.1594"/><line style="stroke:#181818;stroke-width:1;" x1="852.9642" x2="855.55" y1="524.7906" y2="517.22"/><ellipse cx="851.0248" cy="530.4685" fill="none" rx="4" ry="4" style="stroke:#181818;stroke-width:1;"/><line style="stroke:#181818;stroke-width:1;" x1="728.602" x2="721.6959" y1="831.4659" y2="827.428"/><line style="stroke:#181818;stroke-width:1;" x1="730.1162" x2="723.2101" y1="828.876" y2="824.8381"/><line style="stroke:#181818;stroke-width:1;" x1="727.1679" x2="723.13" y1="825.9938" y2="832.9"/></g><!--link MessageReaction to Message--><g class="link" data-entity-1="MessageReaction" data-entity-2="Message" data-source-line="113" data-uid="lnk26" id="link_MessageReaction_Message"><path codeLine="113" d="M768.8126,527.4708 C730.3026,553.9208 706.8539,570.0301 667.1439,597.3101" fill="none" id="MessageReaction-Message" style="stroke:#181818;stroke-width:1;"/><line style="stroke:#181818;stroke-width:1;" x1="777.0556" x2="780.2531" y1="521.8093" y2="512.3342"/><line style="stroke:#181818;stroke-width:1;" x1="777.0556" x2="787.0469" y1="521.8093" y2="522.2258"/><line style="stroke:#181818;stroke-width:1;" x1="777.0556" x2="783.65" y1="521.8093" y2="517.28"/><ellipse cx="772.1098" cy="525.2062" fill="none" rx="4" ry="4" style="stroke:#181818;stroke-width:1;"/><line style="stroke:#181818;stroke-width:1;" x1="666.1119" x2="661.582" y1="602.872" y2="596.2781"/><line style="stroke:#181818;stroke-width:1;" x1="668.5846" x2="664.0547" y1="601.1733" y2="594.5794"/><line style="stroke:#181818;stroke-width:1;" x1="667.1439" x2="660.55" y1="597.3101" y2="601.84"/></g><!--link Attachment to Message--><g class="link" data-entity-1="Attachment" data-entity-2="Message" data-source-line="115" data-uid="lnk27" id="link_Attachment_Message"><path codeLine="115" d="M344.9805,519.7774 C381.2905,546.3774 404.3655,563.2936 443.8455,592.2036" fill="none" id="Attachment-Message" style="stroke:#181818;stroke-width:1;"/><line style="stroke:#181818;stroke-width:1;" x1="336.9136" x2="326.9142" y1="513.8677" y2="513.9802"/><line style="stroke:#181818;stroke-width:1;" x1="336.9136" x2="334.0058" y1="513.8677" y2="504.2998"/><line style="stroke:#181818;stroke-width:1;" x1="336.9136" x2="330.46" y1="513.8677" y2="509.14"/><ellipse cx="341.7537" cy="517.4136" fill="none" rx="4" ry="4" style="stroke:#181818;stroke-width:1;"/><line style="stroke:#181818;stroke-width:1;" x1="449.436" x2="444.7095" y1="591.3395" y2="597.794"/><line style="stroke:#181818;stroke-width:1;" x1="447.0155" x2="442.2891" y1="589.5671" y2="596.0216"/><line style="stroke:#181818;stroke-width:1;" x1="443.8455" x2="450.3" y1="592.2036" y2="596.93"/></g><!--SRC=[rLVBRjD05DtxAsQ752cy2XiBAeMMDmX42dit7ZK3YQV44w2YI40H2052GkmG3o4-mAI4fcaJVc7yHvmPEtubiTE7a4WNpNYSS-xSU-RS6UgqcsI1EmzeoxK4uyxIsYebZms2po9hqPguJbtNMg4kEKkEwySNMxozYj49FLgeMuv36nYVD9uO1bLuDwsMO3MsQZdY5c-Cu6uyT6WhGgdOJUP4ADTfSrbFnY3dcpmJJxN903O2k4J14W5SO_Ue_daGkDi8ndF1gvPZktLBFpaLn78FNqz7N1S0d22wMUU2HqHtc4rvH5Hfsun7J3T4NOSz5q099jR8RHUF0g0IkMoRfDrcDYdy73k2budy8uTontyhj_2_8pt_kUnY_9uSEQOHo-KGMB4uLfEQHD17eW1OVfOzsPS3O6tBtKAI4hbckQ9I4-m15dHRr4nYMu8ArgGJqJ_uJm6m2m25x3-JEnZ-2kY8z6GV13qG3TIa-Zv310ij2agx8lBfnoBGNpPbJn7Xk-U_17LFHu4_pz-G0v1v8w95wjPQR5KfhJ2JYkWB8WSsu0R0xHOkv1nhYVeYeYzSHe3_KKDuQXb3-Hj9x2gYCBFv6QjI8PYpufhahikT8aLy0kehvEADMiG0U46-XX18lw10iTIJnh5loQigWMPJ4mtLA2Fs9IOQC-Wy8NOFjTdLgTF1XxMQJdHG5Kn7BX7bA-QunKv1_WwyFpbuQcE6ZXpb-SoP2rVdv_CS9RKbWKhmO8Y_d_xhM62TSTfkkjm9Nzz_jJSWEwqsdRj-eFLy0GHkLxZUFTXeALMGVEGYbPQ8QdBcMDURLk9lGMXxoqI9NE7CcSaFivRSqLjx0odPoIjskjIXnlPVvd61PMjwc1KuV7rKwNsJDBYpCfFbV5K1-U-nm_eA4AwwJRJxm8MGshriDzqrkBqse-65hj55aqMPS_AE6hhdROQUQf9bpXj5c3yW5qzk8bM8JBNJ3QX8YRKJnDz3w877QYAruCuOFJh9mJkwmjn2QhrmGPFN66jNUUGjQjdZ6YOpVaAHR84oCFhUV-P8ixQ8ukrQYjAvX6eTw2oe6ezMqz1_fPS_eNPXuE2h7VHGqTKdp_3uDr3kcXLdznzKzJ0haRWIcQdxKTvHuXrswJ1CGzonL7xtUxgEqvegNKK8grPlqjJXO8yxJdiD9AFEljFwnc5cT7JnC-ChOAxDweo-G0QsbJkcSL814LmWgtCJmWfZYZ7WcjMvC9DZfyIZHrEsO6JF69XFF3AIci1KPZCPqHen5rVBIAAI9xnSNbyFBh5e55IrG5UjPdxIQwaB02uUEAEuUDCOMMyQpLNQM5x32vdv30np54RguVfwkSmVHySIazIu8woGBMlu2TPfSwciJdad74QhYKmfYJzbBlfjObUaf_u2]--></g></svg>