<svg xmlns="http://www.w3.org/2000/svg" xmlns:xlink="http://www.w3.org/1999/xlink" contentStyleType="text/css" data-diagram-type="CLASS" height="950px" preserveAspectRatio="none" style="width:962px;height:950px;background:#FFFFFF;" version="1.1" viewBox="0 0 962 950" width="962px" zoomAndPan="magnify"><defs/><g><!--class ConversationType--><g class="entity" data-entity="ConversationType" data-source-line="1" data-uid="ent0002" id="entity_ConversationType"><rect fill="#F1F1F1" height="96.8906" rx="2.5" ry="2.5" style="stroke:#181818;stroke-width:0.5;" width="158.8955" x="411.5" y="188.5"/><ellipse cx="426.5" cy="204.5" fill="#EB937F" rx="11" ry="11" style="stroke:#181818;stroke-width:1;"/><path d="M430.6094,210.5 L422.8906,210.5 L422.8906,198.1094 L430.6094,198.1094 L430.6094,200.2656 L425.3438,200.2656 L425.3438,202.9375 L430.1094,202.9375 L430.1094,205.0938 L425.3438,205.0938 L425.3438,208.3438 L430.6094,208.3438 L430.6094,210.5 Z " fill="#000000"/><text fill="#000000" font-family="sans-serif" font-size="14" lengthAdjust="spacing" textLength="126.8955" x="440.5" y="209.3467">ConversationType</text><line style="stroke:#181818;stroke-width:0.5;" x1="412.5" x2="569.3955" y1="220.5" y2="220.5"/><text fill="#000000" font-family="sans-serif" font-size="14" lengthAdjust="spacing" textLength="140.417" x="417.5" y="237.4951">DirectMessages = 0</text><text fill="#000000" font-family="sans-serif" font-size="14" lengthAdjust="spacing" textLength="72.4678" x="417.5" y="253.792">Group = 1</text><text fill="#000000" font-family="sans-serif" font-size="14" lengthAdjust="spacing" textLength="87.0146" x="417.5" y="270.0889">Channel = 2</text><line style="stroke:#181818;stroke-width:0.5;" x1="412.5" x2="569.3955" y1="277.3906" y2="277.3906"/></g><!--class ParticipantRole--><g class="entity" data-entity="ParticipantRole" data-source-line="7" data-uid="ent0003" id="entity_ParticipantRole"><rect fill="#F1F1F1" height="96.8906" rx="2.5" ry="2.5" style="stroke:#181818;stroke-width:0.5;" width="138.3672" x="202" y="7"/><ellipse cx="217" cy="23" fill="#EB937F" rx="11" ry="11" style="stroke:#181818;stroke-width:1;"/><path d="M221.1094,29 L213.3906,29 L213.3906,16.6094 L221.1094,16.6094 L221.1094,18.7656 L215.8438,18.7656 L215.8438,21.4375 L220.6094,21.4375 L220.6094,23.5938 L215.8438,23.5938 L215.8438,26.8438 L221.1094,26.8438 L221.1094,29 Z " fill="#000000"/><text fill="#000000" font-family="sans-serif" font-size="14" lengthAdjust="spacing" textLength="106.3672" x="231" y="27.8467">ParticipantRole</text><line style="stroke:#181818;stroke-width:0.5;" x1="203" x2="339.3672" y1="39" y2="39"/><text fill="#000000" font-family="sans-serif" font-size="14" lengthAdjust="spacing" textLength="75.25" x="208" y="55.9951">Owner = 0</text><text fill="#000000" font-family="sans-serif" font-size="14" lengthAdjust="spacing" textLength="74.4023" x="208" y="72.292">Admin = 1</text><text fill="#000000" font-family="sans-serif" font-size="14" lengthAdjust="spacing" textLength="87.124" x="208" y="88.5889">Member = 2</text><line style="stroke:#181818;stroke-width:0.5;" x1="203" x2="339.3672" y1="95.8906" y2="95.8906"/></g><!--class EmotionType--><g class="entity" data-entity="EmotionType" data-source-line="13" data-uid="ent0004" id="entity_EmotionType"><rect fill="#F1F1F1" height="145.7813" rx="2.5" ry="2.5" style="stroke:#181818;stroke-width:0.5;" width="124.2031" x="7" y="164"/><ellipse cx="22" cy="180" fill="#EB937F" rx="11" ry="11" style="stroke:#181818;stroke-width:1;"/><path d="M26.1094,186 L18.3906,186 L18.3906,173.6094 L26.1094,173.6094 L26.1094,175.7656 L20.8438,175.7656 L20.8438,178.4375 L25.6094,178.4375 L25.6094,180.5938 L20.8438,180.5938 L20.8438,183.8438 L26.1094,183.8438 L26.1094,186 Z " fill="#000000"/><text fill="#000000" font-family="sans-serif" font-size="14" lengthAdjust="spacing" textLength="92.2031" x="36" y="184.8467">EmotionType</text><line style="stroke:#181818;stroke-width:0.5;" x1="8" x2="130.2031" y1="196" y2="196"/><text fill="#000000" font-family="sans-serif" font-size="14" lengthAdjust="spacing" textLength="68.4551" x="13" y="212.9951">Smile = 0</text><text fill="#000000" font-family="sans-serif" font-size="14" lengthAdjust="spacing" textLength="68.5029" x="13" y="229.292">Heart = 1</text><text fill="#000000" font-family="sans-serif" font-size="14" lengthAdjust="spacing" textLength="57.9482" x="13" y="245.5889">Like = 2</text><text fill="#000000" font-family="sans-serif" font-size="14" lengthAdjust="spacing" textLength="76.002" x="13" y="261.8857">Dislike = 3</text><text fill="#000000" font-family="sans-serif" font-size="14" lengthAdjust="spacing" textLength="107.8711" x="13" y="278.1826">Handshake = 4</text><text fill="#000000" font-family="sans-serif" font-size="14" lengthAdjust="spacing" textLength="48.665" x="13" y="294.4795">Ok = 5</text><line style="stroke:#181818;stroke-width:0.5;" x1="8" x2="130.2031" y1="301.7813" y2="301.7813"/></g><!--class FileType--><g class="entity" data-entity="FileType" data-source-line="22" data-uid="ent0005" id="entity_FileType"><rect fill="#F1F1F1" height="113.1875" rx="2.5" ry="2.5" style="stroke:#181818;stroke-width:0.5;" width="90.7822" x="818.5" y="378"/><ellipse cx="833.5" cy="394" fill="#EB937F" rx="11" ry="11" style="stroke:#181818;stroke-width:1;"/><path d="M837.6094,400 L829.8906,400 L829.8906,387.6094 L837.6094,387.6094 L837.6094,389.7656 L832.3438,389.7656 L832.3438,392.4375 L837.1094,392.4375 L837.1094,394.5938 L832.3438,394.5938 L832.3438,397.8438 L837.6094,397.8438 L837.6094,400 Z " fill="#000000"/><text fill="#000000" font-family="sans-serif" font-size="14" lengthAdjust="spacing" textLength="58.7822" x="847.5" y="398.8467">FileType</text><line style="stroke:#181818;stroke-width:0.5;" x1="819.5" x2="908.2822" y1="410" y2="410"/><text fill="#000000" font-family="sans-serif" font-size="14" lengthAdjust="spacing" textLength="69.4736" x="824.5" y="426.9951">Photo = 0</text><text fill="#000000" font-family="sans-serif" font-size="14" lengthAdjust="spacing" textLength="69.0703" x="824.5" y="443.292">Video = 1</text><text fill="#000000" font-family="sans-serif" font-size="14" lengthAdjust="spacing" textLength="69.3301" x="824.5" y="459.5889">Audio = 2</text><text fill="#000000" font-family="sans-serif" font-size="14" lengthAdjust="spacing" textLength="69.2891" x="824.5" y="475.8857">Other = 3</text><line style="stroke:#181818;stroke-width:0.5;" x1="819.5" x2="908.2822" y1="483.1875" y2="483.1875"/></g><!--class User--><g class="entity" data-entity="User" data-source-line="29" data-uid="ent0006" id="entity_User"><rect fill="#F1F1F1" height="162.0781" rx="2.5" ry="2.5" style="stroke:#181818;stroke-width:0.5;" width="203.5635" x="210" y="781"/><ellipse cx="291.5767" cy="797" fill="#ADD1B2" rx="11" ry="11" style="stroke:#181818;stroke-width:1;"/><path d="M295.686,803 L287.9673,803 L287.9673,790.6094 L295.686,790.6094 L295.686,792.7656 L290.4204,792.7656 L290.4204,795.4375 L295.186,795.4375 L295.186,797.5938 L290.4204,797.5938 L290.4204,800.8438 L295.686,800.8438 L295.686,803 Z " fill="#000000"/><text fill="#000000" font-family="sans-serif" font-size="14" lengthAdjust="spacing" textLength="31.9102" x="312.0767" y="801.8467">User</text><line style="stroke:#181818;stroke-width:0.5;" x1="211" x2="412.5635" y1="813" y2="813"/><ellipse cx="221" cy="826.6484" fill="#000000" rx="3" ry="3" style="stroke:#000000;stroke-width:1;"/><text fill="#000000" font-family="sans-serif" font-size="14" lengthAdjust="spacing" textLength="52.7051" x="230" y="829.9951">Id: uuid</text><line style="stroke:#181818;stroke-width:1;" x1="211" x2="412.5635" y1="837.2969" y2="837.2969"/><ellipse cx="221" cy="850.9453" fill="#000000" rx="3" ry="3" style="stroke:#000000;stroke-width:1;"/><text fill="#000000" font-family="sans-serif" font-size="14" lengthAdjust="spacing" textLength="108.6572" x="230" y="854.292">Username: text</text><ellipse cx="221" cy="867.2422" fill="#000000" rx="3" ry="3" style="stroke:#000000;stroke-width:1;"/><text fill="#000000" font-family="sans-serif" font-size="14" lengthAdjust="spacing" textLength="177.5635" x="230" y="870.5889">LastActivityUtc: datetime</text><ellipse cx="221" cy="883.5391" fill="#000000" rx="3" ry="3" style="stroke:#000000;stroke-width:1;"/><text fill="#000000" font-family="sans-serif" font-size="14" lengthAdjust="spacing" textLength="166.5781" x="230" y="886.8857">CreatedAtUtc: datetime</text><text fill="#000000" font-family="sans-serif" font-size="14" lengthAdjust="spacing" textLength="116.7783" x="230" y="903.1826">Description: text</text><text fill="#000000" font-family="sans-serif" font-size="14" lengthAdjust="spacing" textLength="162.873" x="230" y="919.4795">BirthDateUtc: datetime</text><ellipse cx="221" cy="932.4297" fill="#000000" rx="3" ry="3" style="stroke:#000000;stroke-width:1;"/><text fill="#000000" font-family="sans-serif" font-size="14" lengthAdjust="spacing" textLength="95.2109" x="230" y="935.7764">Settings: json</text></g><!--class Conversation--><g class="entity" data-entity="Conversation" data-source-line="40" data-uid="ent0007" id="entity_Conversation"><rect fill="#F1F1F1" height="129.4844" rx="2.5" ry="2.5" style="stroke:#181818;stroke-width:0.5;" width="208.041" x="387" y="370"/><ellipse cx="440.4912" cy="386" fill="#ADD1B2" rx="11" ry="11" style="stroke:#181818;stroke-width:1;"/><path d="M444.6006,392 L436.8818,392 L436.8818,379.6094 L444.6006,379.6094 L444.6006,381.7656 L439.335,381.7656 L439.335,384.4375 L444.1006,384.4375 L444.1006,386.5938 L439.335,386.5938 L439.335,389.8438 L444.6006,389.8438 L444.6006,392 Z " fill="#000000"/><text fill="#000000" font-family="sans-serif" font-size="14" lengthAdjust="spacing" textLength="92.5586" x="460.9912" y="390.8467">Conversation</text><line style="stroke:#181818;stroke-width:0.5;" x1="388" x2="594.041" y1="402" y2="402"/><ellipse cx="398" cy="415.6484" fill="#000000" rx="3" ry="3" style="stroke:#000000;stroke-width:1;"/><text fill="#000000" font-family="sans-serif" font-size="14" lengthAdjust="spacing" textLength="52.7051" x="407" y="418.9951">Id: uuid</text><line style="stroke:#181818;stroke-width:1;" x1="388" x2="594.041" y1="426.2969" y2="426.2969"/><text fill="#000000" font-family="sans-serif" font-size="14" lengthAdjust="spacing" textLength="67.4775" x="407" y="443.292">Title: text</text><text fill="#000000" font-family="sans-serif" font-size="14" lengthAdjust="spacing" textLength="116.7783" x="407" y="459.5889">Description: text</text><ellipse cx="398" cy="472.5391" fill="#000000" rx="3" ry="3" style="stroke:#000000;stroke-width:1;"/><text fill="#000000" font-family="sans-serif" font-size="14" lengthAdjust="spacing" textLength="170.3994" x="407" y="475.8857">Type: ConversationType</text><text fill="#000000" font-family="sans-serif" font-size="14" lengthAdjust="spacing" textLength="182.041" x="407" y="492.1826">LastMessageId: uuid &#171;FK&#187;</text></g><!--class Participant--><g class="entity" data-entity="Participant" data-source-line="49" data-uid="ent0008" id="entity_Participant"><rect fill="#F1F1F1" height="129.4844" rx="2.5" ry="2.5" style="stroke:#181818;stroke-width:0.5;" width="210.0781" x="166" y="172.5"/><ellipse cx="229.0034" cy="188.5" fill="#ADD1B2" rx="11" ry="11" style="stroke:#181818;stroke-width:1;"/><path d="M233.1128,194.5 L225.394,194.5 L225.394,182.1094 L233.1128,182.1094 L233.1128,184.2656 L227.8472,184.2656 L227.8472,186.9375 L232.6128,186.9375 L232.6128,189.0938 L227.8472,189.0938 L227.8472,192.3438 L233.1128,192.3438 L233.1128,194.5 Z " fill="#000000"/><text fill="#000000" font-family="sans-serif" font-size="14" lengthAdjust="spacing" textLength="75.5713" x="249.5034" y="193.3467">Participant</text><line style="stroke:#181818;stroke-width:0.5;" x1="167" x2="375.0781" y1="204.5" y2="204.5"/><ellipse cx="177" cy="218.1484" fill="#000000" rx="3" ry="3" style="stroke:#000000;stroke-width:1;"/><text fill="#000000" font-family="sans-serif" font-size="14" lengthAdjust="spacing" textLength="52.7051" x="186" y="221.4951">Id: uuid</text><line style="stroke:#181818;stroke-width:1;" x1="167" x2="375.0781" y1="228.7969" y2="228.7969"/><ellipse cx="177" cy="242.4453" fill="#000000" rx="3" ry="3" style="stroke:#000000;stroke-width:1;"/><text fill="#000000" font-family="sans-serif" font-size="14" lengthAdjust="spacing" textLength="123.4297" x="186" y="245.792">UserId: uuid &#171;FK&#187;</text><ellipse cx="177" cy="258.7422" fill="#000000" rx="3" ry="3" style="stroke:#000000;stroke-width:1;"/><text fill="#000000" font-family="sans-serif" font-size="14" lengthAdjust="spacing" textLength="184.0781" x="186" y="262.0889">ConversationId: uuid &#171;FK&#187;</text><ellipse cx="177" cy="275.0391" fill="#000000" rx="3" ry="3" style="stroke:#000000;stroke-width:1;"/><text fill="#000000" font-family="sans-serif" font-size="14" lengthAdjust="spacing" textLength="146.3301" x="186" y="278.3857">Role: ParticipantRole</text><ellipse cx="177" cy="291.3359" fill="#000000" rx="3" ry="3" style="stroke:#000000;stroke-width:1;"/><text fill="#000000" font-family="sans-serif" font-size="14" lengthAdjust="spacing" textLength="153.8223" x="186" y="294.6826">JoinedAtUtc: datetime</text></g><!--class Message--><g class="entity" data-entity="Message" data-source-line="58" data-uid="ent0009" id="entity_Message"><rect fill="#F1F1F1" height="162.0781" rx="2.5" ry="2.5" style="stroke:#181818;stroke-width:0.5;" width="210.0781" x="444" y="559"/><ellipse cx="514.1094" cy="575" fill="#ADD1B2" rx="11" ry="11" style="stroke:#181818;stroke-width:1;"/><path d="M518.2188,581 L510.5,581 L510.5,568.6094 L518.2188,568.6094 L518.2188,570.7656 L512.9531,570.7656 L512.9531,573.4375 L517.7188,573.4375 L517.7188,575.5938 L512.9531,575.5938 L512.9531,578.8438 L518.2188,578.8438 L518.2188,581 Z " fill="#000000"/><text fill="#000000" font-family="sans-serif" font-size="14" lengthAdjust="spacing" textLength="61.3594" x="534.6094" y="579.8467">Message</text><line style="stroke:#181818;stroke-width:0.5;" x1="445" x2="653.0781" y1="591" y2="591"/><ellipse cx="455" cy="604.6484" fill="#000000" rx="3" ry="3" style="stroke:#000000;stroke-width:1;"/><text fill="#000000" font-family="sans-serif" font-size="14" lengthAdjust="spacing" textLength="52.7051" x="464" y="607.9951">Id: uuid</text><line style="stroke:#181818;stroke-width:1;" x1="445" x2="653.0781" y1="615.2969" y2="615.2969"/><ellipse cx="455" cy="628.9453" fill="#000000" rx="3" ry="3" style="stroke:#000000;stroke-width:1;"/><text fill="#000000" font-family="sans-serif" font-size="14" lengthAdjust="spacing" textLength="184.0781" x="464" y="632.292">ConversationId: uuid &#171;FK&#187;</text><ellipse cx="455" cy="645.2422" fill="#000000" rx="3" ry="3" style="stroke:#000000;stroke-width:1;"/><text fill="#000000" font-family="sans-serif" font-size="14" lengthAdjust="spacing" textLength="123.4297" x="464" y="648.5889">UserId: uuid &#171;FK&#187;</text><ellipse cx="455" cy="661.5391" fill="#000000" rx="3" ry="3" style="stroke:#000000;stroke-width:1;"/><text fill="#000000" font-family="sans-serif" font-size="14" lengthAdjust="spacing" textLength="65.7686" x="464" y="664.8857">Seq: long</text><text fill="#000000" font-family="sans-serif" font-size="14" lengthAdjust="spacing" textLength="72.3857" x="464" y="681.1826">Body: text</text><ellipse cx="455" cy="694.1328" fill="#000000" rx="3" ry="3" style="stroke:#000000;stroke-width:1;"/><text fill="#000000" font-family="sans-serif" font-size="14" lengthAdjust="spacing" textLength="95.1084" x="464" y="697.4795">IsEdited: bool</text><ellipse cx="455" cy="710.4297" fill="#000000" rx="3" ry="3" style="stroke:#000000;stroke-width:1;"/><text fill="#000000" font-family="sans-serif" font-size="14" lengthAdjust="spacing" textLength="166.5781" x="464" y="713.7764">CreatedAtUtc: datetime</text></g><!--class MessagesAttachments--><g class="entity" data-entity="MessagesAttachments" data-source-line="69" data-uid="ent0010" id="entity_MessagesAttachments"><rect fill="#F1F1F1" height="80.5938" rx="2.5" ry="2.5" style="stroke:#181818;stroke-width:0.5;" width="190.2656" x="611" y="821.5"/><ellipse cx="626" cy="837.5" fill="#ADD1B2" rx="11" ry="11" style="stroke:#181818;stroke-width:1;"/><path d="M630.1094,843.5 L622.3906,843.5 L622.3906,831.1094 L630.1094,831.1094 L630.1094,833.2656 L624.8438,833.2656 L624.8438,835.9375 L629.6094,835.9375 L629.6094,838.0938 L624.8438,838.0938 L624.8438,841.3438 L630.1094,841.3438 L630.1094,843.5 Z " fill="#000000"/><text fill="#000000" font-family="sans-serif" font-size="14" lengthAdjust="spacing" textLength="158.2656" x="640" y="842.3467">MessagesAttachments</text><line style="stroke:#181818;stroke-width:0.5;" x1="612" x2="800.2656" y1="853.5" y2="853.5"/><text fill="#000000" font-family="sans-serif" font-size="14" lengthAdjust="spacing" textLength="152.8789" x="617" y="870.4951">MessageId: uuid &#171;FK&#187;</text><text fill="#000000" font-family="sans-serif" font-size="14" lengthAdjust="spacing" textLength="173.8379" x="617" y="886.792">AttachmentId: uuid &#171;FK&#187;</text><line style="stroke:#181818;stroke-width:1;" x1="612" x2="800.2656" y1="894.0938" y2="894.0938"/></g><!--class LastReadMessage--><g class="entity" data-entity="LastReadMessage" data-source-line="76" data-uid="ent0011" id="entity_LastReadMessage"><rect fill="#F1F1F1" height="113.1875" rx="2.5" ry="2.5" style="stroke:#181818;stroke-width:0.5;" width="221.46" x="605.5" y="180.5"/><ellipse cx="648.9093" cy="196.5" fill="#ADD1B2" rx="11" ry="11" style="stroke:#181818;stroke-width:1;"/><path d="M653.0187,202.5 L645.3,202.5 L645.3,190.1094 L653.0187,190.1094 L653.0187,192.2656 L647.7531,192.2656 L647.7531,194.9375 L652.5187,194.9375 L652.5187,197.0938 L647.7531,197.0938 L647.7531,200.3438 L653.0187,200.3438 L653.0187,202.5 Z " fill="#000000"/><text fill="#000000" font-family="sans-serif" font-size="14" lengthAdjust="spacing" textLength="126.3281" x="669.2225" y="201.3467">LastReadMessage</text><line style="stroke:#181818;stroke-width:0.5;" x1="606.5" x2="825.96" y1="212.5" y2="212.5"/><ellipse cx="616.5" cy="226.1484" fill="#000000" rx="3" ry="3" style="stroke:#000000;stroke-width:1;"/><text fill="#000000" font-family="sans-serif" font-size="14" lengthAdjust="spacing" textLength="123.4297" x="625.5" y="229.4951">UserId: uuid &#171;FK&#187;</text><ellipse cx="616.5" cy="242.4453" fill="#000000" rx="3" ry="3" style="stroke:#000000;stroke-width:1;"/><text fill="#000000" font-family="sans-serif" font-size="14" lengthAdjust="spacing" textLength="184.0781" x="625.5" y="245.792">ConversationId: uuid &#171;FK&#187;</text><ellipse cx="616.5" cy="258.7422" fill="#000000" rx="3" ry="3" style="stroke:#000000;stroke-width:1;"/><text fill="#000000" font-family="sans-serif" font-size="14" lengthAdjust="spacing" textLength="152.8789" x="625.5" y="262.0889">MessageId: uuid &#171;FK&#187;</text><line style="stroke:#181818;stroke-width:1;" x1="606.5" x2="825.96" y1="269.3906" y2="269.3906"/><ellipse cx="616.5" cy="283.0391" fill="#000000" rx="3" ry="3" style="stroke:#000000;stroke-width:1;"/><text fill="#000000" font-family="sans-serif" font-size="14" lengthAdjust="spacing" textLength="195.46" x="625.5" y="286.3857">LastReadTimeUtc: datetime</text></g><!--class MessageReaction--><g class="entity" data-entity="MessageReaction" data-source-line="84" data-uid="ent0012" id="entity_MessageReaction"><rect fill="#F1F1F1" height="113.1875" rx="2.5" ry="2.5" style="stroke:#181818;stroke-width:0.5;" width="219.5732" x="132" y="378"/><ellipse cx="176.1507" cy="394" fill="#ADD1B2" rx="11" ry="11" style="stroke:#181818;stroke-width:1;"/><path d="M180.2601,400 L172.5413,400 L172.5413,387.6094 L180.2601,387.6094 L180.2601,389.7656 L174.9944,389.7656 L174.9944,392.4375 L179.7601,392.4375 L179.7601,394.5938 L174.9944,394.5938 L174.9944,397.8438 L180.2601,397.8438 L180.2601,400 Z " fill="#000000"/><text fill="#000000" font-family="sans-serif" font-size="14" lengthAdjust="spacing" textLength="122.7939" x="196.6286" y="398.8467">MessageReaction</text><line style="stroke:#181818;stroke-width:0.5;" x1="133" x2="350.5732" y1="410" y2="410"/><ellipse cx="143" cy="423.6484" fill="#000000" rx="3" ry="3" style="stroke:#000000;stroke-width:1;"/><text fill="#000000" font-family="sans-serif" font-size="14" lengthAdjust="spacing" textLength="123.4297" x="152" y="426.9951">UserId: uuid &#171;FK&#187;</text><ellipse cx="143" cy="439.9453" fill="#000000" rx="3" ry="3" style="stroke:#000000;stroke-width:1;"/><text fill="#000000" font-family="sans-serif" font-size="14" lengthAdjust="spacing" textLength="152.8789" x="152" y="443.292">MessageId: uuid &#171;FK&#187;</text><line style="stroke:#181818;stroke-width:1;" x1="133" x2="350.5732" y1="450.5938" y2="450.5938"/><ellipse cx="143" cy="464.2422" fill="#000000" rx="3" ry="3" style="stroke:#000000;stroke-width:1;"/><text fill="#000000" font-family="sans-serif" font-size="14" lengthAdjust="spacing" textLength="193.5732" x="152" y="467.5889">EmotionType: EmotionType</text><ellipse cx="143" cy="480.5391" fill="#000000" rx="3" ry="3" style="stroke:#000000;stroke-width:1;"/><text fill="#000000" font-family="sans-serif" font-size="14" lengthAdjust="spacing" textLength="168.4717" x="152" y="483.8857">ReactedAtUtc: datetime</text></g><!--class Attachment--><g class="entity" data-entity="Attachment" data-source-line="92" data-uid="ent0013" id="entity_Attachment"><rect fill="#F1F1F1" height="96.8906" rx="2.5" ry="2.5" style="stroke:#181818;stroke-width:0.5;" width="182.7139" x="772.5" y="591.5"/><ellipse cx="818.4478" cy="607.5" fill="#ADD1B2" rx="11" ry="11" style="stroke:#181818;stroke-width:1;"/><path d="M822.5571,613.5 L814.8384,613.5 L814.8384,601.1094 L822.5571,601.1094 L822.5571,603.2656 L817.2915,603.2656 L817.2915,605.9375 L822.0571,605.9375 L822.0571,608.0938 L817.2915,608.0938 L817.2915,611.3438 L822.5571,611.3438 L822.5571,613.5 Z " fill="#000000"/><text fill="#000000" font-family="sans-serif" font-size="14" lengthAdjust="spacing" textLength="82.3184" x="838.9478" y="612.3467">Attachment</text><line style="stroke:#181818;stroke-width:0.5;" x1="773.5" x2="954.2139" y1="623.5" y2="623.5"/><ellipse cx="783.5" cy="637.1484" fill="#000000" rx="3" ry="3" style="stroke:#000000;stroke-width:1;"/><text fill="#000000" font-family="sans-serif" font-size="14" lengthAdjust="spacing" textLength="13.0156" x="792.5" y="640.4951">Id</text><line style="stroke:#181818;stroke-width:1;" x1="773.5" x2="954.2139" y1="647.7969" y2="647.7969"/><ellipse cx="783.5" cy="661.4453" fill="#000000" rx="3" ry="3" style="stroke:#000000;stroke-width:1;"/><text fill="#000000" font-family="sans-serif" font-size="14" lengthAdjust="spacing" textLength="126.7314" x="792.5" y="664.792">FileType: FileType</text><ellipse cx="783.5" cy="677.7422" fill="#000000" rx="3" ry="3" style="stroke:#000000;stroke-width:1;"/><text fill="#000000" font-family="sans-serif" font-size="14" lengthAdjust="spacing" textLength="156.7139" x="792.5" y="681.0889">FileId: uuid &#171;FK to S3&#187;</text></g><!--class Photo--><g class="entity" data-entity="Photo" data-source-line="99" data-uid="ent0014" id="entity_Photo"><rect fill="#F1F1F1" height="96.8906" rx="2.5" ry="2.5" style="stroke:#181818;stroke-width:0.5;" width="192.5781" x="215.5" y="591.5"/><ellipse cx="287.5713" cy="607.5" fill="#ADD1B2" rx="11" ry="11" style="stroke:#181818;stroke-width:1;"/><path d="M291.6807,613.5 L283.9619,613.5 L283.9619,601.1094 L291.6807,601.1094 L291.6807,603.2656 L286.415,603.2656 L286.415,605.9375 L291.1807,605.9375 L291.1807,608.0938 L286.415,608.0938 L286.415,611.3438 L291.6807,611.3438 L291.6807,613.5 Z " fill="#000000"/><text fill="#000000" font-family="sans-serif" font-size="14" lengthAdjust="spacing" textLength="39.9355" x="308.0713" y="612.3467">Photo</text><line style="stroke:#181818;stroke-width:0.5;" x1="216.5" x2="407.0781" y1="623.5" y2="623.5"/><ellipse cx="226.5" cy="637.1484" fill="#000000" rx="3" ry="3" style="stroke:#000000;stroke-width:1;"/><text fill="#000000" font-family="sans-serif" font-size="14" lengthAdjust="spacing" textLength="156.7139" x="235.5" y="640.4951">FileId: uuid &#171;FK to S3&#187;</text><ellipse cx="226.5" cy="653.4453" fill="#000000" rx="3" ry="3" style="stroke:#000000;stroke-width:1;"/><text fill="#000000" font-family="sans-serif" font-size="14" lengthAdjust="spacing" textLength="123.4297" x="235.5" y="656.792">UserId: uuid &#171;FK&#187;</text><line style="stroke:#181818;stroke-width:1;" x1="216.5" x2="407.0781" y1="664.0938" y2="664.0938"/><ellipse cx="226.5" cy="677.7422" fill="#000000" rx="3" ry="3" style="stroke:#000000;stroke-width:1;"/><text fill="#000000" font-family="sans-serif" font-size="14" lengthAdjust="spacing" textLength="166.5781" x="235.5" y="681.0889">CreatedAtUtc: datetime</text></g><!--link ConversationType to Conversation--><g class="link" data-entity-1="ConversationType" data-entity-2="Conversation" data-source-line="107" data-uid="lnk15" id="link_ConversationType_Conversation"><path codeLine="107" d="M491,285.57 C491,310.89 491,342.37 491,369.77" fill="none" id="ConversationType-Conversation" style="stroke:#181818;stroke-width:1;stroke-dasharray:7,7;"/></g><!--link ParticipantRole to Participant--><g class="link" data-entity-1="ParticipantRole" data-entity-2="Participant" data-source-line="108" data-uid="lnk16" id="link_ParticipantRole_Participant"><path codeLine="108" d="M271,104.13 C271,125.01 271,149.82 271,172.25" fill="none" id="ParticipantRole-Participant" style="stroke:#181818;stroke-width:1;stroke-dasharray:7,7;"/></g><!--link EmotionType to MessageReaction--><g class="link" data-entity-1="EmotionType" data-entity-2="MessageReaction" data-source-line="109" data-uid="lnk17" id="link_EmotionType_MessageReaction"><path codeLine="109" d="M131.21,308.3 C151.46,331.18 173.64,356.24 192.79,377.89" fill="none" id="EmotionType-MessageReaction" style="stroke:#181818;stroke-width:1;stroke-dasharray:7,7;"/></g><!--link FileType to Attachment--><g class="link" data-entity-1="FileType" data-entity-2="Attachment" data-source-line="110" data-uid="lnk18" id="link_FileType_Attachment"><path codeLine="110" d="M864,491.11 C864,522.53 864,561.4 864,591.4" fill="none" id="FileType-Attachment" style="stroke:#181818;stroke-width:1;stroke-dasharray:7,7;"/></g><!--link Participant to User--><g class="link" data-entity-1="Participant" data-entity-2="User" data-source-line="112" data-uid="lnk19" id="link_Participant_User"><path codeLine="112" d="M155.0536,313.471 C132.9936,332.511 126.25,343.69 114,370 C89.8,421.97 105.86,442.25 114,499 C128.59,600.77 127.71,631.9 179,721 C191.13,742.07 201.6863,756.4944 218.2863,774.8644" fill="none" id="Participant-User" style="stroke:#181818;stroke-width:1;"/><line style="stroke:#181818;stroke-width:1;" x1="162.6238" x2="164.7597" y1="306.9371" y2="297.1679"/><line style="stroke:#181818;stroke-width:1;" x1="162.6238" x2="172.6003" y1="306.9371" y2="306.2521"/><line style="stroke:#181818;stroke-width:1;" x1="162.6238" x2="168.68" y1="306.9371" y2="301.71"/><ellipse cx="158.0817" cy="310.8574" fill="none" rx="4" ry="4" style="stroke:#181818;stroke-width:1;"/><line style="stroke:#181818;stroke-width:1;" x1="223.936" x2="218.0004" y1="775.1504" y2="780.514"/><line style="stroke:#181818;stroke-width:1;" x1="221.9246" x2="215.989" y1="772.9245" y2="778.2882"/><line style="stroke:#181818;stroke-width:1;" x1="218.2863" x2="223.65" y1="774.8644" y2="780.8"/></g><!--link Participant to Conversation--><g class="link" data-entity-1="Participant" data-entity-2="Conversation" data-source-line="113" data-uid="lnk20" id="link_Participant_Conversation"><path codeLine="113" d="M356.1858,313.6958 C380.7658,335.5358 388.8195,342.6964 413.3895,364.5264" fill="none" id="Participant-Conversation" style="stroke:#181818;stroke-width:1;"/><line style="stroke:#181818;stroke-width:1;" x1="348.7103" x2="338.7447" y1="307.0537" y2="306.2253"/><line style="stroke:#181818;stroke-width:1;" x1="348.7103" x2="346.7153" y1="307.0537" y2="297.2547"/><line style="stroke:#181818;stroke-width:1;" x1="348.7103" x2="342.73" y1="307.0537" y2="301.74"/><ellipse cx="353.1956" cy="311.039" fill="none" rx="4" ry="4" style="stroke:#181818;stroke-width:1;"/><line style="stroke:#181818;stroke-width:1;" x1="419.0365" x2="413.723" y1="364.193" y2="370.1735"/><line style="stroke:#181818;stroke-width:1;" x1="416.7939" x2="411.4803" y1="362.2004" y2="368.1809"/><line style="stroke:#181818;stroke-width:1;" x1="413.3895" x2="419.37" y1="364.5264" y2="369.84"/></g><!--link Message to User--><g class="link" data-entity-1="Message" data-entity-2="User" data-source-line="115" data-uid="lnk21" id="link_Message_User"><path codeLine="115" d="M449.5777,733.2959 C428.6677,752.7059 425.3531,755.7773 404.4331,775.1973" fill="none" id="Message-User" style="stroke:#181818;stroke-width:1;"/><line style="stroke:#181818;stroke-width:1;" x1="456.9068" x2="458.688" y1="726.4926" y2="716.6526"/><line style="stroke:#181818;stroke-width:1;" x1="456.9068" x2="466.852" y1="726.4926" y2="725.4474"/><line style="stroke:#181818;stroke-width:1;" x1="456.9068" x2="462.77" y1="726.4926" y2="721.05"/><ellipse cx="452.5093" cy="730.5746" fill="none" rx="4" ry="4" style="stroke:#181818;stroke-width:1;"/><line style="stroke:#181818;stroke-width:1;" x1="404.2229" x2="398.7802" y1="780.8502" y2="774.9871"/><line style="stroke:#181818;stroke-width:1;" x1="406.4216" x2="400.9789" y1="778.8092" y2="772.946"/><line style="stroke:#181818;stroke-width:1;" x1="404.4331" x2="398.57" y1="775.1973" y2="780.64"/></g><!--link Message to Conversation--><g class="link" data-entity-1="Message" data-entity-2="Conversation" data-source-line="116" data-uid="lnk22" id="link_Message_Conversation"><path codeLine="116" d="M534.8193,541.2769 C529.6793,521.4669 530.561,525.5291 524.261,506.6391" fill="none" id="Message-Conversation" style="stroke:#181818;stroke-width:1;"/><line style="stroke:#181818;stroke-width:1;" x1="537.3308" x2="545.1477" y1="550.9564" y2="557.1931"/><line style="stroke:#181818;stroke-width:1;" x1="537.3308" x2="533.5323" y1="550.9564" y2="560.2069"/><line style="stroke:#181818;stroke-width:1;" x1="537.3308" x2="539.34" y1="550.9564" y2="558.7"/><ellipse cx="535.8239" cy="545.1487" fill="none" rx="4" ry="4" style="stroke:#181818;stroke-width:1;"/><line style="stroke:#181818;stroke-width:1;" x1="519.201" x2="526.79" y1="504.11" y2="501.579"/><line style="stroke:#181818;stroke-width:1;" x1="520.1501" x2="527.7392" y1="506.9559" y2="504.4249"/><line style="stroke:#181818;stroke-width:1;" x1="524.261" x2="521.73" y1="506.6391" y2="499.05"/></g><!--link Conversation to Message--><g class="link" data-entity-1="Conversation" data-entity-2="Message" data-source-line="118" data-uid="lnk23" id="link_Conversation_Message"><path codeLine="118" d="M499.0617,506.8304 C503.5817,525.7204 502.1869,521.692 508.3069,541.502" fill="none" id="Conversation-Message" style="stroke:#181818;stroke-width:1;"/><line style="stroke:#181818;stroke-width:1;" x1="494.2407" x2="502.021" y1="503.871" y2="502.0093"/><line style="stroke:#181818;stroke-width:1;" x1="494.9388" x2="502.7192" y1="506.7887" y2="504.927"/><line style="stroke:#181818;stroke-width:1;" x1="499.0617" x2="497.2" y1="506.8304" y2="499.05"/><line style="stroke:#181818;stroke-width:1;" x1="511.2586" x2="519.3527" y1="551.0564" y2="556.929"/><line style="stroke:#181818;stroke-width:1;" x1="511.2586" x2="507.8873" y1="551.0564" y2="560.471"/><line style="stroke:#181818;stroke-width:1;" x1="511.2586" x2="513.62" y1="551.0564" y2="558.7"/><ellipse cx="509.4876" cy="545.3238" fill="none" rx="4" ry="4" style="stroke:#181818;stroke-width:1;"/></g><!--link LastReadMessage to User--><g class="link" data-entity-1="LastReadMessage" data-entity-2="User" data-source-line="120" data-uid="lnk24" id="link_LastReadMessage_User"><path codeLine="120" d="M731.4607,311.514 C749.3407,408.894 767.72,593.87 672,721 C639.93,763.59 516.5237,805.0876 421.7737,832.0876" fill="none" id="LastReadMessage-User" style="stroke:#181818;stroke-width:1;"/><line style="stroke:#181818;stroke-width:1;" x1="729.6547" x2="722.3087" y1="301.6785" y2="294.8936"/><line style="stroke:#181818;stroke-width:1;" x1="729.6547" x2="734.1113" y1="301.6785" y2="292.7264"/><line style="stroke:#181818;stroke-width:1;" x1="729.6547" x2="728.21" y1="301.6785" y2="293.81"/><ellipse cx="730.7383" cy="307.5798" fill="none" rx="4" ry="4" style="stroke:#181818;stroke-width:1;"/><line style="stroke:#181818;stroke-width:1;" x1="419.0231" x2="416.8307" y1="837.0307" y2="829.3369"/><line style="stroke:#181818;stroke-width:1;" x1="421.9082" x2="419.7158" y1="836.2085" y2="828.5148"/><line style="stroke:#181818;stroke-width:1;" x1="421.7737" x2="414.08" y1="832.0876" y2="834.28"/></g><!--link LastReadMessage to Conversation--><g class="link" data-entity-1="LastReadMessage" data-entity-2="Conversation" data-source-line="121" data-uid="lnk25" id="link_LastReadMessage_Conversation"><path codeLine="121" d="M638.2417,305.565 C610.9617,329.265 598.629,339.9831 570.419,364.4931" fill="none" id="LastReadMessage-Conversation" style="stroke:#181818;stroke-width:1;"/><line style="stroke:#181818;stroke-width:1;" x1="645.7908" x2="647.895" y1="299.0067" y2="289.2306"/><line style="stroke:#181818;stroke-width:1;" x1="645.7908" x2="655.765" y1="299.0067" y2="298.2894"/><line style="stroke:#181818;stroke-width:1;" x1="645.7908" x2="651.83" y1="299.0067" y2="293.76"/><ellipse cx="641.2614" cy="302.9417" fill="none" rx="4" ry="4" style="stroke:#181818;stroke-width:1;"/><line style="stroke:#181818;stroke-width:1;" x1="570.023" x2="564.776" y1="370.136" y2="364.097"/><line style="stroke:#181818;stroke-width:1;" x1="572.2876" x2="567.0407" y1="368.1684" y2="362.1294"/><line style="stroke:#181818;stroke-width:1;" x1="570.419" x2="564.38" y1="364.4931" y2="369.74"/></g><!--link LastReadMessage to Message--><g class="link" data-entity-1="LastReadMessage" data-entity-2="Message" data-source-line="122" data-uid="lnk26" id="link_LastReadMessage_Message"><path codeLine="122" d="M688.6268,310.4088 C668.3868,363.4888 642.9,428.74 613,499 C604.68,518.55 598.6791,532.181 589.7691,551.721" fill="none" id="LastReadMessage-Message" style="stroke:#181818;stroke-width:1;"/><line style="stroke:#181818;stroke-width:1;" x1="692.1897" x2="689.4337" y1="301.065" y2="291.4523"/><line style="stroke:#181818;stroke-width:1;" x1="692.1897" x2="700.6463" y1="301.065" y2="295.7277"/><line style="stroke:#181818;stroke-width:1;" x1="692.1897" x2="695.04" y1="301.065" y2="293.59"/><ellipse cx="690.052" cy="306.6713" fill="none" rx="4" ry="4" style="stroke:#181818;stroke-width:1;"/><line style="stroke:#181818;stroke-width:1;" x1="591.749" x2="584.4701" y1="557.0201" y2="553.701"/><line style="stroke:#181818;stroke-width:1;" x1="592.9937" x2="585.7147" y1="554.2905" y2="550.9713"/><line style="stroke:#181818;stroke-width:1;" x1="589.7691" x2="586.45" y1="551.721" y2="559"/></g><!--link MessageReaction to User--><g class="link" data-entity-1="MessageReaction" data-entity-2="User" data-source-line="124" data-uid="lnk27" id="link_MessageReaction_User"><path codeLine="124" d="M211.4377,508.0669 C189.4677,566.7369 170.69,644.22 198,721 C205.56,742.26 213.0727,756.253 226.8827,774.563" fill="none" id="MessageReaction-User" style="stroke:#181818;stroke-width:1;"/><line style="stroke:#181818;stroke-width:1;" x1="214.9445" x2="212.131" y1="498.7019" y2="489.1059"/><line style="stroke:#181818;stroke-width:1;" x1="214.9445" x2="223.369" y1="498.7019" y2="493.3141"/><line style="stroke:#181818;stroke-width:1;" x1="214.9445" x2="217.75" y1="498.7019" y2="491.21"/><ellipse cx="212.8404" cy="504.3209" fill="none" rx="4" ry="4" style="stroke:#181818;stroke-width:1;"/><line style="stroke:#181818;stroke-width:1;" x1="232.4849" x2="226.0979" y1="775.3479" y2="780.1651"/><line style="stroke:#181818;stroke-width:1;" x1="230.6784" x2="224.2914" y1="772.9527" y2="777.77"/><line style="stroke:#181818;stroke-width:1;" x1="226.8827" x2="231.7" y1="774.563" y2="780.95"/></g><!--link MessageReaction to Message--><g class="link" data-entity-1="MessageReaction" data-entity-2="Message" data-source-line="125" data-uid="lnk28" id="link_MessageReaction_Message"><path codeLine="125" d="M340.8935,501.0546 C377.2835,525.1746 398.6319,539.33 437.1319,564.85" fill="none" id="MessageReaction-Message" style="stroke:#181818;stroke-width:1;"/><line style="stroke:#181818;stroke-width:1;" x1="332.5582" x2="322.5751" y1="495.5298" y2="496.1112"/><line style="stroke:#181818;stroke-width:1;" x1="332.5582" x2="329.2049" y1="495.5298" y2="486.1088"/><line style="stroke:#181818;stroke-width:1;" x1="332.5582" x2="325.89" y1="495.5298" y2="491.11"/><ellipse cx="337.5594" cy="498.8447" fill="none" rx="4" ry="4" style="stroke:#181818;stroke-width:1;"/><line style="stroke:#181818;stroke-width:1;" x1="442.6759" x2="438.2559" y1="563.7259" y2="570.3941"/><line style="stroke:#181818;stroke-width:1;" x1="440.1754" x2="435.7554" y1="562.0684" y2="568.7366"/><line style="stroke:#181818;stroke-width:1;" x1="437.1319" x2="443.8" y1="564.85" y2="569.27"/></g><!--link Attachment to MessagesAttachments--><g class="link" data-entity-1="Attachment" data-entity-2="MessagesAttachments" data-source-line="127" data-uid="lnk29" id="link_Attachment_MessagesAttachments"><path codeLine="127" d="M819.2194,703.3598 C790.7194,743.0398 765.8066,777.7221 739.0766,814.9421" fill="none" id="Attachment-MessagesAttachments" style="stroke:#181818;stroke-width:1;"/><line style="stroke:#181818;stroke-width:1;" x1="825.0531" x2="824.8467" y1="695.2377" y2="685.2398"/><line style="stroke:#181818;stroke-width:1;" x1="825.0531" x2="834.5933" y1="695.2377" y2="692.2402"/><line style="stroke:#181818;stroke-width:1;" x1="825.0531" x2="829.72" y1="695.2377" y2="688.74"/><ellipse cx="821.5529" cy="700.1109" fill="none" rx="4" ry="4" style="stroke:#181818;stroke-width:1;"/><line style="stroke:#181818;stroke-width:1;" x1="739.9923" x2="733.4943" y1="820.5243" y2="815.8577"/><line style="stroke:#181818;stroke-width:1;" x1="741.7422" x2="735.2443" y1="818.0876" y2="813.421"/><line style="stroke:#181818;stroke-width:1;" x1="739.0766" x2="734.41" y1="814.9421" y2="821.44"/></g><!--link Message to MessagesAttachments--><g class="link" data-entity-1="Message" data-entity-2="MessagesAttachments" data-source-line="128" data-uid="lnk30" id="link_Message_MessagesAttachments"><path codeLine="128" d="M616.5786,735.6998 C640.9586,769.8498 653.2019,787.0189 673.1119,814.9089" fill="none" id="Message-MessagesAttachments" style="stroke:#181818;stroke-width:1;"/><line style="stroke:#181818;stroke-width:1;" x1="610.7683" x2="601.2367" y1="727.561" y2="724.5362"/><line style="stroke:#181818;stroke-width:1;" x1="610.7683" x2="611.0033" y1="727.561" y2="717.5638"/><line style="stroke:#181818;stroke-width:1;" x1="610.7683" x2="606.12" y1="727.561" y2="721.05"/><ellipse cx="614.2545" cy="732.4443" fill="none" rx="4" ry="4" style="stroke:#181818;stroke-width:1;"/><line style="stroke:#181818;stroke-width:1;" x1="678.6915" x2="672.1804" y1="815.8404" y2="820.4885"/><line style="stroke:#181818;stroke-width:1;" x1="676.9484" x2="670.4373" y1="813.3987" y2="818.0468"/><line style="stroke:#181818;stroke-width:1;" x1="673.1119" x2="677.76" y1="814.9089" y2="821.42"/></g><!--link Photo to User--><g class="link" data-entity-1="Photo" data-entity-2="User" data-source-line="130" data-uid="lnk31" id="link_Photo_User"><path codeLine="130" d="M312,706.74 C312,733.65 312,741.99 312,772.91" fill="none" id="Photo-User" style="stroke:#181818;stroke-width:1;"/><line style="stroke:#181818;stroke-width:1;" x1="312" x2="306" y1="696.74" y2="688.74"/><line style="stroke:#181818;stroke-width:1;" x1="312" x2="318" y1="696.74" y2="688.74"/><line style="stroke:#181818;stroke-width:1;" x1="312" x2="312" y1="696.74" y2="688.74"/><ellipse cx="312" cy="702.74" fill="none" rx="4" ry="4" style="stroke:#181818;stroke-width:1;"/><line style="stroke:#181818;stroke-width:1;" x1="316" x2="308" y1="776.91" y2="776.91"/><line style="stroke:#181818;stroke-width:1;" x1="316" x2="308" y1="773.91" y2="773.91"/><line style="stroke:#181818;stroke-width:1;" x1="312" x2="312" y1="772.91" y2="780.91"/></g><!--SRC=[pLZTZjD66BttKymTKgH0wSAD1KXX5qeB24GMxaqysan9FDju0gnsaMWN5LK58I7k4BIg-W1kjYdPx2QymlYDUcRi-3V-sHyad8krP-npllc-CsTcbZh3FbdbpcCwS2t1kBE-jKd9ja5mhR41xOZRr7Mj3UgIo-GRtVpTW0ytyNHUFwrsBSUXFJn_Qpmp3Ahmxbe3mJfiqtB4FTvRmDrvuj11XDAo-yo9K6xJ_aFT6ODSw_DCFEq-0zW2u0O5ImHmYpsY-lCWSBSNFAy4hrgExNOjtN8XYEKHRYz6NDS1d22ws-M2HqGFc4rvHDGQsen7J7T4LuUz4a099hR8VHTD0L23V6-RP3XaDgcypft1oqH-bdDvuB-Id_1t93t_5pd6ynjovfn6R3P3OCNYM7rg4a6VYWfW-K5Ev5JEWBKl3oj96kIMvOfMHx376D1zqJ69RGagM9ykHN_hFmV08G0Kil-pFC3Zlm4TaPwSWc02efdgLFSr8bWTK53QBL5Eduj0t-p9YIB2lUV_2kg9ZW8_pz-LCv1v2w8rwdO6R5CfhJAJYkWZ8WSsu6R07LSEv2eRYEuQegySHe3_JaDuQXXp-H-IE5P4OMRBCzQcGZ1dmpN9ZovtgXJn7gWlaOlVrI1cm0loDOT0fXK5YgMUD8vZIrvL2JHxccYkdZ9YNsUYLqFd2R5xgCsXJfqEFgnLCT59LL2Ct23ALyoynHOW_mMypoLuQcA6ZXpb-TAbwpUlN2bpbDIK12f1mno_V_pVOe6DyhJZTBaJldxyQkz2TbfjEdVJGElb0WZShdAyHx3HHgeWvSXLAcqGjSYPkLMlgCH_1g4TBHCDyWDdJYq_p5hoI4_jNQJaeApOwLA76Zj-cVC2ozRqD2jm-lfeqvzCqkFEHYtB-KC5vB_139igGBZgFj7k0nT2QeyotVIgmUsjceONkiOOYopAN99trD2zPZEigIPvo7cl2lDloCMJUqWL8bFBwIvKfCGw2kAV8FJ0OpMH6l0eHu-LvEGhkiByXDHwuO2MZp6dNRSbXDNfzj7g6jlXDhEUSzRHSOnU3HUAReIKgbKzFoFYu9N1twEMdPs0NxS3raziRNjO968T8ZdH5bIjTrh4S_-bpaAnPC3NIUrbJZ_hNo1JYPEIcJesbUqmNcFopiFDSRoGgV4VTzEjzlaHNfpQU9ua5XDIyrfaLLbGuUG9G1TdE3C-pPKwfix22qIzhumkpe7wEbKTWhDWUsL9ZS82nHWmmFPAPikaZfB6TXLsiTmoQ-PI3rLykGtcsREf6MvajoVeJpGPITsWApCXZ2Ydw8ihQYHHoJFURExiw44iQqz5OopyBVbHfYtzGUgiiRFJRFBjHPI6aNND96f1Nmgzu9q8F-iFIwBEzaNV9YP0kYkrG2rdJhrY1F-NI73_3m00]--></g></svg>