<svg xmlns="http://www.w3.org/2000/svg" xmlns:xlink="http://www.w3.org/1999/xlink" contentStyleType="text/css" data-diagram-type="CLASS" height="967px" preserveAspectRatio="none" style="width:962px;height:967px;background:#FFFFFF;" version="1.1" viewBox="0 0 962 967" width="962px" zoomAndPan="magnify"><defs/><g><!--class ConversationType--><g class="entity" data-entity="ConversationType" data-source-line="1" data-uid="ent0002" id="entity_ConversationType"><rect fill="#F1F1F1" height="96.8906" rx="2.5" ry="2.5" style="stroke:#181818;stroke-width:0.5;" width="158.8955" x="411.5" y="188.5"/><ellipse cx="426.5" cy="204.5" fill="#EB937F" rx="11" ry="11" style="stroke:#181818;stroke-width:1;"/><path d="M430.6094,210.5 L422.8906,210.5 L422.8906,198.1094 L430.6094,198.1094 L430.6094,200.2656 L425.3438,200.2656 L425.3438,202.9375 L430.1094,202.9375 L430.1094,205.0938 L425.3438,205.0938 L425.3438,208.3438 L430.6094,208.3438 L430.6094,210.5 Z " fill="#000000"/><text fill="#000000" font-family="sans-serif" font-size="14" lengthAdjust="spacing" textLength="126.8955" x="440.5" y="209.3467">ConversationType</text><line style="stroke:#181818;stroke-width:0.5;" x1="412.5" x2="569.3955" y1="220.5" y2="220.5"/><text fill="#000000" font-family="sans-serif" font-size="14" lengthAdjust="spacing" textLength="140.417" x="417.5" y="237.4951">DirectMessages = 0</text><text fill="#000000" font-family="sans-serif" font-size="14" lengthAdjust="spacing" textLength="72.4678" x="417.5" y="253.792">Group = 1</text><text fill="#000000" font-family="sans-serif" font-size="14" lengthAdjust="spacing" textLength="87.0146" x="417.5" y="270.0889">Channel = 2</text><line style="stroke:#181818;stroke-width:0.5;" x1="412.5" x2="569.3955" y1="277.3906" y2="277.3906"/></g><!--class ParticipantRole--><g class="entity" data-entity="ParticipantRole" data-source-line="7" data-uid="ent0003" id="entity_ParticipantRole"><rect fill="#F1F1F1" height="96.8906" rx="2.5" ry="2.5" style="stroke:#181818;stroke-width:0.5;" width="138.3672" x="202" y="7"/><ellipse cx="217" cy="23" fill="#EB937F" rx="11" ry="11" style="stroke:#181818;stroke-width:1;"/><path d="M221.1094,29 L213.3906,29 L213.3906,16.6094 L221.1094,16.6094 L221.1094,18.7656 L215.8438,18.7656 L215.8438,21.4375 L220.6094,21.4375 L220.6094,23.5938 L215.8438,23.5938 L215.8438,26.8438 L221.1094,26.8438 L221.1094,29 Z " fill="#000000"/><text fill="#000000" font-family="sans-serif" font-size="14" lengthAdjust="spacing" textLength="106.3672" x="231" y="27.8467">ParticipantRole</text><line style="stroke:#181818;stroke-width:0.5;" x1="203" x2="339.3672" y1="39" y2="39"/><text fill="#000000" font-family="sans-serif" font-size="14" lengthAdjust="spacing" textLength="75.25" x="208" y="55.9951">Owner = 0</text><text fill="#000000" font-family="sans-serif" font-size="14" lengthAdjust="spacing" textLength="74.4023" x="208" y="72.292">Admin = 1</text><text fill="#000000" font-family="sans-serif" font-size="14" lengthAdjust="spacing" textLength="87.124" x="208" y="88.5889">Member = 2</text><line style="stroke:#181818;stroke-width:0.5;" x1="203" x2="339.3672" y1="95.8906" y2="95.8906"/></g><!--class EmotionType--><g class="entity" data-entity="EmotionType" data-source-line="13" data-uid="ent0004" id="entity_EmotionType"><rect fill="#F1F1F1" height="145.7813" rx="2.5" ry="2.5" style="stroke:#181818;stroke-width:0.5;" width="124.2031" x="7" y="164"/><ellipse cx="22" cy="180" fill="#EB937F" rx="11" ry="11" style="stroke:#181818;stroke-width:1;"/><path d="M26.1094,186 L18.3906,186 L18.3906,173.6094 L26.1094,173.6094 L26.1094,175.7656 L20.8438,175.7656 L20.8438,178.4375 L25.6094,178.4375 L25.6094,180.5938 L20.8438,180.5938 L20.8438,183.8438 L26.1094,183.8438 L26.1094,186 Z " fill="#000000"/><text fill="#000000" font-family="sans-serif" font-size="14" lengthAdjust="spacing" textLength="92.2031" x="36" y="184.8467">EmotionType</text><line style="stroke:#181818;stroke-width:0.5;" x1="8" x2="130.2031" y1="196" y2="196"/><text fill="#000000" font-family="sans-serif" font-size="14" lengthAdjust="spacing" textLength="68.4551" x="13" y="212.9951">Smile = 0</text><text fill="#000000" font-family="sans-serif" font-size="14" lengthAdjust="spacing" textLength="68.5029" x="13" y="229.292">Heart = 1</text><text fill="#000000" font-family="sans-serif" font-size="14" lengthAdjust="spacing" textLength="57.9482" x="13" y="245.5889">Like = 2</text><text fill="#000000" font-family="sans-serif" font-size="14" lengthAdjust="spacing" textLength="76.002" x="13" y="261.8857">Dislike = 3</text><text fill="#000000" font-family="sans-serif" font-size="14" lengthAdjust="spacing" textLength="107.8711" x="13" y="278.1826">Handshake = 4</text><text fill="#000000" font-family="sans-serif" font-size="14" lengthAdjust="spacing" textLength="48.665" x="13" y="294.4795">Ok = 5</text><line style="stroke:#181818;stroke-width:0.5;" x1="8" x2="130.2031" y1="301.7813" y2="301.7813"/></g><!--class FileType--><g class="entity" data-entity="FileType" data-source-line="22" data-uid="ent0005" id="entity_FileType"><rect fill="#F1F1F1" height="113.1875" rx="2.5" ry="2.5" style="stroke:#181818;stroke-width:0.5;" width="90.7822" x="818.5" y="386.5"/><ellipse cx="833.5" cy="402.5" fill="#EB937F" rx="11" ry="11" style="stroke:#181818;stroke-width:1;"/><path d="M837.6094,408.5 L829.8906,408.5 L829.8906,396.1094 L837.6094,396.1094 L837.6094,398.2656 L832.3438,398.2656 L832.3438,400.9375 L837.1094,400.9375 L837.1094,403.0938 L832.3438,403.0938 L832.3438,406.3438 L837.6094,406.3438 L837.6094,408.5 Z " fill="#000000"/><text fill="#000000" font-family="sans-serif" font-size="14" lengthAdjust="spacing" textLength="58.7822" x="847.5" y="407.3467">FileType</text><line style="stroke:#181818;stroke-width:0.5;" x1="819.5" x2="908.2822" y1="418.5" y2="418.5"/><text fill="#000000" font-family="sans-serif" font-size="14" lengthAdjust="spacing" textLength="69.4736" x="824.5" y="435.4951">Photo = 0</text><text fill="#000000" font-family="sans-serif" font-size="14" lengthAdjust="spacing" textLength="69.0703" x="824.5" y="451.792">Video = 1</text><text fill="#000000" font-family="sans-serif" font-size="14" lengthAdjust="spacing" textLength="69.3301" x="824.5" y="468.0889">Audio = 2</text><text fill="#000000" font-family="sans-serif" font-size="14" lengthAdjust="spacing" textLength="69.2891" x="824.5" y="484.3857">Other = 3</text><line style="stroke:#181818;stroke-width:0.5;" x1="819.5" x2="908.2822" y1="491.6875" y2="491.6875"/></g><!--class User--><g class="entity" data-entity="User" data-source-line="29" data-uid="ent0006" id="entity_User"><rect fill="#F1F1F1" height="162.0781" rx="2.5" ry="2.5" style="stroke:#181818;stroke-width:0.5;" width="203.5635" x="210" y="798"/><ellipse cx="291.5767" cy="814" fill="#ADD1B2" rx="11" ry="11" style="stroke:#181818;stroke-width:1;"/><path d="M295.686,820 L287.9673,820 L287.9673,807.6094 L295.686,807.6094 L295.686,809.7656 L290.4204,809.7656 L290.4204,812.4375 L295.186,812.4375 L295.186,814.5938 L290.4204,814.5938 L290.4204,817.8438 L295.686,817.8438 L295.686,820 Z " fill="#000000"/><text fill="#000000" font-family="sans-serif" font-size="14" lengthAdjust="spacing" textLength="31.9102" x="312.0767" y="818.8467">User</text><line style="stroke:#181818;stroke-width:0.5;" x1="211" x2="412.5635" y1="830" y2="830"/><ellipse cx="221" cy="843.6484" fill="#000000" rx="3" ry="3" style="stroke:#000000;stroke-width:1;"/><text fill="#000000" font-family="sans-serif" font-size="14" lengthAdjust="spacing" textLength="52.7051" x="230" y="846.9951">Id: uuid</text><line style="stroke:#181818;stroke-width:1;" x1="211" x2="412.5635" y1="854.2969" y2="854.2969"/><ellipse cx="221" cy="867.9453" fill="#000000" rx="3" ry="3" style="stroke:#000000;stroke-width:1;"/><text fill="#000000" font-family="sans-serif" font-size="14" lengthAdjust="spacing" textLength="108.6572" x="230" y="871.292">Username: text</text><ellipse cx="221" cy="884.2422" fill="#000000" rx="3" ry="3" style="stroke:#000000;stroke-width:1;"/><text fill="#000000" font-family="sans-serif" font-size="14" lengthAdjust="spacing" textLength="177.5635" x="230" y="887.5889">LastActivityUtc: datetime</text><ellipse cx="221" cy="900.5391" fill="#000000" rx="3" ry="3" style="stroke:#000000;stroke-width:1;"/><text fill="#000000" font-family="sans-serif" font-size="14" lengthAdjust="spacing" textLength="166.5781" x="230" y="903.8857">CreatedAtUtc: datetime</text><text fill="#000000" font-family="sans-serif" font-size="14" lengthAdjust="spacing" textLength="116.7783" x="230" y="920.1826">Description: text</text><text fill="#000000" font-family="sans-serif" font-size="14" lengthAdjust="spacing" textLength="162.873" x="230" y="936.4795">BirthDateUtc: datetime</text><ellipse cx="221" cy="949.4297" fill="#000000" rx="3" ry="3" style="stroke:#000000;stroke-width:1;"/><text fill="#000000" font-family="sans-serif" font-size="14" lengthAdjust="spacing" textLength="95.2109" x="230" y="952.7764">Settings: json</text></g><!--class Conversation--><g class="entity" data-entity="Conversation" data-source-line="40" data-uid="ent0007" id="entity_Conversation"><rect fill="#F1F1F1" height="145.7813" rx="2.5" ry="2.5" style="stroke:#181818;stroke-width:0.5;" width="208.041" x="387" y="370"/><ellipse cx="440.4912" cy="386" fill="#ADD1B2" rx="11" ry="11" style="stroke:#181818;stroke-width:1;"/><path d="M444.6006,392 L436.8818,392 L436.8818,379.6094 L444.6006,379.6094 L444.6006,381.7656 L439.335,381.7656 L439.335,384.4375 L444.1006,384.4375 L444.1006,386.5938 L439.335,386.5938 L439.335,389.8438 L444.6006,389.8438 L444.6006,392 Z " fill="#000000"/><text fill="#000000" font-family="sans-serif" font-size="14" lengthAdjust="spacing" textLength="92.5586" x="460.9912" y="390.8467">Conversation</text><line style="stroke:#181818;stroke-width:0.5;" x1="388" x2="594.041" y1="402" y2="402"/><ellipse cx="398" cy="415.6484" fill="#000000" rx="3" ry="3" style="stroke:#000000;stroke-width:1;"/><text fill="#000000" font-family="sans-serif" font-size="14" lengthAdjust="spacing" textLength="52.7051" x="407" y="418.9951">Id: uuid</text><line style="stroke:#181818;stroke-width:1;" x1="388" x2="594.041" y1="426.2969" y2="426.2969"/><text fill="#000000" font-family="sans-serif" font-size="14" lengthAdjust="spacing" textLength="67.4775" x="407" y="443.292">Title: text</text><text fill="#000000" font-family="sans-serif" font-size="14" lengthAdjust="spacing" textLength="116.7783" x="407" y="459.5889">Description: text</text><ellipse cx="398" cy="472.5391" fill="#000000" rx="3" ry="3" style="stroke:#000000;stroke-width:1;"/><text fill="#000000" font-family="sans-serif" font-size="14" lengthAdjust="spacing" textLength="170.3994" x="407" y="475.8857">Type: ConversationType</text><text fill="#000000" font-family="sans-serif" font-size="14" lengthAdjust="spacing" textLength="182.041" x="407" y="492.1826">LastMessageId: uuid &#171;FK&#187;</text><text fill="#000000" font-family="sans-serif" font-size="14" lengthAdjust="spacing" textLength="92.6406" x="407" y="508.4795">PhotoId: uuid</text></g><!--class Participant--><g class="entity" data-entity="Participant" data-source-line="50" data-uid="ent0008" id="entity_Participant"><rect fill="#F1F1F1" height="129.4844" rx="2.5" ry="2.5" style="stroke:#181818;stroke-width:0.5;" width="210.0781" x="166" y="172.5"/><ellipse cx="229.0034" cy="188.5" fill="#ADD1B2" rx="11" ry="11" style="stroke:#181818;stroke-width:1;"/><path d="M233.1128,194.5 L225.394,194.5 L225.394,182.1094 L233.1128,182.1094 L233.1128,184.2656 L227.8472,184.2656 L227.8472,186.9375 L232.6128,186.9375 L232.6128,189.0938 L227.8472,189.0938 L227.8472,192.3438 L233.1128,192.3438 L233.1128,194.5 Z " fill="#000000"/><text fill="#000000" font-family="sans-serif" font-size="14" lengthAdjust="spacing" textLength="75.5713" x="249.5034" y="193.3467">Participant</text><line style="stroke:#181818;stroke-width:0.5;" x1="167" x2="375.0781" y1="204.5" y2="204.5"/><ellipse cx="177" cy="218.1484" fill="#000000" rx="3" ry="3" style="stroke:#000000;stroke-width:1;"/><text fill="#000000" font-family="sans-serif" font-size="14" lengthAdjust="spacing" textLength="52.7051" x="186" y="221.4951">Id: uuid</text><line style="stroke:#181818;stroke-width:1;" x1="167" x2="375.0781" y1="228.7969" y2="228.7969"/><ellipse cx="177" cy="242.4453" fill="#000000" rx="3" ry="3" style="stroke:#000000;stroke-width:1;"/><text fill="#000000" font-family="sans-serif" font-size="14" lengthAdjust="spacing" textLength="123.4297" x="186" y="245.792">UserId: uuid &#171;FK&#187;</text><ellipse cx="177" cy="258.7422" fill="#000000" rx="3" ry="3" style="stroke:#000000;stroke-width:1;"/><text fill="#000000" font-family="sans-serif" font-size="14" lengthAdjust="spacing" textLength="184.0781" x="186" y="262.0889">ConversationId: uuid &#171;FK&#187;</text><ellipse cx="177" cy="275.0391" fill="#000000" rx="3" ry="3" style="stroke:#000000;stroke-width:1;"/><text fill="#000000" font-family="sans-serif" font-size="14" lengthAdjust="spacing" textLength="146.3301" x="186" y="278.3857">Role: ParticipantRole</text><ellipse cx="177" cy="291.3359" fill="#000000" rx="3" ry="3" style="stroke:#000000;stroke-width:1;"/><text fill="#000000" font-family="sans-serif" font-size="14" lengthAdjust="spacing" textLength="153.8223" x="186" y="294.6826">JoinedAtUtc: datetime</text></g><!--class Message--><g class="entity" data-entity="Message" data-source-line="59" data-uid="ent0009" id="entity_Message"><rect fill="#F1F1F1" height="162.0781" rx="2.5" ry="2.5" style="stroke:#181818;stroke-width:0.5;" width="210.0781" x="444" y="576"/><ellipse cx="514.1094" cy="592" fill="#ADD1B2" rx="11" ry="11" style="stroke:#181818;stroke-width:1;"/><path d="M518.2188,598 L510.5,598 L510.5,585.6094 L518.2188,585.6094 L518.2188,587.7656 L512.9531,587.7656 L512.9531,590.4375 L517.7188,590.4375 L517.7188,592.5938 L512.9531,592.5938 L512.9531,595.8438 L518.2188,595.8438 L518.2188,598 Z " fill="#000000"/><text fill="#000000" font-family="sans-serif" font-size="14" lengthAdjust="spacing" textLength="61.3594" x="534.6094" y="596.8467">Message</text><line style="stroke:#181818;stroke-width:0.5;" x1="445" x2="653.0781" y1="608" y2="608"/><ellipse cx="455" cy="621.6484" fill="#000000" rx="3" ry="3" style="stroke:#000000;stroke-width:1;"/><text fill="#000000" font-family="sans-serif" font-size="14" lengthAdjust="spacing" textLength="52.7051" x="464" y="624.9951">Id: uuid</text><line style="stroke:#181818;stroke-width:1;" x1="445" x2="653.0781" y1="632.2969" y2="632.2969"/><ellipse cx="455" cy="645.9453" fill="#000000" rx="3" ry="3" style="stroke:#000000;stroke-width:1;"/><text fill="#000000" font-family="sans-serif" font-size="14" lengthAdjust="spacing" textLength="184.0781" x="464" y="649.292">ConversationId: uuid &#171;FK&#187;</text><ellipse cx="455" cy="662.2422" fill="#000000" rx="3" ry="3" style="stroke:#000000;stroke-width:1;"/><text fill="#000000" font-family="sans-serif" font-size="14" lengthAdjust="spacing" textLength="123.4297" x="464" y="665.5889">UserId: uuid &#171;FK&#187;</text><ellipse cx="455" cy="678.5391" fill="#000000" rx="3" ry="3" style="stroke:#000000;stroke-width:1;"/><text fill="#000000" font-family="sans-serif" font-size="14" lengthAdjust="spacing" textLength="65.7686" x="464" y="681.8857">Seq: long</text><text fill="#000000" font-family="sans-serif" font-size="14" lengthAdjust="spacing" textLength="72.3857" x="464" y="698.1826">Body: text</text><ellipse cx="455" cy="711.1328" fill="#000000" rx="3" ry="3" style="stroke:#000000;stroke-width:1;"/><text fill="#000000" font-family="sans-serif" font-size="14" lengthAdjust="spacing" textLength="95.1084" x="464" y="714.4795">IsEdited: bool</text><ellipse cx="455" cy="727.4297" fill="#000000" rx="3" ry="3" style="stroke:#000000;stroke-width:1;"/><text fill="#000000" font-family="sans-serif" font-size="14" lengthAdjust="spacing" textLength="166.5781" x="464" y="730.7764">CreatedAtUtc: datetime</text></g><!--class MessagesAttachments--><g class="entity" data-entity="MessagesAttachments" data-source-line="70" data-uid="ent0010" id="entity_MessagesAttachments"><rect fill="#F1F1F1" height="80.5938" rx="2.5" ry="2.5" style="stroke:#181818;stroke-width:0.5;" width="190.2656" x="611" y="838.5"/><ellipse cx="626" cy="854.5" fill="#ADD1B2" rx="11" ry="11" style="stroke:#181818;stroke-width:1;"/><path d="M630.1094,860.5 L622.3906,860.5 L622.3906,848.1094 L630.1094,848.1094 L630.1094,850.2656 L624.8438,850.2656 L624.8438,852.9375 L629.6094,852.9375 L629.6094,855.0938 L624.8438,855.0938 L624.8438,858.3438 L630.1094,858.3438 L630.1094,860.5 Z " fill="#000000"/><text fill="#000000" font-family="sans-serif" font-size="14" lengthAdjust="spacing" textLength="158.2656" x="640" y="859.3467">MessagesAttachments</text><line style="stroke:#181818;stroke-width:0.5;" x1="612" x2="800.2656" y1="870.5" y2="870.5"/><text fill="#000000" font-family="sans-serif" font-size="14" lengthAdjust="spacing" textLength="152.8789" x="617" y="887.4951">MessageId: uuid &#171;FK&#187;</text><text fill="#000000" font-family="sans-serif" font-size="14" lengthAdjust="spacing" textLength="173.8379" x="617" y="903.792">AttachmentId: uuid &#171;FK&#187;</text><line style="stroke:#181818;stroke-width:1;" x1="612" x2="800.2656" y1="911.0938" y2="911.0938"/></g><!--class LastReadMessage--><g class="entity" data-entity="LastReadMessage" data-source-line="77" data-uid="ent0011" id="entity_LastReadMessage"><rect fill="#F1F1F1" height="113.1875" rx="2.5" ry="2.5" style="stroke:#181818;stroke-width:0.5;" width="221.46" x="605.5" y="180.5"/><ellipse cx="648.9093" cy="196.5" fill="#ADD1B2" rx="11" ry="11" style="stroke:#181818;stroke-width:1;"/><path d="M653.0187,202.5 L645.3,202.5 L645.3,190.1094 L653.0187,190.1094 L653.0187,192.2656 L647.7531,192.2656 L647.7531,194.9375 L652.5187,194.9375 L652.5187,197.0938 L647.7531,197.0938 L647.7531,200.3438 L653.0187,200.3438 L653.0187,202.5 Z " fill="#000000"/><text fill="#000000" font-family="sans-serif" font-size="14" lengthAdjust="spacing" textLength="126.3281" x="669.2225" y="201.3467">LastReadMessage</text><line style="stroke:#181818;stroke-width:0.5;" x1="606.5" x2="825.96" y1="212.5" y2="212.5"/><ellipse cx="616.5" cy="226.1484" fill="#000000" rx="3" ry="3" style="stroke:#000000;stroke-width:1;"/><text fill="#000000" font-family="sans-serif" font-size="14" lengthAdjust="spacing" textLength="123.4297" x="625.5" y="229.4951">UserId: uuid &#171;FK&#187;</text><ellipse cx="616.5" cy="242.4453" fill="#000000" rx="3" ry="3" style="stroke:#000000;stroke-width:1;"/><text fill="#000000" font-family="sans-serif" font-size="14" lengthAdjust="spacing" textLength="184.0781" x="625.5" y="245.792">ConversationId: uuid &#171;FK&#187;</text><ellipse cx="616.5" cy="258.7422" fill="#000000" rx="3" ry="3" style="stroke:#000000;stroke-width:1;"/><text fill="#000000" font-family="sans-serif" font-size="14" lengthAdjust="spacing" textLength="152.8789" x="625.5" y="262.0889">MessageId: uuid &#171;FK&#187;</text><line style="stroke:#181818;stroke-width:1;" x1="606.5" x2="825.96" y1="269.3906" y2="269.3906"/><ellipse cx="616.5" cy="283.0391" fill="#000000" rx="3" ry="3" style="stroke:#000000;stroke-width:1;"/><text fill="#000000" font-family="sans-serif" font-size="14" lengthAdjust="spacing" textLength="195.46" x="625.5" y="286.3857">LastReadTimeUtc: datetime</text></g><!--class MessageReaction--><g class="entity" data-entity="MessageReaction" data-source-line="85" data-uid="ent0012" id="entity_MessageReaction"><rect fill="#F1F1F1" height="113.1875" rx="2.5" ry="2.5" style="stroke:#181818;stroke-width:0.5;" width="219.5732" x="132" y="386.5"/><ellipse cx="176.1507" cy="402.5" fill="#ADD1B2" rx="11" ry="11" style="stroke:#181818;stroke-width:1;"/><path d="M180.2601,408.5 L172.5413,408.5 L172.5413,396.1094 L180.2601,396.1094 L180.2601,398.2656 L174.9944,398.2656 L174.9944,400.9375 L179.7601,400.9375 L179.7601,403.0938 L174.9944,403.0938 L174.9944,406.3438 L180.2601,406.3438 L180.2601,408.5 Z " fill="#000000"/><text fill="#000000" font-family="sans-serif" font-size="14" lengthAdjust="spacing" textLength="122.7939" x="196.6286" y="407.3467">MessageReaction</text><line style="stroke:#181818;stroke-width:0.5;" x1="133" x2="350.5732" y1="418.5" y2="418.5"/><ellipse cx="143" cy="432.1484" fill="#000000" rx="3" ry="3" style="stroke:#000000;stroke-width:1;"/><text fill="#000000" font-family="sans-serif" font-size="14" lengthAdjust="spacing" textLength="123.4297" x="152" y="435.4951">UserId: uuid &#171;FK&#187;</text><ellipse cx="143" cy="448.4453" fill="#000000" rx="3" ry="3" style="stroke:#000000;stroke-width:1;"/><text fill="#000000" font-family="sans-serif" font-size="14" lengthAdjust="spacing" textLength="152.8789" x="152" y="451.792">MessageId: uuid &#171;FK&#187;</text><line style="stroke:#181818;stroke-width:1;" x1="133" x2="350.5732" y1="459.0938" y2="459.0938"/><ellipse cx="143" cy="472.7422" fill="#000000" rx="3" ry="3" style="stroke:#000000;stroke-width:1;"/><text fill="#000000" font-family="sans-serif" font-size="14" lengthAdjust="spacing" textLength="193.5732" x="152" y="476.0889">EmotionType: EmotionType</text><ellipse cx="143" cy="489.0391" fill="#000000" rx="3" ry="3" style="stroke:#000000;stroke-width:1;"/><text fill="#000000" font-family="sans-serif" font-size="14" lengthAdjust="spacing" textLength="168.4717" x="152" y="492.3857">ReactedAtUtc: datetime</text></g><!--class Attachment--><g class="entity" data-entity="Attachment" data-source-line="93" data-uid="ent0013" id="entity_Attachment"><rect fill="#F1F1F1" height="96.8906" rx="2.5" ry="2.5" style="stroke:#181818;stroke-width:0.5;" width="182.7139" x="772.5" y="608.5"/><ellipse cx="818.4478" cy="624.5" fill="#ADD1B2" rx="11" ry="11" style="stroke:#181818;stroke-width:1;"/><path d="M822.5571,630.5 L814.8384,630.5 L814.8384,618.1094 L822.5571,618.1094 L822.5571,620.2656 L817.2915,620.2656 L817.2915,622.9375 L822.0571,622.9375 L822.0571,625.0938 L817.2915,625.0938 L817.2915,628.3438 L822.5571,628.3438 L822.5571,630.5 Z " fill="#000000"/><text fill="#000000" font-family="sans-serif" font-size="14" lengthAdjust="spacing" textLength="82.3184" x="838.9478" y="629.3467">Attachment</text><line style="stroke:#181818;stroke-width:0.5;" x1="773.5" x2="954.2139" y1="640.5" y2="640.5"/><ellipse cx="783.5" cy="654.1484" fill="#000000" rx="3" ry="3" style="stroke:#000000;stroke-width:1;"/><text fill="#000000" font-family="sans-serif" font-size="14" lengthAdjust="spacing" textLength="13.0156" x="792.5" y="657.4951">Id</text><line style="stroke:#181818;stroke-width:1;" x1="773.5" x2="954.2139" y1="664.7969" y2="664.7969"/><ellipse cx="783.5" cy="678.4453" fill="#000000" rx="3" ry="3" style="stroke:#000000;stroke-width:1;"/><text fill="#000000" font-family="sans-serif" font-size="14" lengthAdjust="spacing" textLength="126.7314" x="792.5" y="681.792">FileType: FileType</text><ellipse cx="783.5" cy="694.7422" fill="#000000" rx="3" ry="3" style="stroke:#000000;stroke-width:1;"/><text fill="#000000" font-family="sans-serif" font-size="14" lengthAdjust="spacing" textLength="156.7139" x="792.5" y="698.0889">FileId: uuid &#171;FK to S3&#187;</text></g><!--class UserPhoto--><g class="entity" data-entity="UserPhoto" data-source-line="100" data-uid="ent0014" id="entity_UserPhoto"><rect fill="#F1F1F1" height="113.1875" rx="2.5" ry="2.5" style="stroke:#181818;stroke-width:0.5;" width="192.5781" x="215.5" y="600.5"/><ellipse cx="271.6162" cy="616.5" fill="#ADD1B2" rx="11" ry="11" style="stroke:#181818;stroke-width:1;"/><path d="M275.7256,622.5 L268.0068,622.5 L268.0068,610.1094 L275.7256,610.1094 L275.7256,612.2656 L270.46,612.2656 L270.46,614.9375 L275.2256,614.9375 L275.2256,617.0938 L270.46,617.0938 L270.46,620.3438 L275.7256,620.3438 L275.7256,622.5 Z " fill="#000000"/><text fill="#000000" font-family="sans-serif" font-size="14" lengthAdjust="spacing" textLength="71.8457" x="292.1162" y="621.3467">UserPhoto</text><line style="stroke:#181818;stroke-width:0.5;" x1="216.5" x2="407.0781" y1="632.5" y2="632.5"/><ellipse cx="226.5" cy="646.1484" fill="#000000" rx="3" ry="3" style="stroke:#000000;stroke-width:1;"/><text fill="#000000" font-family="sans-serif" font-size="14" lengthAdjust="spacing" textLength="156.7139" x="235.5" y="649.4951">FileId: uuid &#171;FK to S3&#187;</text><ellipse cx="226.5" cy="662.4453" fill="#000000" rx="3" ry="3" style="stroke:#000000;stroke-width:1;"/><text fill="#000000" font-family="sans-serif" font-size="14" lengthAdjust="spacing" textLength="123.4297" x="235.5" y="665.792">UserId: uuid &#171;FK&#187;</text><line style="stroke:#181818;stroke-width:1;" x1="216.5" x2="407.0781" y1="673.0938" y2="673.0938"/><ellipse cx="226.5" cy="686.7422" fill="#000000" rx="3" ry="3" style="stroke:#000000;stroke-width:1;"/><text fill="#000000" font-family="sans-serif" font-size="14" lengthAdjust="spacing" textLength="166.5781" x="235.5" y="690.0889">CreatedAtUtc: datetime</text><ellipse cx="226.5" cy="703.0391" fill="#000000" rx="3" ry="3" style="stroke:#000000;stroke-width:1;"/><text fill="#000000" font-family="sans-serif" font-size="14" lengthAdjust="spacing" textLength="83.6787" x="235.5" y="706.3857">isMain: bool</text></g><!--link ConversationType to Conversation--><g class="link" data-entity-1="ConversationType" data-entity-2="Conversation" data-source-line="109" data-uid="lnk15" id="link_ConversationType_Conversation"><path codeLine="109" d="M491,285.57 C491,310.65 491,341.93 491,369.92" fill="none" id="ConversationType-Conversation" style="stroke:#181818;stroke-width:1;stroke-dasharray:7,7;"/></g><!--link ParticipantRole to Participant--><g class="link" data-entity-1="ParticipantRole" data-entity-2="Participant" data-source-line="110" data-uid="lnk16" id="link_ParticipantRole_Participant"><path codeLine="110" d="M271,104.13 C271,125.01 271,149.82 271,172.25" fill="none" id="ParticipantRole-Participant" style="stroke:#181818;stroke-width:1;stroke-dasharray:7,7;"/></g><!--link EmotionType to MessageReaction--><g class="link" data-entity-1="EmotionType" data-entity-2="MessageReaction" data-source-line="111" data-uid="lnk17" id="link_EmotionType_MessageReaction"><path codeLine="111" d="M130.24,310.21 C151.43,335.2 174.83,362.8 194.73,386.26" fill="none" id="EmotionType-MessageReaction" style="stroke:#181818;stroke-width:1;stroke-dasharray:7,7;"/></g><!--link FileType to Attachment--><g class="link" data-entity-1="FileType" data-entity-2="Attachment" data-source-line="112" data-uid="lnk18" id="link_FileType_Attachment"><path codeLine="112" d="M864,499.7 C864,533.44 864,576.02 864,608.22" fill="none" id="FileType-Attachment" style="stroke:#181818;stroke-width:1;stroke-dasharray:7,7;"/></g><!--link Participant to User--><g class="link" data-entity-1="Participant" data-entity-2="User" data-source-line="114" data-uid="lnk19" id="link_Participant_User"><path codeLine="114" d="M155.0536,313.471 C132.9936,332.511 126.25,343.69 114,370 C86.61,428.82 104.92,451.75 114,516 C128.36,617.68 126.79,648.99 178,738 C190.16,759.14 200.8085,773.6206 217.5185,792.0006" fill="none" id="Participant-User" style="stroke:#181818;stroke-width:1;"/><line style="stroke:#181818;stroke-width:1;" x1="162.6238" x2="164.7597" y1="306.9371" y2="297.1679"/><line style="stroke:#181818;stroke-width:1;" x1="162.6238" x2="172.6003" y1="306.9371" y2="306.2521"/><line style="stroke:#181818;stroke-width:1;" x1="162.6238" x2="168.68" y1="306.9371" y2="301.71"/><ellipse cx="158.0817" cy="310.8574" fill="none" rx="4" ry="4" style="stroke:#181818;stroke-width:1;"/><line style="stroke:#181818;stroke-width:1;" x1="223.1689" x2="217.2495" y1="792.2695" y2="797.6511"/><line style="stroke:#181818;stroke-width:1;" x1="221.1508" x2="215.2315" y1="790.0498" y2="795.4313"/><line style="stroke:#181818;stroke-width:1;" x1="217.5185" x2="222.9" y1="792.0006" y2="797.92"/></g><!--link Participant to Conversation--><g class="link" data-entity-1="Participant" data-entity-2="Conversation" data-source-line="115" data-uid="lnk20" id="link_Participant_Conversation"><path codeLine="115" d="M352.8997,313.9479 C376.2297,335.5779 383.3843,342.21 407.3643,364.45" fill="none" id="Participant-Conversation" style="stroke:#181818;stroke-width:1;"/><line style="stroke:#181818;stroke-width:1;" x1="345.5666" x2="335.6207" y1="307.1491" y2="306.1099"/><line style="stroke:#181818;stroke-width:1;" x1="345.5666" x2="343.7793" y1="307.1491" y2="297.3101"/><line style="stroke:#181818;stroke-width:1;" x1="345.5666" x2="339.7" y1="307.1491" y2="301.71"/><ellipse cx="349.9665" cy="311.2284" fill="none" rx="4" ry="4" style="stroke:#181818;stroke-width:1;"/><line style="stroke:#181818;stroke-width:1;" x1="413.0172" x2="407.5772" y1="364.2372" y2="370.1028"/><line style="stroke:#181818;stroke-width:1;" x1="410.8176" x2="405.3775" y1="362.1971" y2="368.0628"/><line style="stroke:#181818;stroke-width:1;" x1="407.3643" x2="413.23" y1="364.45" y2="369.89"/></g><!--link Message to User--><g class="link" data-entity-1="Message" data-entity-2="User" data-source-line="117" data-uid="lnk21" id="link_Message_User"><path codeLine="117" d="M449.5777,750.2959 C428.6677,769.7059 425.3531,772.7773 404.4331,792.1973" fill="none" id="Message-User" style="stroke:#181818;stroke-width:1;"/><line style="stroke:#181818;stroke-width:1;" x1="456.9068" x2="458.688" y1="743.4926" y2="733.6526"/><line style="stroke:#181818;stroke-width:1;" x1="456.9068" x2="466.852" y1="743.4926" y2="742.4474"/><line style="stroke:#181818;stroke-width:1;" x1="456.9068" x2="462.77" y1="743.4926" y2="738.05"/><ellipse cx="452.5093" cy="747.5746" fill="none" rx="4" ry="4" style="stroke:#181818;stroke-width:1;"/><line style="stroke:#181818;stroke-width:1;" x1="404.2229" x2="398.7802" y1="797.8502" y2="791.9871"/><line style="stroke:#181818;stroke-width:1;" x1="406.4216" x2="400.9789" y1="795.8092" y2="789.946"/><line style="stroke:#181818;stroke-width:1;" x1="404.4331" x2="398.57" y1="792.1973" y2="797.64"/></g><!--link Message to Conversation--><g class="link" data-entity-1="Message" data-entity-2="Conversation" data-source-line="118" data-uid="lnk22" id="link_Message_Conversation"><path codeLine="118" d="M535.9041,558.2777 C531.0941,538.6577 531.9651,542.9162 525.9651,523.7062" fill="none" id="Message-Conversation" style="stroke:#181818;stroke-width:1;"/><line style="stroke:#181818;stroke-width:1;" x1="538.2851" x2="546.0174" y1="567.9901" y2="574.3314"/><line style="stroke:#181818;stroke-width:1;" x1="538.2851" x2="534.3626" y1="567.9901" y2="577.1886"/><line style="stroke:#181818;stroke-width:1;" x1="538.2851" x2="540.19" y1="567.9901" y2="575.76"/><ellipse cx="536.8565" cy="562.1627" fill="none" rx="4" ry="4" style="stroke:#181818;stroke-width:1;"/><line style="stroke:#181818;stroke-width:1;" x1="520.9544" x2="528.5906" y1="521.0806" y2="518.6956"/><line style="stroke:#181818;stroke-width:1;" x1="521.8488" x2="529.485" y1="523.9442" y2="521.5591"/><line style="stroke:#181818;stroke-width:1;" x1="525.9651" x2="523.58" y1="523.7062" y2="516.07"/></g><!--link Conversation to Message--><g class="link" data-entity-1="Conversation" data-entity-2="Message" data-source-line="120" data-uid="lnk23" id="link_Conversation_Message"><path codeLine="120" d="M500.4138,523.8546 C504.9638,543.0646 503.5565,538.9025 509.4565,558.5225" fill="none" id="Conversation-Message" style="stroke:#181818;stroke-width:1;"/><line style="stroke:#181818;stroke-width:1;" x1="495.5996" x2="503.3842" y1="520.8842" y2="519.0404"/><line style="stroke:#181818;stroke-width:1;" x1="496.291" x2="504.0757" y1="523.8035" y2="521.9596"/><line style="stroke:#181818;stroke-width:1;" x1="500.4138" x2="498.57" y1="523.8546" y2="516.07"/><line style="stroke:#181818;stroke-width:1;" x1="512.3362" x2="520.3858" y1="568.0989" y2="574.0322"/><line style="stroke:#181818;stroke-width:1;" x1="512.3362" x2="508.8942" y1="568.0989" y2="577.4878"/><line style="stroke:#181818;stroke-width:1;" x1="512.3362" x2="514.64" y1="568.0989" y2="575.76"/><ellipse cx="510.6084" cy="562.3531" fill="none" rx="4" ry="4" style="stroke:#181818;stroke-width:1;"/></g><!--link LastReadMessage to User--><g class="link" data-entity-1="LastReadMessage" data-entity-2="User" data-source-line="122" data-uid="lnk24" id="link_LastReadMessage_User"><path codeLine="122" d="M731.8306,311.4554 C750.7706,411.4254 771.52,605.41 672,738 C640,780.64 516.5743,822.1297 421.7943,849.1097" fill="none" id="LastReadMessage-User" style="stroke:#181818;stroke-width:1;"/><line style="stroke:#181818;stroke-width:1;" x1="729.9692" x2="722.5849" y1="301.6302" y2="294.8869"/><line style="stroke:#181818;stroke-width:1;" x1="729.9692" x2="734.3751" y1="301.6302" y2="292.6531"/><line style="stroke:#181818;stroke-width:1;" x1="729.9692" x2="728.48" y1="301.6302" y2="293.77"/><ellipse cx="731.086" cy="307.5253" fill="none" rx="4" ry="4" style="stroke:#181818;stroke-width:1;"/><line style="stroke:#181818;stroke-width:1;" x1="419.0423" x2="416.852" y1="854.052" y2="846.3577"/><line style="stroke:#181818;stroke-width:1;" x1="421.9277" x2="419.7374" y1="853.2307" y2="845.5364"/><line style="stroke:#181818;stroke-width:1;" x1="421.7943" x2="414.1" y1="849.1097" y2="851.3"/></g><!--link LastReadMessage to Conversation--><g class="link" data-entity-1="LastReadMessage" data-entity-2="Conversation" data-source-line="123" data-uid="lnk25" id="link_LastReadMessage_Conversation"><path codeLine="123" d="M641.1866,305.8322 C615.2966,329.3122 604.0873,339.4672 576.5073,364.4672" fill="none" id="LastReadMessage-Conversation" style="stroke:#181818;stroke-width:1;"/><line style="stroke:#181818;stroke-width:1;" x1="648.5941" x2="650.4893" y1="299.1143" y2="289.2955"/><line style="stroke:#181818;stroke-width:1;" x1="648.5941" x2="658.5507" y1="299.1143" y2="298.1845"/><line style="stroke:#181818;stroke-width:1;" x1="648.5941" x2="654.52" y1="299.1143" y2="293.74"/><ellipse cx="644.1496" cy="303.1451" fill="none" rx="4" ry="4" style="stroke:#181818;stroke-width:1;"/><line style="stroke:#181818;stroke-width:1;" x1="576.2301" x2="570.8572" y1="370.1172" y2="364.1899"/><line style="stroke:#181818;stroke-width:1;" x1="578.4528" x2="573.08" y1="368.1024" y2="362.1751"/><line style="stroke:#181818;stroke-width:1;" x1="576.5073" x2="570.58" y1="364.4672" y2="369.84"/></g><!--link LastReadMessage to Message--><g class="link" data-entity-1="LastReadMessage" data-entity-2="Message" data-source-line="124" data-uid="lnk26" id="link_LastReadMessage_Message"><path codeLine="124" d="M690.7989,310.5708 C670.9489,367.0208 644.5,439.77 613,516 C604.94,535.51 599.0716,549.0276 590.2316,568.4676" fill="none" id="LastReadMessage-Message" style="stroke:#181818;stroke-width:1;"/><line style="stroke:#181818;stroke-width:1;" x1="694.1162" x2="691.1097" y1="301.137" y2="291.5996"/><line style="stroke:#181818;stroke-width:1;" x1="694.1162" x2="702.4303" y1="301.137" y2="295.5804"/><line style="stroke:#181818;stroke-width:1;" x1="694.1162" x2="696.77" y1="301.137" y2="293.59"/><ellipse cx="692.1258" cy="306.7973" fill="none" rx="4" ry="4" style="stroke:#181818;stroke-width:1;"/><line style="stroke:#181818;stroke-width:1;" x1="592.217" x2="584.9346" y1="573.7646" y2="570.453"/><line style="stroke:#181818;stroke-width:1;" x1="593.4588" x2="586.1764" y1="571.0337" y2="567.7221"/><line style="stroke:#181818;stroke-width:1;" x1="590.2316" x2="586.92" y1="568.4676" y2="575.75"/></g><!--link MessageReaction to User--><g class="link" data-entity-1="MessageReaction" data-entity-2="User" data-source-line="126" data-uid="lnk27" id="link_MessageReaction_User"><path codeLine="126" d="M211.7869,516.5952 C189.4069,576.8952 169.64,658.25 198,738 C205.56,759.26 213.0727,773.253 226.8827,791.563" fill="none" id="MessageReaction-User" style="stroke:#181818;stroke-width:1;"/><line style="stroke:#181818;stroke-width:1;" x1="215.2664" x2="212.4249" y1="507.2201" y2="497.6323"/><line style="stroke:#181818;stroke-width:1;" x1="215.2664" x2="223.6751" y1="507.2201" y2="501.8077"/><line style="stroke:#181818;stroke-width:1;" x1="215.2664" x2="218.05" y1="507.2201" y2="499.72"/><ellipse cx="213.1787" cy="512.8452" fill="none" rx="4" ry="4" style="stroke:#181818;stroke-width:1;"/><line style="stroke:#181818;stroke-width:1;" x1="232.4849" x2="226.0979" y1="792.3479" y2="797.1651"/><line style="stroke:#181818;stroke-width:1;" x1="230.6784" x2="224.2914" y1="789.9527" y2="794.77"/><line style="stroke:#181818;stroke-width:1;" x1="226.8827" x2="231.7" y1="791.563" y2="797.95"/></g><!--link MessageReaction to Message--><g class="link" data-entity-1="MessageReaction" data-entity-2="Message" data-source-line="127" data-uid="lnk28" id="link_MessageReaction_Message"><path codeLine="127" d="M337.4713,509.9287 C374.5113,535.5087 397.5273,551.3938 437.1573,578.7638" fill="none" id="MessageReaction-Message" style="stroke:#181818;stroke-width:1;"/><line style="stroke:#181818;stroke-width:1;" x1="329.2428" x2="319.2504" y1="504.2461" y2="504.6371"/><line style="stroke:#181818;stroke-width:1;" x1="329.2428" x2="326.0696" y1="504.2461" y2="494.7629"/><line style="stroke:#181818;stroke-width:1;" x1="329.2428" x2="322.66" y1="504.2461" y2="499.7"/><ellipse cx="334.1799" cy="507.6557" fill="none" rx="4" ry="4" style="stroke:#181818;stroke-width:1;"/><line style="stroke:#181818;stroke-width:1;" x1="442.7218" x2="438.1755" y1="577.7455" y2="584.3282"/><line style="stroke:#181818;stroke-width:1;" x1="440.2533" x2="435.707" y1="576.0407" y2="582.6234"/><line style="stroke:#181818;stroke-width:1;" x1="437.1573" x2="443.74" y1="578.7638" y2="583.31"/></g><!--link Attachment to MessagesAttachments--><g class="link" data-entity-1="Attachment" data-entity-2="MessagesAttachments" data-source-line="129" data-uid="lnk29" id="link_Attachment_MessagesAttachments"><path codeLine="129" d="M819.2194,720.3598 C790.7194,760.0398 765.8066,794.7221 739.0766,831.9421" fill="none" id="Attachment-MessagesAttachments" style="stroke:#181818;stroke-width:1;"/><line style="stroke:#181818;stroke-width:1;" x1="825.0531" x2="824.8467" y1="712.2377" y2="702.2398"/><line style="stroke:#181818;stroke-width:1;" x1="825.0531" x2="834.5933" y1="712.2377" y2="709.2402"/><line style="stroke:#181818;stroke-width:1;" x1="825.0531" x2="829.72" y1="712.2377" y2="705.74"/><ellipse cx="821.5529" cy="717.1109" fill="none" rx="4" ry="4" style="stroke:#181818;stroke-width:1;"/><line style="stroke:#181818;stroke-width:1;" x1="739.9923" x2="733.4943" y1="837.5243" y2="832.8577"/><line style="stroke:#181818;stroke-width:1;" x1="741.7422" x2="735.2443" y1="835.0876" y2="830.421"/><line style="stroke:#181818;stroke-width:1;" x1="739.0766" x2="734.41" y1="831.9421" y2="838.44"/></g><!--link Message to MessagesAttachments--><g class="link" data-entity-1="Message" data-entity-2="MessagesAttachments" data-source-line="130" data-uid="lnk30" id="link_Message_MessagesAttachments"><path codeLine="130" d="M616.5786,752.6998 C640.9586,786.8498 653.2019,804.0189 673.1119,831.9089" fill="none" id="Message-MessagesAttachments" style="stroke:#181818;stroke-width:1;"/><line style="stroke:#181818;stroke-width:1;" x1="610.7683" x2="601.2367" y1="744.561" y2="741.5362"/><line style="stroke:#181818;stroke-width:1;" x1="610.7683" x2="611.0033" y1="744.561" y2="734.5638"/><line style="stroke:#181818;stroke-width:1;" x1="610.7683" x2="606.12" y1="744.561" y2="738.05"/><ellipse cx="614.2545" cy="749.4443" fill="none" rx="4" ry="4" style="stroke:#181818;stroke-width:1;"/><line style="stroke:#181818;stroke-width:1;" x1="678.6915" x2="672.1804" y1="832.8404" y2="837.4885"/><line style="stroke:#181818;stroke-width:1;" x1="676.9484" x2="670.4373" y1="830.3987" y2="835.0468"/><line style="stroke:#181818;stroke-width:1;" x1="673.1119" x2="677.76" y1="831.9089" y2="838.42"/></g><!--link UserPhoto to User--><g class="link" data-entity-1="UserPhoto" data-entity-2="User" data-source-line="132" data-uid="lnk31" id="link_UserPhoto_User"><path codeLine="132" d="M312,731.52 C312,757.1 312,761.95 312,789.98" fill="none" id="UserPhoto-User" style="stroke:#181818;stroke-width:1;"/><line style="stroke:#181818;stroke-width:1;" x1="312" x2="306" y1="721.52" y2="713.52"/><line style="stroke:#181818;stroke-width:1;" x1="312" x2="318" y1="721.52" y2="713.52"/><line style="stroke:#181818;stroke-width:1;" x1="312" x2="312" y1="721.52" y2="713.52"/><ellipse cx="312" cy="727.52" fill="none" rx="4" ry="4" style="stroke:#181818;stroke-width:1;"/><line style="stroke:#181818;stroke-width:1;" x1="316" x2="308" y1="793.98" y2="793.98"/><line style="stroke:#181818;stroke-width:1;" x1="316" x2="308" y1="790.98" y2="790.98"/><line style="stroke:#181818;stroke-width:1;" x1="312" x2="312" y1="789.98" y2="797.98"/></g><!--SRC=[pLVBRjj65DtpAsONG82IjcutH1f0iPE-OYI8dEuPSM1D8v6kE4fhs07Qs6XGj4M0ehkY3nJTbvMgHdv8-ONX7_NSuPkKHDfMWCeBSsR8S-_SU-RSEzmPzjccwppb0y-ImdLszlSuEp0OVbjYm3joctkUjSizzZvxIqz_C727UnYzhKURNSjnU0_ZTundXi49xu4raA8ZzYn7FdHxCTpzBnm-I51QTbyu2Sesxp_MYod8dRvRyAVT5m2B0Jxai980t1DFkFuyTDphXUEDy5NBiRskfMVU3NrvWiVt4bjt0PmnzA3hIZSnzAcmkPiOQWrjuIQMxikkTdiZX992xhD77gP2e0Rxo3RPS2XiLlcxSGqlC_LQpTLPyBrwXVyZvGVFrGJZb-pQ3OtOR4R0PCMn-jnaadyfAu3LBsggJjKCM2VglD98WzspFDdgIF4K6teaEoQpBScbwFE5w3y6Nm7W702477ojpZ3y9pJ7bAzEOM0AGpDQfESQ7cmEE4pQBRdQVCa3_J1MKpA4Pp_u1gQdsWly-S6Hci6O7nlQubvd8FQ8QPMH94E_mdDW0su6t4dbHcwBWUnkmVlAROJuFsa8dxOnL_yYY1Co54LsTSJQN4hXx7ec-ynpdIf6_0pK5uZ5TxI96V32UCr1aDEA1ALKpmh7fIbFMOAPiJOqfr61x3j2zchmF4Ds7xavrw7JpaUvMcxegYnOZjnWf2jcMMAN8Fy1lDShyEXWHegSnFdcpRkVtBgrIb5oHnAe31Dp_FqTV9iIR5GsEudDQaMicTWegyT0U0waiJw5n_eKWd4XlM6ilP7dKgPeN9vAHze2QSnCAvvVpQvGIYk3UG6DRkIolHgvwWWq65LGirHIb_7dzz2rYqMYmJvsXLDBR8jwFzAwSOIGdArYKZxL4O4ld-OoUuivNMS6ri-FDl_SP3tNsQsbPx-HGy5B7DzJ0eHadp0jRP0uXFQYP_csQ-_NLDD8aYQeu4ZpYhWZXzuTMw1Wc-onw_QgCFy4NNmrHgZW6TNg8x28o3eA_P_2zL30jI7QyAXa7e9ozNQ1C5yXj7wqeSLxB77NQqbfTRfzp7h6GTJ3rfFbEZnEqQlX8jAD459g6Sed8dMUgiT3Rjd50_Z_Li3wWQqj3t4WTa2IA_MtL4mrYUV12ns5vPI1lKwkKLf_rDz0f3BNC3Dt9rlLllo0mpkFEk-qaD7-BzlHqoKYmKj3cvwJJ35XDNznL4c2bXwU43I-89hfLN6bOkee7CFh4nAwD0RqTIux31VDziQ272LTL8one6KY0kdEp3XO8_wR8MTQcTUbr1ZuKH-UOPdmjYtXL5UX4FulaasKreakFy0yeowrrBhIobYNB7s9HJaAyr3gwgzVpocVKMpRi9wPChBd2Ki5eJ0Ihc4jPRgHHMNFt6Rpy52dQz5ypXiZrltiHuMv_0Uv2zxXORFf7iHU6aQnccHHbwpbq9Uya-0NTNE1ryMrvDkCCEINSeLxiUNSAqPooBBs_mC0]--></g></svg>